<svg width="21" height="21" viewBox="0 0 21 21" fill="none" xmlns="http://www.w3.org/2000/svg">
<path d="M10.2749 4.41602C15.2544 4.26027 18.1911 8.90382 18.7231 9.83105C18.8697 10.0876 18.8696 10.4035 18.7231 10.6602C18.0115 11.9009 15.3316 15.9584 10.7261 16.0762C10.6579 16.0778 10.5892 16.0791 10.521 16.0791C5.63516 16.0791 2.80102 11.5743 2.27686 10.6602C2.12964 10.4036 2.12945 10.0876 2.27686 9.83105C2.98859 8.59013 5.66833 4.53268 10.2749 4.41602ZM10.3169 6.08105C6.98545 6.16626 4.83202 8.90474 3.97705 10.2422C4.75372 11.4247 7.09478 14.4935 10.6831 14.4102C14.0137 14.3252 16.1677 11.5876 17.022 10.25C16.2453 9.0675 13.8911 5.99022 10.3169 6.08105ZM10.5005 7.3291C12.1086 7.32934 13.4165 8.63791 13.4165 10.2461C13.4164 11.8542 12.1086 13.1628 10.5005 13.1631C8.8922 13.1631 7.58357 11.8544 7.5835 10.2461C7.5835 8.63776 8.89215 7.3291 10.5005 7.3291ZM10.5005 8.99609C9.81132 8.99609 9.25049 9.55693 9.25049 10.2461C9.25057 10.9352 9.81137 11.4961 10.5005 11.4961C11.1894 11.4959 11.7504 10.935 11.7505 10.2461C11.7505 9.55707 11.1895 8.99633 10.5005 8.99609Z" fill="url(#paint0_linear_214_375)"/>
<mask id="mask0_214_375" style="mask-type:luminance" maskUnits="userSpaceOnUse" x="2" y="4" width="17" height="13">
<path d="M10.2749 4.41602C15.2544 4.26027 18.1911 8.90382 18.7231 9.83105C18.8697 10.0876 18.8696 10.4035 18.7231 10.6602C18.0115 11.9009 15.3316 15.9584 10.7261 16.0762C10.6579 16.0778 10.5892 16.0791 10.521 16.0791C5.63516 16.0791 2.80102 11.5743 2.27686 10.6602C2.12964 10.4036 2.12945 10.0876 2.27686 9.83105C2.98859 8.59013 5.66833 4.53268 10.2749 4.41602ZM10.3169 6.08105C6.98545 6.16626 4.83202 8.90474 3.97705 10.2422C4.75372 11.4247 7.09478 14.4935 10.6831 14.4102C14.0137 14.3252 16.1677 11.5876 17.022 10.25C16.2453 9.0675 13.8911 5.99022 10.3169 6.08105ZM10.5005 7.3291C12.1086 7.32934 13.4165 8.63791 13.4165 10.2461C13.4164 11.8542 12.1086 13.1628 10.5005 13.1631C8.8922 13.1631 7.58357 11.8544 7.5835 10.2461C7.5835 8.63776 8.89215 7.3291 10.5005 7.3291ZM10.5005 8.99609C9.81132 8.99609 9.25049 9.55693 9.25049 10.2461C9.25057 10.9352 9.81137 11.4961 10.5005 11.4961C11.1894 11.4959 11.7504 10.935 11.7505 10.2461C11.7505 9.55707 11.1895 8.99633 10.5005 8.99609Z" fill="white"/>
</mask>
<g mask="url(#mask0_214_375)">
</g>
<defs>
<linearGradient id="paint0_linear_214_375" x1="18.8334" y1="16.079" x2="1.89986" y2="15.6782" gradientUnits="userSpaceOnUse">
<stop stop-color="#888BF4"/>
<stop offset="1" stop-color="#5151C6"/>
</linearGradient>
</defs>
</svg>
