<svg width="21" height="21" viewBox="0 0 21 21" fill="none" xmlns="http://www.w3.org/2000/svg">
<path d="M6.91248 9.45898C7.44978 9.45898 7.88611 9.89593 7.88611 10.4316C7.88587 10.9687 7.44963 11.4053 6.91248 11.4053C6.3754 11.4052 5.93908 10.9687 5.93884 10.4316C5.93884 9.89599 6.37525 9.45908 6.91248 9.45898ZM10.6986 9.45898C11.2358 9.45913 11.6722 9.89601 11.6722 10.4316C11.672 10.9687 11.2356 11.4051 10.6986 11.4053C10.1615 11.4053 9.72521 10.9687 9.72498 10.4316C9.72498 9.89593 10.1613 9.45898 10.6986 9.45898ZM14.4838 9.45898C15.0211 9.45898 15.4584 9.89593 15.4584 10.4316C15.4581 10.9687 15.0209 11.4053 14.4838 11.4053C13.9468 11.405 13.5104 10.9686 13.5101 10.4316C13.5101 9.89606 13.9467 9.45921 14.4838 9.45898Z" fill="url(#paint0_linear_214_388)"/>
<path fill-rule="evenodd" clip-rule="evenodd" d="M10.5166 1.9126C5.67496 1.9126 2.16663 5.8677 2.16663 10.2584C2.16663 11.6606 2.57496 13.1036 3.29163 14.4222C3.42496 14.64 3.44163 14.9146 3.34996 15.1742L2.79163 17.0436C2.66663 17.4943 3.04996 17.8273 3.47496 17.6938L5.15829 17.1939C5.61663 17.0436 5.97496 17.2347 6.39996 17.4943C7.61663 18.2112 9.13329 18.5793 10.5 18.5793C14.6333 18.5793 18.8333 15.3828 18.8333 10.2334C18.8333 5.79258 15.25 1.9126 10.5166 1.9126Z" stroke="url(#paint1_linear_214_388)" stroke-width="1.5" stroke-linecap="round" stroke-linejoin="round"/>
<defs>
<linearGradient id="paint0_linear_214_388" x1="15.4584" y1="11.4053" x2="5.84426" y2="10.6262" gradientUnits="userSpaceOnUse">
<stop stop-color="#888BF4"/>
<stop offset="1" stop-color="#5151C6"/>
</linearGradient>
<linearGradient id="paint1_linear_214_388" x1="18.8333" y1="18.5793" x2="1.89515" y2="18.2986" gradientUnits="userSpaceOnUse">
<stop stop-color="#888BF4"/>
<stop offset="1" stop-color="#5151C6"/>
</linearGradient>
</defs>
</svg>
