<svg width="24" height="24" viewBox="0 0 24 24" fill="none" xmlns="http://www.w3.org/2000/svg">
<path d="M20.1195 5.08534C19.6504 4.61447 19.0934 4.24095 18.4803 3.98611C17.8672 3.73127 17.2101 3.6001 16.5465 3.6001C15.8828 3.6001 15.2257 3.73127 14.6127 3.98611C13.9996 4.24095 13.4426 4.61447 12.9734 5.08534L11.9998 6.06209L11.0261 5.08534C10.0785 4.13467 8.79324 3.60059 7.45309 3.60059C6.11293 3.60059 4.82767 4.13467 3.88003 5.08534C2.9324 6.03601 2.40002 7.32539 2.40002 8.66984C2.40002 10.0143 2.9324 11.3037 3.88003 12.2543L4.85367 13.2311L11.9998 20.4001L19.1459 13.2311L20.1195 12.2543C20.5889 11.7837 20.9612 11.2249 21.2152 10.6099C21.4693 9.99481 21.6 9.33559 21.6 8.66984C21.6 8.00409 21.4693 7.34487 21.2152 6.72983C20.9612 6.11479 20.5889 5.55598 20.1195 5.08534V5.08534Z" stroke="#242424" stroke-width="1.5" stroke-linecap="round" stroke-linejoin="round"/>
</svg>
