<svg width="16" height="12" viewBox="0 0 16 12" fill="none" xmlns="http://www.w3.org/2000/svg">
<path d="M5.44824 8.75732C6.7289 7.67505 8.60508 7.67505 9.88574 8.75732C9.95009 8.81553 9.98748 8.89814 9.98926 8.98486C9.99092 9.0715 9.95644 9.15463 9.89453 9.21533L7.88965 11.2378C7.83087 11.2972 7.7506 11.3306 7.66699 11.3306C7.5834 11.3305 7.5031 11.2972 7.44434 11.2378L5.43848 9.21533C5.37688 9.15463 5.34303 9.07129 5.34473 8.98486C5.34656 8.89818 5.3839 8.81548 5.44824 8.75732ZM2.77246 6.06006C5.53159 3.49568 9.80431 3.49573 12.5635 6.06006C12.6258 6.12019 12.6612 6.20302 12.6621 6.28955C12.6629 6.3759 12.6293 6.45875 12.5684 6.52002L11.4092 7.69092C11.2897 7.81022 11.0971 7.81208 10.9746 7.6958C10.0685 6.87604 8.88933 6.42229 7.66699 6.42236C6.4456 6.42289 5.26772 6.87673 4.3623 7.6958C4.23975 7.81215 4.04622 7.81042 3.92676 7.69092L2.76855 6.52002C2.70747 6.45882 2.67312 6.37597 2.67383 6.28955C2.67465 6.20308 2.71026 6.12018 2.77246 6.06006ZM0.0966797 3.36963C4.32849 -0.682439 11.0044 -0.682285 15.2363 3.36963C15.2976 3.42983 15.3325 3.5123 15.333 3.59814C15.3334 3.68391 15.2997 3.76678 15.2393 3.82764L14.0791 4.99756C13.9595 5.11766 13.765 5.11873 13.6436 5.00049C12.0312 3.46908 9.89158 2.61484 7.66699 2.61475C5.4421 2.61476 3.30199 3.46886 1.68945 5.00049C1.56817 5.11886 1.3744 5.11766 1.25488 4.99756L0.09375 3.82764C0.0333193 3.76675 -0.000480886 3.68388 0 3.59814C0.000565275 3.5123 0.0353775 3.42979 0.0966797 3.36963Z" fill="black"/>
</svg>
