<svg width="24" height="24" viewBox="0 0 24 24" fill="none" xmlns="http://www.w3.org/2000/svg">
<path d="M20.9542 11.377V20.3633C20.9541 20.8785 20.7501 21.3729 20.3859 21.7373C20.0214 22.1018 19.5263 22.3066 19.0109 22.3066H5.4054C4.89001 22.3066 4.39581 22.1017 4.03137 21.7373C3.66694 21.3729 3.46211 20.8787 3.46204 20.3633V11.5361L12.2101 4.97461L20.9542 11.377ZM15.1241 22.3057V14.5312H9.29309L15.1241 22.3057ZM11.9103 3.10254C12.0857 2.96611 12.3315 2.96608 12.507 3.10254L20.7667 9.52734C20.8851 9.6194 20.9542 9.76119 20.9542 9.91113V10.582L12.3976 4.31738C12.2982 4.24476 12.1673 4.23661 12.0607 4.29199L12.0157 4.31934L3.46204 10.7344V9.91113C3.46204 9.76125 3.53127 9.6194 3.64954 9.52734L11.9103 3.10254Z" fill="#348BE8"/>
<path d="M3 10.5404L12.1546 3.45898L21.5454 10.5404" stroke="#348BE8" stroke-width="0.854589" stroke-linecap="round" stroke-linejoin="round"/>
</svg>
