<svg width="24" height="24" viewBox="0 0 24 24" fill="none" xmlns="http://www.w3.org/2000/svg">
<circle cx="11.4999" cy="12.4999" r="9.49994" fill="#E1E1E1"/>
<mask id="mask0_61_483" style="mask-type:alpha" maskUnits="userSpaceOnUse" x="2" y="3" width="19" height="19">
<circle cx="11.4999" cy="12.4999" r="9.49994" fill="#808187"/>
</mask>
<g mask="url(#mask0_61_483)">
<path d="M17.0683 18.5146C17.0443 18.5018 17.0234 18.4839 17.0071 18.4621C16.5922 17.9192 16.0841 17.4545 15.5065 17.0895C14.3255 16.3315 12.8291 15.9141 11.2932 15.9141C9.75735 15.9141 8.26092 16.3315 7.07993 17.0895C6.50236 17.4543 5.99425 17.9189 5.57933 18.4616C5.56303 18.4834 5.54213 18.5013 5.51812 18.5142L4.375 19.6573C6.10195 21.4366 8.5046 22.5568 11.1587 22.5937C13.9248 22.6315 16.4317 21.4993 18.2151 19.6614L17.0683 18.5146Z" fill="#00030F"/>
<path d="M11.2932 7.75C10.3784 7.75 9.55135 8.0928 8.96363 8.71577C8.37592 9.33874 8.08229 10.2001 8.14862 11.1246C8.28314 12.9453 9.69375 14.4296 11.2932 14.4296C12.8926 14.4296 14.3004 12.9453 14.4377 11.1251C14.5063 10.2094 14.215 9.3559 13.6176 8.72133C13.0275 8.09512 12.2019 7.75 11.2932 7.75Z" fill="#00030F"/>
</g>
</svg>
