<svg width="24" height="27" viewBox="0 0 24 27" fill="none" xmlns="http://www.w3.org/2000/svg">
<path d="M20.7531 16.5598C21.624 11.3011 18.0404 6.33638 12.7489 5.47086C7.45737 4.60533 2.46173 8.16671 1.5908 13.4254C0.71988 18.6841 4.30347 23.6488 9.59498 24.5143C14.8865 25.3798 19.8821 21.8185 20.7531 16.5598Z" fill="#F2583E"/>
<path d="M15.398 20.0676C15.5933 18.8755 14.7792 17.7517 13.5796 17.5576C12.3801 17.3635 11.2493 18.1726 11.054 19.3647C10.8586 20.5569 11.6728 21.6807 12.8723 21.8748C14.0719 22.0689 15.2027 21.2598 15.398 20.0676Z" fill="#F6EF97"/>
<path d="M8.52658 5.79834C7.57155 5.86997 6.61426 5.9416 5.65697 6.01323C5.40019 6.03338 5.13666 6.05353 4.90466 6.16321C4.67266 6.2729 4.47444 6.49674 4.47219 6.75193C4.46993 7.0295 4.68391 7.25783 4.90691 7.42347C5.57138 7.92041 6.44307 8.13979 7.26521 8.01443C6.94762 8.44646 6.26063 8.7106 6.31694 9.24336C6.35973 9.65076 6.835 9.85446 7.24269 9.9149C7.95221 10.0201 8.68651 9.944 9.35773 9.69329C9.24736 10.1096 9.14375 10.5752 9.35548 10.9491C9.56496 11.3229 10.0245 11.4841 10.4547 11.5378C12.0922 11.7415 13.6396 10.8439 15.0587 10.0067C15.2389 9.89923 15.4821 9.79626 15.642 9.93057C15.7344 10.0067 15.7592 10.132 15.7772 10.2507C16.034 11.9251 15.6421 13.6263 15.6533 15.3186C15.6578 16.1602 15.802 17.078 16.4259 17.6466C16.8922 18.0719 17.5499 18.2241 18.1806 18.2823C18.8225 18.3405 19.5005 18.3114 20.0613 17.9958C20.4285 17.7899 20.7213 17.472 20.9713 17.134C21.7935 16.0192 22.1967 14.5597 21.8498 13.2211C21.7349 12.7801 21.5367 12.3481 21.2101 12.028" fill="#00B6AA"/>
<path d="M19.845 22.4975C21.859 22.4975 23.4917 20.8749 23.4917 18.8734C23.4917 16.8718 21.859 15.2493 19.845 15.2493C17.831 15.2493 16.1983 16.8718 16.1983 18.8734C16.1983 20.8749 17.831 22.4975 19.845 22.4975Z" fill="#F2583E"/>
<path d="M23.0459 5.7471L22.4873 7.99005L21.5457 11.7574L8.50409 5.7471L10.3308 3.66084L12.7409 0.905273C12.7409 0.905273 19.3091 1.37983 23.0459 5.7471Z" fill="#171766"/>
<path d="M22.4873 7.9901L21.5457 11.7575L8.50409 5.74715L10.3308 3.66089L22.4873 7.9901Z" fill="#00B6AA"/>
<path d="M5.38896 3.19971L26.4223 13.0177C26.4223 13.0177 24.6 16.747 12.7409 10.3293C4.60285 5.92617 5.38896 3.19971 5.38896 3.19971Z" fill="#171766"/>
<path d="M2.90449 11.0164C2.90449 11.0164 1.75575 13.5257 3.52391 14.0943C5.29207 14.6628 6.72461 12.4647 6.72461 12.4647C6.72461 12.4647 4.58931 14.0987 3.48111 13.1675C2.66123 12.4803 2.90449 11.0164 2.90449 11.0164Z" fill="#171766"/>
<path d="M9.70686 13.9399C9.70686 13.9399 8.55811 16.4493 10.3263 17.0178C12.0945 17.5864 13.527 15.3882 13.527 15.3882C13.527 15.3882 11.3917 17.0223 10.2835 16.0911C9.46134 15.4039 9.70686 13.9399 9.70686 13.9399Z" fill="#171766"/>
<path d="M8.71577 11.3521L4.47217 15.2L6.59397 16.7871L9.14599 11.7572L8.71577 11.3521Z" fill="#FFB459"/>
<path d="M17.9981 20.3309L17.7504 17.797L21.7462 16.4517V17.112L18.4283 18.1619L19.1041 20.5749L17.9981 20.3309Z" fill="#171766"/>
</svg>
