<svg width="21" height="66" viewBox="0 0 21 66" fill="none" xmlns="http://www.w3.org/2000/svg">
<path d="M10.8758 36.1868C4.04411 46.0607 12.0515 56.313 17.7637 65.0318C16.9416 64.949 16.1217 64.799 15.4054 64.5326C12.68 63.5276 -0.699536 52.221 1.41776 41.6241C2.18134 37.7895 4.0779 34.2998 5.45189 30.6376C6.82588 26.9732 7.43403 22.6104 5.26493 19.349C4.47883 18.1648 3.38639 17.2224 2.33 16.2711C-0.426991 13.7931 -3.08262 11.089 -4.72465 7.77603C-6.36668 4.46085 -6.87573 0.420394 -5.29001 -2.92165L1.57994 -3H15.0428C13.3985 0.207739 13.3129 4.08926 15.6059 7.75813C18.0836 11.3397 21.0118 14.2497 20.5613 18.7267C19.8855 25.6659 14.7049 30.3668 10.8758 36.1868Z" fill="#00B6AA"/>
</svg>
