<svg width="51" height="66" viewBox="0 0 51 66" fill="none" xmlns="http://www.w3.org/2000/svg">
<path d="M42.2935 12.0112C35.9867 14.2497 26.9769 14.6974 26.3012 22.7559C25.8507 28.1283 26.3012 34.396 21.1206 37.5299C17.0662 39.7684 12.3361 41.1114 10.3089 45.3646C7.69603 51.5293 8.63755 59.1043 12.0095 65.1102C11.3202 65.1258 10.5409 65.1102 9.76377 65.0318C4.05158 56.313 -3.95585 46.0607 2.8758 36.1868C6.70495 30.3668 11.8856 25.6659 12.5613 18.7267C13.0118 14.2497 10.0836 11.3397 7.60593 7.75813C5.31294 4.08926 5.39854 0.207739 7.04282 -3H50.8123C51.1727 3.23192 48.258 9.85558 42.2935 12.0112Z" fill="#7BD6AA"/>
</svg>
