<svg width="63" height="66" viewBox="0 0 63 66" fill="none" xmlns="http://www.w3.org/2000/svg">
<path d="M69.6906 -3C68.6072 0.386817 67.3526 3.74677 65.366 6.69485C63.1901 9.92049 60.0209 12.6425 56.2188 13.5468C53.8852 14.102 51.4481 13.9542 49.056 14.1423C46.6639 14.3303 44.1502 14.9369 42.4879 16.6561C40.6184 18.5856 40.1859 21.527 38.4515 23.5752C34.8228 27.8686 27.4303 26.4807 23.1642 30.1496C18.6278 34.049 19.2877 42.2128 14.1139 45.2325C12.0844 46.4166 3.24583 48.4357 3.04311 54.2894C2.87643 59.1289 6.37898 64.9355 6.37898 64.9355C6.37898 64.9355 5.36538 65.0788 4.00941 65.1102C0.637501 59.1043 -0.304021 51.5293 2.30881 45.3645C4.33601 41.1114 9.06614 39.7683 13.1205 37.5299C18.3012 34.396 17.8507 28.1283 18.3012 22.7559C18.9769 14.6974 27.9867 14.2497 34.2935 12.0112C40.258 9.85558 43.1726 3.23192 42.8122 -3H69.6906Z" fill="#00B6AA"/>
</svg>
