<svg width="19" height="21" viewBox="0 0 19 21" fill="none" xmlns="http://www.w3.org/2000/svg">
<path d="M6.1077 17.0743L0.726624 13.5957L7.87136 0.780396L12.8042 1.66012L6.1077 17.0743Z" fill="white"/>
<path d="M7.54702 3.20006L15.4531 2.21289L16.4622 3.43062L11.8897 5.81684L18.7597 10.7572L17.5276 12.2525L11.9641 10.2513L15.0589 14.9409L12.8943 16.8436L7.60784 11.8316L9.99993 19.8051L8.1687 20.8437L2.58264 13.6358" fill="#F1573D"/>
<path d="M8.29035 20.2842L9.81076 19.588C9.81076 19.588 8.94581 18.2405 8.18449 18.612C7.4209 18.9836 8.29035 20.2842 8.29035 20.2842Z" fill="#171766"/>
<path d="M13.0339 15.8725L14.3921 14.7286C14.3921 14.7286 12.7861 13.2445 12.0946 13.6743C11.4009 14.1041 13.0339 15.8725 13.0339 15.8725Z" fill="#171766"/>
<path d="M17.2911 11.6908L18.0344 10.6969C18.0344 10.6969 16.1379 9.29564 15.6941 10.0993C15.2526 10.9051 17.2911 11.6908 17.2911 11.6908Z" fill="#171766"/>
<path d="M15.6603 3.3658L14.9643 2.30701C14.9643 2.30701 12.7142 2.62487 13.0385 3.21359C13.3651 3.8023 15.6603 3.3658 15.6603 3.3658Z" fill="#171766"/>
</svg>
