<svg width="16" height="12" viewBox="0 0 16 12" fill="none" xmlns="http://www.w3.org/2000/svg">
<path d="M5.59412 8.75745C6.87136 7.67539 8.74175 7.67525 10.0189 8.75745C10.0831 8.81566 10.1207 8.89825 10.1224 8.98499C10.1241 9.07162 10.0894 9.15475 10.0277 9.21545L8.02771 11.2379C7.96911 11.2972 7.8893 11.3307 7.80603 11.3307C7.72274 11.3306 7.64293 11.2972 7.58435 11.2379L5.58435 9.21545C5.52267 9.15472 5.48793 9.07159 5.48962 8.98499C5.49146 8.89821 5.52981 8.81562 5.59412 8.75745ZM2.92517 6.06018C5.67699 3.49584 9.93803 3.4958 12.6898 6.06018C12.7519 6.12031 12.7876 6.20316 12.7885 6.28967C12.7892 6.37596 12.7554 6.45888 12.6947 6.52014L11.5385 7.69104C11.4193 7.81039 11.227 7.81221 11.1049 7.69592C10.2012 6.87619 9.02509 6.42241 7.80603 6.42249C6.5879 6.42304 5.41312 6.87684 4.51013 7.69592C4.388 7.81218 4.1957 7.81028 4.07654 7.69104L2.92029 6.52014C2.8595 6.45896 2.82583 6.37599 2.82654 6.28967C2.82735 6.20311 2.86301 6.12031 2.92517 6.06018ZM0.256226 3.36975C4.47688 -0.682265 11.1352 -0.682351 15.3558 3.36975C15.4169 3.42995 15.452 3.51242 15.4525 3.59827C15.4529 3.68403 15.4191 3.7669 15.3588 3.82776L14.2006 4.99768C14.0813 5.11753 13.888 5.11877 13.767 5.00061C12.1589 3.46916 10.0247 2.61497 7.80603 2.61487C5.58724 2.61492 3.45327 3.46919 1.84509 5.00061C1.72407 5.11904 1.52971 5.11796 1.41052 4.99768L0.253296 3.82776C0.193026 3.76688 0.159066 3.684 0.159546 3.59827C0.16011 3.51242 0.195086 3.42991 0.256226 3.36975Z" fill="white"/>
</svg>
