<svg width="18" height="12" viewBox="0 0 18 12" fill="none" xmlns="http://www.w3.org/2000/svg">
<path d="M2.2132 7.33368C2.76382 7.33391 3.21027 7.78154 3.21027 8.33368V10.3337C3.21009 10.8857 2.76371 11.3334 2.2132 11.3337H1.21515C0.664565 11.3335 0.218254 10.8857 0.218079 10.3337V8.33368C0.218079 7.78149 0.664457 7.33383 1.21515 7.33368H2.2132ZM6.86749 5.33368C7.41809 5.33394 7.86456 5.78155 7.86456 6.33368V10.3337C7.86439 10.8857 7.41798 11.3334 6.86749 11.3337H5.86945C5.31885 11.3336 4.87255 10.8857 4.87238 10.3337V6.33368C4.87238 5.78147 5.31874 5.33381 5.86945 5.33368H6.86749ZM11.5218 2.99969C12.0723 2.99996 12.5187 3.44772 12.5189 3.99969V10.3337C12.5187 10.8857 12.0723 11.3334 11.5218 11.3337H10.5237C9.97313 11.3336 9.52685 10.8857 9.52667 10.3337V3.99969C9.52685 3.44763 9.97313 2.99981 10.5237 2.99969H11.5218ZM16.1751 0.666687C16.7259 0.666687 17.1732 1.1144 17.1732 1.66669V10.3337C17.173 10.8858 16.7258 11.3337 16.1751 11.3337H15.178C14.6274 11.3336 14.1811 10.8858 14.181 10.3337V1.66669C14.181 1.11445 14.6273 0.666764 15.178 0.666687H16.1751Z" fill="white"/>
</svg>
