<svg width="16" height="12" viewBox="0 0 16 12" fill="none" xmlns="http://www.w3.org/2000/svg">
<path d="M5.59424 8.75745C6.87148 7.67539 8.74188 7.67525 10.019 8.75745C10.0832 8.81566 10.1208 8.89825 10.1226 8.98499C10.1242 9.07162 10.0896 9.15475 10.0278 9.21545L8.02783 11.2379C7.96923 11.2972 7.88942 11.3307 7.80615 11.3307C7.72286 11.3306 7.64305 11.2972 7.58447 11.2379L5.58447 9.21545C5.52279 9.15472 5.48805 9.07159 5.48975 8.98499C5.49158 8.89821 5.52993 8.81562 5.59424 8.75745ZM2.92529 6.06018C5.67711 3.49584 9.93815 3.4958 12.6899 6.06018C12.752 6.12031 12.7877 6.20316 12.7886 6.28967C12.7893 6.37596 12.7555 6.45888 12.6948 6.52014L11.5386 7.69104C11.4194 7.81039 11.2271 7.81221 11.105 7.69592C10.2013 6.87619 9.02521 6.42241 7.80615 6.42249C6.58802 6.42304 5.41324 6.87684 4.51025 7.69592C4.38812 7.81218 4.19583 7.81028 4.07666 7.69104L2.92041 6.52014C2.85963 6.45896 2.82596 6.37599 2.82666 6.28967C2.82748 6.20311 2.86313 6.12031 2.92529 6.06018ZM0.256348 3.36975C4.477 -0.682265 11.1354 -0.682351 15.356 3.36975C15.4171 3.42995 15.4521 3.51242 15.4526 3.59827C15.4531 3.68403 15.4192 3.7669 15.3589 3.82776L14.2007 4.99768C14.0814 5.11753 13.8881 5.11877 13.7671 5.00061C12.159 3.46916 10.0249 2.61497 7.80615 2.61487C5.58736 2.61492 3.45339 3.46919 1.84521 5.00061C1.7242 5.11904 1.52983 5.11796 1.41064 4.99768L0.253418 3.82776C0.193148 3.76688 0.159188 3.684 0.159668 3.59827C0.160232 3.51242 0.195208 3.42991 0.256348 3.36975Z" fill="#120D26"/>
</svg>
