<svg width="18" height="12" viewBox="0 0 18 12" fill="none" xmlns="http://www.w3.org/2000/svg">
<path d="M2.21338 7.33362C2.764 7.33385 3.21045 7.78148 3.21045 8.33362V10.3336C3.21027 10.8856 2.76389 11.3334 2.21338 11.3336H1.21533C0.664748 11.3335 0.218437 10.8857 0.218262 10.3336V8.33362C0.218262 7.78142 0.66464 7.33377 1.21533 7.33362H2.21338ZM6.86768 5.33362C7.41827 5.33388 7.86475 5.78149 7.86475 6.33362V10.3336C7.86457 10.8856 7.41816 11.3334 6.86768 11.3336H5.86963C5.31903 11.3335 4.87273 10.8857 4.87256 10.3336V6.33362C4.87256 5.78141 5.31892 5.33375 5.86963 5.33362H6.86768ZM11.522 2.99963C12.0725 2.9999 12.5189 3.44766 12.519 3.99963V10.3336C12.5189 10.8856 12.0725 11.3334 11.522 11.3336H10.5239C9.97331 11.3335 9.52703 10.8857 9.52686 10.3336V3.99963C9.52703 3.44757 9.97331 2.99975 10.5239 2.99963H11.522ZM16.1753 0.666626C16.7261 0.666626 17.1733 1.11434 17.1733 1.66663V10.3336C17.1732 10.8858 16.726 11.3336 16.1753 11.3336H15.1782C14.6276 11.3335 14.1813 10.8857 14.1812 10.3336V1.66663C14.1812 1.11439 14.6275 0.666703 15.1782 0.666626H16.1753Z" fill="#120D26"/>
</svg>
