<svg width="22" height="22" viewBox="0 0 22 22" fill="none" xmlns="http://www.w3.org/2000/svg">
<path d="M11 11.9166C11.5062 11.9166 11.9166 11.5062 11.9166 11C11.9166 10.4937 11.5062 10.0833 11 10.0833C10.4937 10.0833 10.0833 10.4937 10.0833 11C10.0833 11.5062 10.4937 11.9166 11 11.9166Z" fill="#060518" stroke="#060518" stroke-width="2" stroke-linecap="round" stroke-linejoin="round"/>
<path d="M11 5.50002C11.5062 5.50002 11.9166 5.08961 11.9166 4.58335C11.9166 4.07709 11.5062 3.66669 11 3.66669C10.4937 3.66669 10.0833 4.07709 10.0833 4.58335C10.0833 5.08961 10.4937 5.50002 11 5.50002Z" fill="#060518" stroke="#060518" stroke-width="2" stroke-linecap="round" stroke-linejoin="round"/>
<path d="M11 18.3333C11.5062 18.3333 11.9166 17.9229 11.9166 17.4167C11.9166 16.9104 11.5062 16.5 11 16.5C10.4937 16.5 10.0833 16.9104 10.0833 17.4167C10.0833 17.9229 10.4937 18.3333 11 18.3333Z" fill="#060518" stroke="#060518" stroke-width="2" stroke-linecap="round" stroke-linejoin="round"/>
</svg>
