<svg width="48" height="49" viewBox="0 0 48 49" fill="none" xmlns="http://www.w3.org/2000/svg">
<rect x="0.419434" y="0.5" width="47.5806" height="48" rx="23.7903" fill="#192434"/>
<path d="M14.5533 27.771L16.5533 31.231C16.6861 31.4605 16.9045 31.6279 17.1607 31.6963C17.4169 31.7648 17.6897 31.7287 17.9193 31.596L19.3153 30.79C19.8953 31.247 20.5363 31.622 21.2103 31.902V33.5C21.2103 33.7652 21.3156 34.0196 21.5032 34.2071C21.6907 34.3946 21.9451 34.5 22.2103 34.5H26.2103C26.4755 34.5 26.7298 34.3946 26.9174 34.2071C27.1049 34.0196 27.2103 33.7652 27.2103 33.5V31.902C27.8895 31.6192 28.5271 31.2451 29.1053 30.79L30.5013 31.596C30.9783 31.871 31.5923 31.706 31.8673 31.231L33.8673 27.771C33.9989 27.5412 34.0344 27.2687 33.966 27.0129C33.8976 26.757 33.731 26.5385 33.5023 26.405L32.1303 25.612C32.2375 24.8745 32.2368 24.1253 32.1283 23.388L33.5003 22.595C33.9763 22.32 34.1413 21.705 33.8653 21.229L31.8653 17.769C31.7325 17.5395 31.514 17.3721 31.2578 17.3037C31.0017 17.2352 30.7288 17.2713 30.4993 17.404L29.1033 18.21C28.5258 17.7544 27.8885 17.3802 27.2093 17.098V15.5C27.2093 15.2348 27.1039 14.9804 26.9164 14.7929C26.7288 14.6054 26.4745 14.5 26.2093 14.5H22.2093C21.9441 14.5 21.6897 14.6054 21.5022 14.7929C21.3146 14.9804 21.2093 15.2348 21.2093 15.5V17.098C20.53 17.3808 19.8925 17.7549 19.3143 18.21L17.9193 17.404C17.8056 17.3382 17.6801 17.2954 17.55 17.2781C17.4198 17.2608 17.2875 17.2694 17.1606 17.3033C17.0337 17.3372 16.9148 17.3958 16.8106 17.4757C16.7064 17.5556 16.6189 17.6553 16.5533 17.769L14.5533 21.229C14.4217 21.4588 14.3862 21.7313 14.4545 21.9871C14.5229 22.243 14.6896 22.4615 14.9183 22.595L16.2903 23.388C16.1824 24.1254 16.1824 24.8746 16.2903 25.612L14.9183 26.405C14.4423 26.68 14.2773 27.295 14.5533 27.771ZM24.2093 20.5C26.4153 20.5 28.2093 22.294 28.2093 24.5C28.2093 26.706 26.4153 28.5 24.2093 28.5C22.0033 28.5 20.2093 26.706 20.2093 24.5C20.2093 22.294 22.0033 20.5 24.2093 20.5Z" fill="#D4DEEB"/>
</svg>
