<svg width="36" height="36" viewBox="0 0 36 36" fill="none" xmlns="http://www.w3.org/2000/svg">
<rect width="36" height="36" rx="18" fill="#125CED"/>
<path d="M9.85956 17.495V24.652H12.8896L13.0426 24.67C15.8556 25.326 17.7196 25.799 18.6486 26.092C19.8826 26.481 20.3426 26.576 21.1796 26.632C21.8056 26.675 22.5166 26.434 22.8406 26.104C23.0196 25.922 23.1536 25.548 23.2066 24.968C23.2175 24.8464 23.261 24.73 23.3324 24.6309C23.4039 24.5319 23.5006 24.4538 23.6126 24.405C23.8616 24.297 24.0686 24.121 24.2416 23.865C24.4016 23.631 24.5056 23.195 24.5246 22.564C24.5279 22.448 24.5608 22.3348 24.6201 22.235C24.6794 22.1353 24.7632 22.0523 24.8636 21.994C25.4456 21.657 25.7336 21.277 25.7936 20.831C25.8596 20.338 25.6996 19.783 25.2806 19.151C25.1823 19.0028 25.1456 18.8221 25.1785 18.6473C25.2114 18.4725 25.3111 18.3174 25.4566 18.215C25.8576 17.933 26.0776 17.541 26.1326 16.985C26.2206 16.099 25.6556 15.444 24.3766 15.313C23.2374 15.2004 22.0873 15.2963 20.9826 15.596C20.8572 15.6288 20.7252 15.625 20.6019 15.5853C20.4786 15.5455 20.3693 15.4714 20.2867 15.3716C20.2041 15.2718 20.1518 15.1505 20.1358 15.022C20.1199 14.8934 20.1409 14.763 20.1966 14.646C20.6966 13.588 20.9746 12.715 21.0396 12.039C21.1246 11.142 20.9176 10.492 20.4336 9.95602C20.0666 9.55002 19.4796 9.31802 19.2596 9.36602C18.9696 9.42802 18.7806 9.59602 18.5346 10.184C18.3896 10.532 18.3196 10.828 18.1996 11.519C18.0846 12.175 18.0216 12.471 17.8906 12.859C17.4956 14.035 16.5266 15.254 15.2256 16.095C14.3138 16.6837 13.3256 17.1447 12.2886 17.465C12.2238 17.485 12.1564 17.4951 12.0886 17.495H9.85956ZM9.81756 26.015C9.49456 26.024 9.20456 25.952 8.96156 25.782C8.65156 25.565 8.50556 25.223 8.50256 24.829L8.50556 17.506C8.47156 17.116 8.58656 16.758 8.85856 16.492C9.11356 16.242 9.44656 16.124 9.79856 16.132H11.9836C12.8674 15.8504 13.7101 15.4529 14.4896 14.95C15.5376 14.272 16.3096 13.3 16.6046 12.424C16.7056 12.122 16.7596 11.872 16.8616 11.284C16.9996 10.495 17.0856 10.128 17.2836 9.65602C17.6936 8.67402 18.2316 8.19402 18.9736 8.03302C19.7036 7.87502 20.7666 8.29602 21.4386 9.04002C22.1836 9.86402 22.5126 10.895 22.3906 12.169C22.3386 12.717 22.1866 13.33 21.9366 14.013C22.7903 13.8886 23.6562 13.8698 24.5146 13.957C26.5216 14.162 27.6486 15.469 27.4846 17.121C27.4126 17.833 27.1546 18.438 26.7156 18.913C27.0846 19.624 27.2316 20.327 27.1396 21.013C27.0336 21.803 26.5936 22.461 25.8616 22.972C25.8046 23.665 25.6456 24.218 25.3636 24.632C25.1414 24.9665 24.8514 25.2506 24.5126 25.466C24.4046 26.15 24.1776 26.685 23.8066 27.061C23.1916 27.687 22.0926 28.06 21.0886 27.992C20.1356 27.928 19.5716 27.812 18.2416 27.392C17.3646 27.115 15.5486 26.655 12.8116 26.015H9.81656H9.81756ZM11.5186 17.184C11.5183 17.0946 11.5357 17.0059 11.5697 16.9232C11.6038 16.8404 11.6539 16.7652 11.717 16.7019C11.7802 16.6385 11.8552 16.5883 11.9379 16.554C12.0205 16.5197 12.1091 16.502 12.1986 16.502C12.2879 16.5023 12.3762 16.5201 12.4586 16.5545C12.541 16.589 12.6159 16.6393 12.6788 16.7026C12.7418 16.7659 12.7916 16.841 12.8256 16.9236C12.8595 17.0062 12.8768 17.0947 12.8766 17.184V24.862C12.8767 24.9513 12.8592 25.0398 12.8252 25.1223C12.7911 25.2049 12.7412 25.2799 12.6781 25.3431C12.6151 25.4064 12.5402 25.4566 12.4577 25.4909C12.3753 25.5252 12.2869 25.5429 12.1976 25.543C12.1083 25.5429 12.0199 25.5252 11.9374 25.4909C11.855 25.4566 11.7801 25.4064 11.717 25.3431C11.654 25.2799 11.604 25.2049 11.5699 25.1223C11.5359 25.0398 11.5184 24.9513 11.5186 24.862V17.184Z" fill="#F8F8F8"/>
</svg>
