<svg width="32" height="32" viewBox="0 0 32 32" fill="none" xmlns="http://www.w3.org/2000/svg">
<rect width="32" height="32" rx="16" fill="#125CED"/>
<path d="M10.0019 15.6465V20.6564H12.2345L12.3472 20.669C14.4199 21.1282 15.7933 21.4593 16.4779 21.6644C17.3871 21.9367 17.726 22.0032 18.3428 22.0424C18.804 22.0725 19.3279 21.9038 19.5666 21.6728C19.6985 21.5454 19.7972 21.2836 19.8363 20.8776C19.8444 20.7925 19.8764 20.711 19.929 20.6417C19.9817 20.5723 20.053 20.5177 20.1354 20.4835C20.3189 20.4079 20.4714 20.2847 20.5989 20.1055C20.7168 19.9417 20.7934 19.6365 20.8074 19.1948C20.8099 19.1136 20.8341 19.0344 20.8778 18.9645C20.9215 18.8947 20.9833 18.8366 21.0572 18.7958C21.486 18.5599 21.6982 18.2939 21.7424 17.9817C21.7911 17.6366 21.6732 17.2481 21.3645 16.8057C21.292 16.702 21.265 16.5755 21.2893 16.4531C21.3135 16.3307 21.387 16.2222 21.4941 16.1505C21.7896 15.9531 21.9517 15.6787 21.9922 15.2895C22.0571 14.6693 21.6408 14.2108 20.6984 14.1191C19.859 14.0403 19.0116 14.1074 18.1976 14.3172C18.1053 14.3401 18.008 14.3375 17.9171 14.3097C17.8263 14.2819 17.7457 14.23 17.6849 14.1601C17.624 14.0903 17.5855 14.0054 17.5737 13.9154C17.5619 13.8254 17.5775 13.7341 17.6185 13.6522C17.9869 12.9116 18.1917 12.3005 18.2396 11.8273C18.3022 11.1994 18.1497 10.7444 17.7931 10.3692C17.5227 10.085 17.0902 9.92261 16.9281 9.95621C16.7144 9.99961 16.5751 10.1172 16.3939 10.5288C16.287 10.7724 16.2354 10.9796 16.147 11.4633C16.0623 11.9225 16.0159 12.1297 15.9193 12.4013C15.6283 13.2245 14.9143 14.0778 13.9557 14.6665C13.2839 15.0786 12.5558 15.4013 11.7917 15.6255C11.7439 15.6395 11.6943 15.6466 11.6443 15.6465H10.0019ZM9.97099 21.6105C9.73299 21.6168 9.51932 21.5664 9.34027 21.4474C9.11185 21.2955 9.00428 21.0561 9.00207 20.7803L9.00428 15.6542C8.97923 15.3812 9.06396 15.1306 9.26438 14.9444C9.45227 14.7694 9.69763 14.6868 9.95699 14.6924H11.5669C12.2182 14.4953 12.8391 14.2171 13.4134 13.865C14.1856 13.3904 14.7544 12.71 14.9718 12.0968C15.0462 11.8854 15.086 11.7104 15.1612 11.2988C15.2628 10.7465 15.3262 10.4896 15.4721 10.1592C15.7742 9.47181 16.1706 9.13581 16.7173 9.02311C17.2552 8.91251 18.0384 9.20721 18.5336 9.72801C19.0825 10.3048 19.3249 11.0265 19.235 11.9183C19.1967 12.3019 19.0847 12.731 18.9005 13.2091C19.5296 13.122 20.1676 13.1089 20.8 13.1699C22.2788 13.3134 23.1092 14.2283 22.9884 15.3847C22.9354 15.8831 22.7453 16.3066 22.4218 16.6391C22.6937 17.1368 22.802 17.6289 22.7342 18.1091C22.6561 18.6621 22.3319 19.1227 21.7925 19.4804C21.7505 19.9655 21.6334 20.3526 21.4256 20.6424C21.2619 20.8766 21.0483 21.0754 20.7986 21.2262C20.719 21.705 20.5517 22.0795 20.2784 22.3427C19.8252 22.7809 19.0155 23.042 18.2757 22.9944C17.5735 22.9496 17.1579 22.8684 16.178 22.5744C15.5318 22.3805 14.1937 22.0585 12.177 21.6105H9.97025H9.97099ZM11.2243 15.4288C11.2241 15.3662 11.2369 15.3041 11.262 15.2462C11.2871 15.1883 11.324 15.1357 11.3705 15.0913C11.4171 15.047 11.4724 15.0118 11.5333 14.9878C11.5942 14.9638 11.6594 14.9514 11.7254 14.9514C11.7912 14.9516 11.8563 14.9641 11.917 14.9882C11.9777 15.0123 12.0328 15.0475 12.0792 15.0918C12.1256 15.1362 12.1623 15.1887 12.1873 15.2466C12.2123 15.3044 12.2251 15.3663 12.2249 15.4288V20.8034C12.225 20.8659 12.2122 20.9279 12.1871 20.9856C12.162 21.0434 12.1252 21.096 12.0787 21.1402C12.0322 21.1845 11.9771 21.2196 11.9163 21.2436C11.8556 21.2676 11.7904 21.28 11.7246 21.2801C11.6588 21.28 11.5937 21.2676 11.5329 21.2436C11.4722 21.2196 11.417 21.1845 11.3706 21.1402C11.3241 21.096 11.2873 21.0434 11.2622 20.9856C11.2371 20.9279 11.2242 20.8659 11.2243 20.8034V15.4288Z" fill="#F8F8F8"/>
</svg>
