<svg width="32" height="32" viewBox="0 0 32 32" fill="none" xmlns="http://www.w3.org/2000/svg">
<rect x="1" y="1" width="30" height="30" rx="15" fill="#DC101D"/>
<rect x="1" y="1" width="30" height="30" rx="15" stroke="white" stroke-width="2"/>
<path d="M23 13.6925C23 11.6532 21.2708 10 19.1383 10C17.8441 10 16.7013 10.6112 16 11.5452C15.2992 10.6112 14.1564 10 12.8622 10C10.7292 10 9 11.6532 9 13.6925C9 13.9817 9.03831 14.2612 9.10385 14.5311C9.64026 17.7166 13.3447 21.077 16 22C18.6548 21.077 22.3592 17.7166 22.8956 14.5311C22.9617 14.2612 23 13.9817 23 13.6925Z" fill="#F5F8FA"/>
</svg>
