<svg width="40" height="41" viewBox="0 0 40 41" fill="none" xmlns="http://www.w3.org/2000/svg">
<path d="M12 22.5C13.1046 22.5 14 21.6046 14 20.5C14 19.3954 13.1046 18.5 12 18.5C10.8954 18.5 10 19.3954 10 20.5C10 21.6046 10.8954 22.5 12 22.5Z" fill="black"/>
<path d="M20 22.5C21.1046 22.5 22 21.6046 22 20.5C22 19.3954 21.1046 18.5 20 18.5C18.8954 18.5 18 19.3954 18 20.5C18 21.6046 18.8954 22.5 20 22.5Z" fill="black"/>
<path d="M28 22.5C29.1046 22.5 30 21.6046 30 20.5C30 19.3954 29.1046 18.5 28 18.5C26.8954 18.5 26 19.3954 26 20.5C26 21.6046 26.8954 22.5 28 22.5Z" fill="black"/>
</svg>
