<svg width="44" height="44" viewBox="0 0 44 44" fill="none" xmlns="http://www.w3.org/2000/svg">
<path d="M1.375 22C1.375 26.0562 2.54375 29.8375 4.5375 33H39.3937C41.3875 29.8375 42.5563 26.0562 42.5563 22C42.5563 17.9437 41.3875 14.1625 39.3937 11H4.5375C2.54375 14.1625 1.375 17.9437 1.375 22Z" fill="#FFCE31"/>
<path d="M39.4625 11C35.8187 5.225 29.3562 1.375 22 1.375C14.6437 1.375 8.18123 5.225 4.53748 11H39.4625Z" fill="#ED4C5C"/>
<path d="M4.53748 33C8.18123 38.775 14.6437 42.625 22 42.625C29.3562 42.625 35.8187 38.775 39.4625 33H4.53748Z" fill="#ED4C5C"/>
<path d="M6.32495 19.7313H8.52495V20.9688H6.32495V19.7313Z" fill="#C8B100"/>
<path d="M6.32495 28.8064H8.5937V29.9751H6.32495V28.8064Z" fill="#C8B100"/>
<path d="M6.11877 26.8812C5.91252 27.0187 5.77502 27.1562 5.77502 27.225C5.77502 27.2937 5.84377 27.3625 5.98127 27.4312C6.11877 27.5 6.25627 27.6375 6.18752 27.775C6.32502 27.6375 6.39377 27.5 6.39377 27.3625C6.39377 27.1562 6.25627 26.95 6.11877 26.8812Z" fill="#ED4C5C"/>
<path d="M6.6687 20.9688H8.24995V28.8063H6.6687V20.9688Z" fill="white"/>
<path d="M9.89998 23.8563C9.55623 23.7188 8.93748 23.5812 8.24998 23.5812C8.04373 23.5812 7.76873 23.5813 7.49373 23.65C6.53123 23.7875 5.77498 24.2 5.84373 24.475L5.49998 23.7187C5.43123 23.375 6.25623 22.9625 7.28748 22.7562C7.63123 22.6875 7.97498 22.6875 8.24998 22.6875C8.93748 22.6875 9.55623 22.7562 9.89998 22.8937V23.8563Z" fill="#ED4C5C"/>
<path d="M6.66873 24.8875C6.25623 24.8875 5.91248 24.75 5.91248 24.5438C5.91248 24.4063 6.04998 24.2 6.32498 24.0625H6.73748L6.66873 24.8875Z" fill="#ED4C5C"/>
<path d="M8.25 24.2687C8.525 24.3374 8.73125 24.4062 8.86875 24.4749C8.9375 24.5437 8.6625 24.8187 8.25 25.0249V24.2687Z" fill="#ED4C5C"/>
<path d="M5.63753 26.4C5.56878 26.2625 6.05003 25.9875 6.66878 25.7812C6.94378 25.7125 7.15003 25.575 7.49378 25.4375C8.31878 25.0937 9.00628 24.6125 8.86878 24.475L9.00628 25.3C9.07503 25.4375 8.52503 25.85 7.70003 26.2625C7.42503 26.4 6.94378 26.6062 6.66878 26.675C6.18753 26.8125 5.77503 27.0875 5.77503 27.1562L5.63753 26.4Z" fill="#ED4C5C"/>
<path d="M21.1062 19.7313H23.3062V20.9688H21.1062V19.7313Z" fill="#C8B100"/>
<path d="M21.0375 28.8064H23.3062V29.9751H21.0375V28.8064Z" fill="#C8B100"/>
<path d="M23.5126 26.8812C23.7188 27.0187 23.8563 27.1562 23.8563 27.225C23.8563 27.2937 23.7876 27.3625 23.6501 27.4312C23.5126 27.5687 23.375 27.775 23.4438 27.8437C23.3063 27.7062 23.2375 27.5687 23.2375 27.4312C23.2375 27.1562 23.375 26.95 23.5126 26.8812Z" fill="#ED4C5C"/>
<path d="M21.3812 20.9688H22.9625V28.8063H21.3812V20.9688Z" fill="white"/>
<path d="M19.7313 23.8563C20.0751 23.7188 20.6938 23.5812 21.3813 23.5812C21.5876 23.5812 21.8626 23.5813 22.1376 23.65C23.1001 23.7875 23.8563 24.2 23.7876 24.475L24.1313 23.65C24.2001 23.3063 23.3751 22.8937 22.3438 22.6875H21.3813C20.6938 22.6875 20.0751 22.7562 19.7313 22.8937V23.8563Z" fill="#ED4C5C"/>
<path d="M22.9626 24.8875C23.3751 24.8875 23.7188 24.75 23.7188 24.5438C23.7188 24.4063 23.5813 24.2 23.3063 24.0625H22.8938L22.9626 24.8875Z" fill="#ED4C5C"/>
<path d="M21.3814 24.2687C21.1064 24.3374 20.9001 24.4062 20.7626 24.4749C20.6939 24.5437 20.9689 24.8187 21.3814 25.0249V24.2687Z" fill="#ED4C5C"/>
<path d="M23.9938 26.3999C24.0626 26.2624 23.5813 25.9874 22.9626 25.7811C22.6876 25.7124 22.4813 25.5749 22.1376 25.4374C21.3126 25.0936 20.6251 24.6124 20.7626 24.4749L20.6251 25.2999C20.5563 25.4374 21.1063 25.8499 21.9313 26.2624C22.2063 26.3999 22.6876 26.6061 22.9626 26.6749C23.4438 26.8124 23.8563 27.1561 23.7876 27.2249L23.9938 26.3999Z" fill="#ED4C5C"/>
<path d="M14.7813 15.3312C16.0875 15.3312 18.7688 15.6062 19.7313 16.5687C18.7 19.0437 17.05 18.0124 14.7813 18.0124C12.5813 18.0124 10.8625 19.0437 9.8313 16.5687C10.7938 15.6062 13.4063 15.3312 14.7813 15.3312Z" fill="#ED4C5C"/>
<path d="M18.1501 18.0812C17.3251 17.6 16.0876 17.5312 14.7813 17.5312C13.4751 17.5312 12.2376 17.6687 11.4126 18.0812L11.6876 19.25C12.4438 19.4563 13.5438 19.5938 14.7813 19.6625C16.0188 19.6625 17.0501 19.525 17.8751 19.25L18.1501 18.0812Z" fill="#C8B100"/>
<path d="M19.3188 15.125C19.0438 14.9187 18.4938 14.7125 18.0125 14.7125C17.8063 14.7125 17.6 14.7125 17.3938 14.7812C17.3938 14.7812 16.9813 14.2313 16.0188 14.2313C15.675 14.2313 15.4 14.3 15.125 14.4375V14.3687C15.0563 14.2312 14.9188 14.0938 14.7813 14.0938C14.6438 14.0938 14.4375 14.3 14.4375 14.4375V14.5063C14.1625 14.3688 13.8875 14.3 13.5438 14.3C12.5813 14.3 12.1688 14.9188 12.1688 14.85C11.9625 14.7813 11.7563 14.7812 11.55 14.7812C8.38755 14.7812 9.9688 16.9125 9.9688 16.9125L10.3125 16.5C9.5563 15.5375 10.2438 14.9875 11.6188 14.9875C11.825 14.9875 11.9625 14.9875 12.1 15.0562C11.6188 15.7437 12.5125 16.3625 12.5125 16.3625L12.7188 16.0187C12.2375 15.675 12.1688 14.5063 13.5438 14.5063C13.8875 14.5063 14.1625 14.575 14.4375 14.7812C14.4375 14.85 14.3688 15.8125 14.3 15.95L14.85 16.4312L15.4 15.95C15.3313 15.7438 15.2625 14.85 15.2625 14.7812C15.4688 14.6438 15.8125 14.5063 16.1563 14.5063C17.6 14.5063 17.6 15.675 16.9813 16.0187L17.1875 16.3625C17.1875 16.3625 17.9438 15.7437 17.6 15.0562C17.7375 15.0562 17.9438 14.9875 18.0813 14.9875C19.7313 14.9875 19.8 16.225 19.3875 16.5L19.6625 16.9125C19.525 16.9125 20.2813 15.95 19.3188 15.125Z" fill="#C8B100"/>
<path d="M14.3688 13.8188C14.3688 13.6125 14.575 13.4062 14.7813 13.4062C14.9875 13.4062 15.1938 13.6125 15.1938 13.8188C15.1938 14.025 14.9875 14.2313 14.7813 14.2313C14.575 14.2313 14.3688 14.025 14.3688 13.8188Z" fill="#005BBF"/>
<path d="M14.6438 12.65V12.8563H14.4375V13.0625H14.6438V13.75H14.3688V13.9563H15.1938L15.2625 13.8188L15.1938 13.75H14.9188V13.0625H15.125V12.8563H14.9188V12.65H14.6438Z" fill="#C8B100"/>
<path d="M14.7813 19.4562C13.6813 19.4562 12.7188 19.3187 11.9625 19.1124C12.7188 18.9062 13.6813 18.7687 14.7813 18.7687C15.8813 18.7687 16.8438 18.9062 17.6 19.1124C16.9125 19.3187 15.8813 19.4562 14.7813 19.4562Z" fill="#ED4C5C"/>
<path d="M14.85 31.35C13.5438 31.35 12.3063 31.0062 11.2063 30.525C10.3813 30.1125 9.90002 29.3562 9.90002 28.4625V25.1625H19.8V28.4625C19.8 29.3562 19.25 30.1812 18.4938 30.525C17.3938 31.075 16.1563 31.35 14.85 31.35Z" fill="white"/>
<path d="M14.7812 19.6625H19.7313V25.1625H14.7812V19.6625Z" fill="white"/>
<path d="M14.85 28.4625C14.85 29.7687 13.75 30.8 12.375 30.8C11 30.8 9.90002 29.7687 9.90002 28.4625V25.1625H14.85V28.4625Z" fill="#ED4C5C"/>
<path d="M10.9313 30.3875C11.0688 30.4563 11.275 30.5938 11.55 30.6625V25.025H11L10.9313 30.3875Z" fill="#C8B100"/>
<path d="M9.8313 28.3938C9.8313 29.0813 10.1063 29.6313 10.3813 29.9063V25.025H9.8313V28.3938Z" fill="#C8B100"/>
<path d="M12.0312 30.8H12.5812V25.025H12.0312V30.8Z" fill="#C7B500"/>
<path d="M13.1312 30.6625C13.3375 30.5938 13.6125 30.4563 13.75 30.3875V25.025H13.2L13.1312 30.6625Z" fill="#C8B100"/>
<path d="M9.8313 19.6625H14.7813V25.1625H9.8313V19.6625Z" fill="#ED4C5C"/>
<path d="M14.3 29.9062C14.575 29.7 14.7813 29.2188 14.85 28.6688V25.0938H14.3V29.9062Z" fill="#C8B100"/>
<path d="M19.8 25.1625V28.4625C19.8 29.7687 18.7 30.8 17.325 30.8C15.95 30.8 14.85 29.7687 14.85 28.4625V25.1625H19.8Z" fill="#ED4C5C"/>
<path d="M18.0126 20.625C18.2188 21.0375 18.2188 22.0687 17.6001 21.8625C17.7376 21.9312 17.8063 22.4125 18.0126 22.6875C18.3563 23.1 18.7688 22.7562 18.7001 22.275C18.5626 21.5187 18.6313 21.0375 18.7688 20.2812C18.7688 20.35 19.1126 20.35 19.2501 20.2125C19.1813 20.4187 19.1126 20.6937 19.2501 20.6937C19.1126 20.9 18.7688 21.2437 18.7001 21.45C18.6313 21.9312 19.3876 22.825 18.5626 23.0312C18.0126 23.1687 18.3563 23.5812 18.5626 23.7875C18.5626 23.7875 18.2876 24.6812 18.4251 24.6125C17.8751 24.8187 18.0126 24.3375 18.0126 24.3375C18.2876 23.5125 17.5313 23.4437 17.6001 23.3062C16.9126 23.2375 17.6688 23.925 17.0501 23.925C16.9126 23.925 16.6376 24.0625 16.6376 24.0625C15.8813 23.9937 16.2938 23.3062 16.5688 23.375C16.7751 23.4437 16.9813 23.7875 16.9813 23.3062C16.9813 23.3062 16.6376 22.7562 17.5313 22.7562C17.1876 22.7562 16.9813 22.4812 16.8438 22.1375C16.7063 22.2062 16.5001 22.55 15.7438 22.6187C15.7438 22.6187 15.5376 21.8625 15.7438 22C16.0188 22.1375 16.1563 22.1375 16.4313 21.8625C16.2938 21.6562 15.4688 21.3812 15.6063 20.9C15.6063 20.7625 16.0188 20.5562 16.0188 20.5562C15.9501 20.9 16.1563 21.2437 16.5688 21.2437C17.1188 21.3125 16.9126 21.1062 16.9813 20.9687C17.0501 20.8312 17.4626 21.0375 17.3251 20.6937C17.3251 20.625 16.8438 20.5562 16.9813 20.35C17.2563 20.0062 17.6688 20.2812 18.0126 20.625Z" fill="#ED4C5C"/>
<path d="M14.85 30.6625L14.7125 30.3187L14.85 29.9062L14.9875 30.3187L14.85 30.6625Z" fill="#ED4C5C"/>
<path d="M11.3438 20.8312V21.175H11.4813V21.45H11.1375V22.1375H11.3438V23.65H10.9313V24.4062H13.75V23.65H13.4063V22.1375H13.5438V21.45H13.2V21.175H13.4063V20.8312H12.7188V21.175H12.8563V21.45H12.5125V20.625H12.7188V20.2812H11.9625V20.625H12.1688V21.45H11.825V21.175H11.9625V20.8312H11.3438Z" fill="#C8B100"/>
<path d="M19.1125 29.2875V25.85H15.5375V29.2875L17.1875 30.0437H17.3937L19.1125 29.2875ZM17.1875 26.125V27.2937L16.0187 26.125H17.1875ZM15.7437 26.1937L17.1187 27.5687L15.7437 28.9437V26.1937ZM15.8812 29.2187L17.1875 27.9125V29.8375L15.8812 29.2187ZM17.3937 29.7687V27.8437L18.7 29.15L17.3937 29.7687ZM18.8375 28.9437L17.4625 27.5687L18.8375 26.1937V28.9437ZM17.3937 26.125H18.5625L17.3937 27.2937V26.125Z" fill="#C8B100"/>
<path d="M13.2 25.0938C13.2 24.0625 13.8875 23.3063 14.7812 23.3063C15.675 23.3063 16.3624 24.1313 16.3624 25.0938C16.3624 26.0563 15.675 26.8813 14.7812 26.8813C13.8875 26.8813 13.2 26.125 13.2 25.0938Z" fill="#ED4C5C"/>
<path d="M13.6813 25.0937C13.6813 24.3375 14.1625 23.7875 14.7813 23.7875C15.4 23.7875 15.8813 24.4062 15.8813 25.0937C15.8813 25.85 15.4 26.4 14.7813 26.4C14.1625 26.4 13.6813 25.85 13.6813 25.0937Z" fill="#005BBF"/>
<path d="M14.3 24.2001L14.025 24.9563L14.2313 25.0251L14.0938 25.3001H14.5063L14.3688 25.0251L14.575 24.9563L14.3 24.2001Z" fill="#C8B100"/>
<path d="M15.3313 24.2001L15.0563 24.9563L15.2625 25.0251L15.125 25.3001H15.5375L15.4688 25.0251L15.675 24.9563L15.3313 24.2001Z" fill="#C8B100"/>
<path d="M14.85 25.0938L14.5063 25.8501L14.7125 25.9188L14.6438 26.1938H14.9875L14.9188 25.9188L15.125 25.8501L14.85 25.0938Z" fill="#C8B100"/>
</svg>
