<svg width="44" height="44" viewBox="0 0 44 44" fill="none" xmlns="http://www.w3.org/2000/svg">
<path d="M33 4.5375C29.7688 2.54375 26.0563 1.375 22 1.375V4.5375H33Z" fill="#ED4C5C"/>
<path d="M22 7.69998H36.85C35.6812 6.53123 34.375 5.43123 33 4.53748H22V7.69998Z" fill="white"/>
<path d="M22 10.8626H39.3937C38.6375 9.69382 37.8125 8.66257 36.9188 7.70007H22V10.8626Z" fill="#ED4C5C"/>
<path d="M22 14.0249H41.0438C40.5625 12.9249 40.0125 11.8249 39.3937 10.8624H22V14.0249Z" fill="white"/>
<path d="M22 17.1875H42.075C41.8 16.0875 41.4563 15.0563 41.0438 14.025H22V17.1875Z" fill="#ED4C5C"/>
<path d="M22 20.4187H42.5563C42.4875 19.3187 42.2812 18.2875 42.075 17.2562H22V20.4187Z" fill="white"/>
<path d="M42.5563 20.4188H22V22.0001H1.375C1.375 22.5501 1.375 23.0313 1.44375 23.5813H42.5563C42.625 23.0313 42.625 22.5501 42.625 22.0001C42.625 21.4501 42.625 20.9001 42.5563 20.4188Z" fill="#ED4C5C"/>
<path d="M1.92498 26.7437H42.075C42.35 25.7124 42.4875 24.6812 42.5562 23.5812H1.44373C1.51248 24.6124 1.64998 25.7124 1.92498 26.7437Z" fill="white"/>
<path d="M2.9563 29.9063H41.0438C41.4563 28.875 41.8 27.8438 42.0751 26.7438H1.92505C2.20005 27.8438 2.5438 28.875 2.9563 29.9063Z" fill="#ED4C5C"/>
<path d="M4.6063 33.0687H39.3938C40.0126 32.0375 40.5625 31.0062 41.0438 29.9062H2.9563C3.43755 31.0062 3.98755 32.0375 4.6063 33.0687Z" fill="white"/>
<path d="M7.0812 36.2313H36.9187C37.8125 35.2688 38.7062 34.1688 39.3937 33.0688H4.6062C5.2937 34.2376 6.18745 35.2688 7.0812 36.2313Z" fill="#ED4C5C"/>
<path d="M10.9313 39.3937H33.0688C34.5125 38.4999 35.75 37.4 36.9188 36.2312H7.0813C8.25005 37.4687 9.5563 38.4999 10.9313 39.3937Z" fill="white"/>
<path d="M22 42.625C26.0563 42.625 29.8375 41.4563 33.0688 39.3938H10.9313C14.1625 41.4563 17.9438 42.625 22 42.625Z" fill="#ED4C5C"/>
<path d="M11 4.5375C9.55625 5.43125 8.25 6.53125 7.08125 7.7C6.11875 8.6625 5.29375 9.7625 4.60625 10.8625C3.9875 11.8938 3.36875 12.925 2.95625 14.025C2.54375 15.0562 2.2 16.0875 1.925 17.1875C1.65 18.2188 1.5125 19.25 1.44375 20.35C1.375 20.9 1.375 21.45 1.375 22H22V1.375C17.9438 1.375 14.2312 2.54375 11 4.5375Z" fill="#428BC1"/>
<path d="M17.1875 2.0625L17.5312 3.09375H18.5625L17.7375 3.78125L18.0125 4.8125L17.1875 4.19375L16.3625 4.8125L16.6375 3.78125L15.8125 3.09375H16.8438L17.1875 2.0625Z" fill="white"/>
<path d="M19.9375 6.1875L20.2812 7.21875H21.3125L20.4875 7.90625L20.7625 8.9375L19.9375 8.31875L19.1125 8.9375L19.3875 7.90625L18.5625 7.21875H19.5938L19.9375 6.1875Z" fill="white"/>
<path d="M14.4375 6.1875L14.7812 7.21875H15.8125L14.9875 7.90625L15.2625 8.9375L14.4375 8.31875L13.6125 8.9375L13.8875 7.90625L13.0625 7.21875H14.0938L14.4375 6.1875Z" fill="white"/>
<path d="M17.1875 10.3125L17.5312 11.3438H18.5625L17.7375 12.0312L18.0125 13.0625L17.1875 12.4438L16.3625 13.0625L16.6375 12.0312L15.8125 11.3438H16.8438L17.1875 10.3125Z" fill="white"/>
<path d="M11.6875 10.3125L12.0312 11.3438H13.0625L12.2375 12.0312L12.5125 13.0625L11.6875 12.4438L10.8625 13.0625L11.1375 12.0312L10.3125 11.3438H11.3438L11.6875 10.3125Z" fill="white"/>
<path d="M6.1875 10.3125L6.53125 11.3438H7.5625L6.7375 12.0312L7.0125 13.0625L6.1875 12.4438L5.3625 13.0625L5.6375 12.0312L4.8125 11.3438H5.84375L6.1875 10.3125Z" fill="white"/>
<path d="M19.9375 14.4375L20.2812 15.4688H21.3125L20.4875 16.1562L20.7625 17.1875L19.9375 16.5688L19.1125 17.1875L19.3875 16.1562L18.5625 15.4688H19.5938L19.9375 14.4375Z" fill="white"/>
<path d="M14.4375 14.4375L14.7812 15.4688H15.8125L14.9875 16.1562L15.2625 17.1875L14.4375 16.5688L13.6125 17.1875L13.8875 16.1562L13.0625 15.4688H14.0938L14.4375 14.4375Z" fill="white"/>
<path d="M8.9375 14.4375L9.28125 15.4688H10.3125L9.4875 16.1562L9.7625 17.1875L8.9375 16.5688L8.1125 17.1875L8.3875 16.1562L7.5625 15.4688H8.59375L8.9375 14.4375Z" fill="white"/>
<path d="M17.1875 18.5625L17.5312 19.5938H18.5625L17.7375 20.2812L18.0125 21.3125L17.1875 20.6938L16.3625 21.3125L16.6375 20.2812L15.8125 19.5938H16.8438L17.1875 18.5625Z" fill="white"/>
<path d="M11.6875 18.5625L12.0312 19.5938H13.0625L12.2375 20.2812L12.5125 21.3125L11.6875 20.6938L10.8625 21.3125L11.1375 20.2812L10.3125 19.5938H11.3438L11.6875 18.5625Z" fill="white"/>
<path d="M6.1875 18.5625L6.53125 19.5938H7.5625L6.7375 20.2812L7.0125 21.3125L6.1875 20.6938L5.3625 21.3125L5.6375 20.2812L4.8125 19.5938H5.84375L6.1875 18.5625Z" fill="white"/>
<path d="M8.11248 8.9375L8.93748 8.31875L9.76248 8.9375L9.41873 7.90625L10.2437 7.21875H9.21247L8.93748 6.1875L8.59373 7.21875H7.63123L8.45623 7.8375L8.11248 8.9375Z" fill="white"/>
<path d="M2.61252 17.1875L3.43752 16.5688L4.26252 17.1875L3.91877 16.1562L4.74377 15.4688H3.78127L3.43752 14.4375L3.09377 15.4688H2.40627C2.40627 15.5375 2.33752 15.6062 2.33752 15.675L2.88752 16.0875L2.61252 17.1875Z" fill="white"/>
</svg>
