<svg width="24" height="26" viewBox="0 0 24 26" fill="none" xmlns="http://www.w3.org/2000/svg">
<path d="M12 25.9231C12.8151 25.9241 13.6103 25.6757 14.2751 25.2125C14.9398 24.7493 15.4411 24.0942 15.7091 23.3384H8.2908C8.55887 24.0942 9.06011 24.7493 9.72486 25.2125C10.3896 25.6757 11.1848 25.9241 12 25.9231ZM21.2136 16.3419V10.4154C21.2136 6.25801 18.3377 2.75586 14.4416 1.70263C14.0559 0.748904 13.1135 0.0769043 12 0.0769043C10.8864 0.0769043 9.944 0.748904 9.55834 1.70263C5.66227 2.75715 2.78629 6.25801 2.78629 10.4154V16.3419L0.539468 18.5479C0.417002 18.6677 0.319879 18.8101 0.253692 18.9669C0.187504 19.1237 0.153559 19.2918 0.15381 19.4615V20.7538C0.15381 21.0966 0.292485 21.4253 0.539327 21.6676C0.78617 21.91 1.12096 22.0461 1.47005 22.0461H22.5299C22.879 22.0461 23.2138 21.91 23.4606 21.6676C23.7074 21.4253 23.8461 21.0966 23.8461 20.7538V19.4615C23.8464 19.2918 23.8124 19.1237 23.7462 18.9669C23.68 18.8101 23.5829 18.6677 23.4605 18.5479L21.2136 16.3419Z" fill="white"/>
</svg>
