<svg width="24" height="24" viewBox="0 0 24 24" fill="none" xmlns="http://www.w3.org/2000/svg">
<path d="M1.29952 23.9907C1.40244 24.0031 1.50648 24.0031 1.6094 23.9907L6.774 22.6999C7.00311 22.6455 7.21296 22.5294 7.38084 22.3643L23.2491 6.44934C23.73 5.96566 24 5.31138 24 4.62938C24 3.94738 23.73 3.2931 23.2491 2.80942L21.2091 0.757121C20.9692 0.517102 20.6844 0.326693 20.371 0.19678C20.0575 0.0668679 19.7214 0 19.3821 0C19.0427 0 18.7067 0.0668679 18.3932 0.19678C18.0797 0.326693 17.7949 0.517102 17.5551 0.757121L1.68687 16.6205C1.52003 16.7891 1.3999 16.9981 1.33826 17.2271L0.0471051 22.3901C0.000698428 22.5571 -0.0115844 22.7318 0.0109894 22.9037C0.0335631 23.0755 0.0905311 23.2411 0.178495 23.3904C0.266458 23.5398 0.383615 23.6699 0.522978 23.7731C0.66234 23.8762 0.821051 23.9502 0.989645 23.9907C1.09256 24.0031 1.1966 24.0031 1.29952 23.9907ZM19.3756 2.57708L21.4286 4.62938L19.3756 6.68168L17.3356 4.62938L19.3756 2.57708ZM3.76562 18.1952L15.5022 6.44934L17.5551 8.50164L5.80564 20.2475L3.08131 20.9187L3.76562 18.1952Z" fill="white"/>
</svg>
