<svg width="24" height="26" viewBox="0 0 24 26" fill="none" xmlns="http://www.w3.org/2000/svg">
<path d="M12 18C14.8093 18 17.094 15.7575 17.094 13C17.094 10.2425 14.8093 8 12 8C9.19065 8 6.90599 10.2425 6.90599 13C6.90599 15.7575 9.19065 18 12 18ZM12 10.5C13.3805 10.5 14.547 11.645 14.547 13C14.547 14.355 13.3805 15.5 12 15.5C10.6195 15.5 9.45299 14.355 9.45299 13C9.45299 11.645 10.6195 10.5 12 10.5Z" fill="white"/>
<path d="M0.341082 18.17L1.61458 20.3325C2.29081 21.4787 3.91835 21.9088 5.09125 21.245L5.76493 20.8625C6.5017 21.4314 7.31403 21.899 8.17949 22.2525V23C8.17949 24.3787 9.32182 25.5 10.7265 25.5H13.2735C14.6782 25.5 15.8205 24.3787 15.8205 23V22.2525C16.6857 21.899 17.4979 21.4318 18.2351 20.8638L18.9088 21.2463C20.0842 21.9088 21.7079 21.4812 22.3867 20.3325L23.6589 18.1712C23.9964 17.5971 24.0879 16.915 23.9134 16.2747C23.7388 15.6344 23.3125 15.0882 22.728 14.7562L22.0849 14.3912C22.2216 13.4694 22.2216 12.5331 22.0849 11.6112L22.728 11.2463C23.3122 10.914 23.7384 10.3679 23.9129 9.7277C24.0874 9.08748 23.9961 8.40545 23.6589 7.83125L22.3867 5.67C21.7105 4.52 20.0842 4.08875 18.9088 4.755L18.2351 5.1375C17.4983 4.56863 16.686 4.101 15.8205 3.7475V3C15.8205 1.62125 14.6782 0.5 13.2735 0.5H10.7265C9.32182 0.5 8.17949 1.62125 8.17949 3V3.7475C7.31433 4.10105 6.50206 4.56823 5.76493 5.13625L5.09125 4.75375C3.91453 4.09 2.28954 4.52 1.61331 5.66875L0.341082 7.83C0.00358063 8.40412 -0.0879471 9.08626 0.0866035 9.72658C0.261154 10.3669 0.687508 10.913 1.27201 11.245L1.91513 11.61C1.77789 12.5314 1.77789 13.4674 1.91513 14.3888L1.27201 14.7537C0.687679 15.0862 0.261524 15.6325 0.0870085 16.273C-0.087507 16.9134 0.00386369 17.5956 0.341082 18.17ZM4.57675 14.7225C4.43295 14.1592 4.35982 13.5807 4.35898 13C4.35898 12.4225 4.43285 11.8425 4.57548 11.2775C4.64264 11.0142 4.62055 10.7365 4.51255 10.4866C4.40455 10.2367 4.21651 10.0281 3.97693 9.8925L2.54679 9.08L3.81774 6.91875L5.27591 7.74625C5.5137 7.88131 5.78971 7.93702 6.06251 7.90501C6.3353 7.87301 6.59016 7.75502 6.78883 7.56875C7.65038 6.76444 8.68931 6.16602 9.82486 5.82C10.0857 5.74183 10.3141 5.58354 10.4764 5.36841C10.6387 5.15329 10.7264 4.8927 10.7265 4.625V3H13.2735V4.625C13.2736 4.8927 13.3613 5.15329 13.5236 5.36841C13.6859 5.58354 13.9143 5.74183 14.1751 5.82C15.3105 6.16651 16.3493 6.76488 17.2112 7.56875C17.41 7.75466 17.6649 7.8724 17.9376 7.9044C18.2103 7.93639 18.4862 7.88091 18.7241 7.74625L20.181 6.92L21.4545 9.08125L20.0231 9.8925C19.7836 10.0283 19.5957 10.2369 19.4877 10.4867C19.3798 10.7366 19.3576 11.0142 19.4245 11.2775C19.5672 11.8425 19.641 12.4225 19.641 13C19.641 13.5763 19.5672 14.1562 19.4232 14.7225C19.3564 14.986 19.3788 15.2636 19.487 15.5135C19.5952 15.7634 19.7834 15.9719 20.0231 16.1075L21.4532 16.9188L20.1823 19.08L18.7241 18.2537C18.4864 18.1185 18.2103 18.0627 17.9375 18.0947C17.6646 18.1267 17.4097 18.2448 17.2112 18.4312C16.3496 19.2356 15.3107 19.834 14.1751 20.18C13.9143 20.2582 13.6859 20.4165 13.5236 20.6316C13.3613 20.8467 13.2736 21.1073 13.2735 21.375L13.276 23H10.7265V21.375C10.7264 21.1073 10.6387 20.8467 10.4764 20.6316C10.3141 20.4165 10.0857 20.2582 9.82486 20.18C8.68954 19.8335 7.65071 19.2351 6.78883 18.4312C6.59055 18.2443 6.33553 18.1259 6.06248 18.0941C5.78943 18.0623 5.51327 18.1188 5.27591 18.255L3.81902 19.0825L2.54552 16.9212L3.97693 16.1075C4.2166 15.9719 4.40477 15.7634 4.51299 15.5135C4.6212 15.2636 4.64359 14.986 4.57675 14.7225Z" fill="white"/>
</svg>
