<svg width="360" height="141" viewBox="0 0 360 141" fill="none" xmlns="http://www.w3.org/2000/svg">
<path d="M49.7798 59.0559C41.0968 67.4527 -1.29671 42.7288 -6 38.0639L-3.40355 190.006L368.337 205C370.689 143.857 372.353 19.2711 360.197 10.0746C345.001 -1.42099 337.404 20.0708 334.69 26.5683C331.977 33.0658 322.751 38.0639 315.154 36.0647C307.556 34.0654 291.275 59.0559 279.879 65.0536C268.483 71.0512 252.745 38.0639 245.69 32.566C238.635 27.0682 232.665 39.0635 229.952 38.0639C227.238 37.0643 215.842 5.57633 207.702 6.07614C199.561 6.57595 192.506 36.0647 186.537 32.566C180.567 29.0674 174.055 55.5572 153.976 73.0505C133.896 90.5438 125.756 6.57597 114.902 2.5775C104.048 -1.42097 100.792 16.0723 89.9386 32.566C79.0849 49.0597 74.2007 36.5645 70.9445 32.566C67.6884 28.5676 60.6335 48.5599 49.7798 59.0559Z" fill="url(#paint0_linear_70_1066)" stroke="#4318FF" stroke-width="4" stroke-linecap="round" stroke-linejoin="round"/>
<defs>
<linearGradient id="paint0_linear_70_1066" x1="183.823" y1="-17.4925" x2="183.823" y2="164.516" gradientUnits="userSpaceOnUse">
<stop stop-color="#FEC2FF"/>
<stop offset="0.72165" stop-color="#E9E3FF" stop-opacity="0"/>
</linearGradient>
</defs>
</svg>
