<svg width="36" height="36" viewBox="0 0 36 36" fill="none" xmlns="http://www.w3.org/2000/svg">
<path d="M22 30.25C18.7511 30.25 15.6353 28.9594 13.3379 26.6621C11.0406 24.3647 9.75 21.2489 9.75 18C9.75 14.7511 11.0406 11.6353 13.3379 9.33794C15.6353 7.04062 18.7511 5.75 22 5.75C25.2489 5.75 28.3647 7.04062 30.6621 9.33794C32.9594 11.6353 34.25 14.7511 34.25 18C34.25 21.2489 32.9594 24.3647 30.6621 26.6621C28.3647 28.9594 25.2489 30.25 22 30.25ZM22 32C25.713 32 29.274 30.525 31.8995 27.8995C34.525 25.274 36 21.713 36 18C36 14.287 34.525 10.726 31.8995 8.10051C29.274 5.475 25.713 4 22 4C18.287 4 14.726 5.475 12.1005 8.10051C9.475 10.726 8 14.287 8 18C8 21.713 9.475 25.274 12.1005 27.8995C14.726 30.525 18.287 32 22 32Z" fill="black"/>
<path d="M18.9742 12.8462C19.1174 12.7726 19.278 12.7398 19.4386 12.7515C19.5992 12.7632 19.7534 12.819 19.8842 12.9128L26.0093 17.2878C26.1227 17.3687 26.2151 17.4756 26.2789 17.5994C26.3427 17.7233 26.376 17.8607 26.376 18C26.376 18.1393 26.3427 18.2767 26.2789 18.4006C26.2151 18.5244 26.1227 18.6313 26.0093 18.7122L19.8842 23.0872C19.7534 23.1809 19.5993 23.2366 19.4388 23.2484C19.2783 23.2601 19.1177 23.2274 18.9747 23.1538C18.8316 23.0801 18.7116 22.9685 18.6278 22.8311C18.5441 22.6937 18.4999 22.5359 18.5 22.375V13.625C18.4998 13.4641 18.544 13.3064 18.6277 13.169C18.7113 13.0316 18.8313 12.9199 18.9742 12.8462Z" fill="black"/>
</svg>
