<svg width="360" height="195" viewBox="0 0 360 195" fill="none" xmlns="http://www.w3.org/2000/svg">
<path d="M17.8385 84C10.1542 82.8 2.74438 88.5 0 91.5V194.5H359.752L361 -1.5C360.347 13.5 323.985 50.5 323.985 41C322.842 38 315.495 39.3 308.359 44.5C301.224 49.7 287.474 53.8334 278.555 56C276.039 50.8334 269.361 42 262.775 48C254.541 55.5 239.447 61.5 237.389 58.5C235.331 55.5 228.47 45.5 219.551 51.5C210.631 57.5 198.968 64 190.735 64C182.501 64 177.699 57 173.582 53C169.466 49 166.035 57 162.605 60C159.174 63 157.802 64 155.058 61.5C152.313 59 143.37 62 140.625 64C137.881 66 139.242 68.3508 127.071 73.5C109.343 81 113.479 65.5 107.304 61.5C101.13 57.5 92.6229 67 83.7037 72C74.7844 77 73.4122 76.5 67.2374 77.5C61.0625 78.5 57.632 73 52.8294 72C48.0267 71 43.9101 77 38.4213 84C32.9326 91 27.4438 85.5 17.8385 84Z" fill="url(#paint0_linear_74_764)"/>
<defs>
<linearGradient id="paint0_linear_74_764" x1="175.64" y1="22" x2="175.64" y2="128.5" gradientUnits="userSpaceOnUse">
<stop stop-color="#E9E3FF"/>
<stop offset="1" stop-color="#E9E3FF" stop-opacity="0"/>
</linearGradient>
</defs>
</svg>
