<svg width="360" height="93" viewBox="0 0 360 93" fill="none" xmlns="http://www.w3.org/2000/svg">
<path d="M1 91C3.74245 87.8786 9.09022 82.4682 16.7691 83.7168C26.3676 85.2775 31.8525 91 37.3374 83.7168C42.8223 76.4335 46.936 70.1907 51.7353 71.2312C56.5345 72.2717 59.9626 77.9942 66.1331 76.9538C72.3036 75.9133 55.1116 87.5477 82.5878 71.2312C110.064 54.9147 107.073 57.4017 108.641 62.9075C110.574 69.6937 116.183 79.5549 127.838 73.3121C139.494 67.0694 139.768 60.3064 147.721 60.3064C155.674 60.3064 151.149 57.7052 153.891 60.3064C156.634 62.9075 158.005 61.867 161.433 58.7457C164.861 55.6243 169.777 46.2601 173.891 50.422C178.005 54.5838 181.316 62.9075 189.543 62.9075C197.771 62.9075 211.044 54.5838 219.957 48.341C228.87 42.0983 234.108 54.0636 236.165 57.185C238.222 60.3064 253.305 54.0636 261.532 46.2601C268.114 40.0173 274.788 49.2081 277.301 54.5838C286.214 52.3295 305.823 46.4682 312.953 41.0578C320.084 35.6474 324.152 40.5376 325.294 43.6589C331.693 40.0173 357.572 14.526 361 1" stroke="url(#paint0_linear_74_765)" stroke-width="4" stroke-linecap="round" stroke-linejoin="round"/>
<defs>
<linearGradient id="paint0_linear_74_765" x1="361" y1="-1.08095" x2="1.20984" y2="111.648" gradientUnits="userSpaceOnUse">
<stop stop-color="white"/>
<stop offset="0.0782926" stop-color="#9316F4"/>
<stop offset="0.239893" stop-color="#DE12FF"/>
<stop offset="0.50408" stop-color="#FF0AAC"/>
<stop offset="0.729526" stop-color="#FF046E"/>
<stop offset="0.882474" stop-color="#FF0000"/>
<stop offset="1" stop-color="white"/>
</linearGradient>
</defs>
</svg>
