<svg width="114" height="44" viewBox="0 0 114 44" fill="none" xmlns="http://www.w3.org/2000/svg">
<path d="M1 43C1.85321 41.5434 3.51696 39.0185 5.90593 39.6012C8.89215 40.3295 10.5986 43 12.305 39.6012C14.0114 36.2023 15.2912 33.289 16.7843 33.7746C18.2774 34.2601 19.3439 36.9306 21.2636 36.4451C23.1833 35.9595 17.8347 41.3889 26.3829 33.7746C34.931 26.1602 34.0003 27.3208 34.4883 29.8902C35.0898 33.0571 36.8346 37.659 40.4608 34.7457C44.0869 31.8324 44.1722 28.6763 46.6465 28.6763C49.1208 28.6763 47.713 27.4624 48.5662 28.6763C49.4194 29.8902 49.846 29.4046 50.9125 27.948C51.979 26.4913 53.5085 22.1214 54.7883 24.0636C56.0681 26.0058 57.0983 29.8902 59.6579 29.8902C62.2175 29.8902 66.3471 26.0058 69.1201 23.0925C71.893 20.1792 73.5225 25.763 74.1624 27.2196C74.8023 28.6763 79.4949 25.763 82.0545 22.1214C84.1022 19.2081 86.1783 23.4971 86.9604 26.0058C89.7334 24.9538 95.8338 22.2185 98.0521 19.6936C100.27 17.1688 101.536 19.4509 101.892 20.9075C103.882 19.2081 111.933 7.31214 113 1" stroke="url(#paint0_linear_78_793)" stroke-width="2" stroke-linecap="round" stroke-linejoin="round"/>
<defs>
<linearGradient id="paint0_linear_78_793" x1="116.5" y1="-1.50001" x2="-4.93859" y2="24.0088" gradientUnits="userSpaceOnUse">
<stop/>
<stop offset="0.141381" stop-color="#1B16F4"/>
<stop offset="0.3139" stop-color="#12B8FF"/>
<stop offset="0.472283" stop-color="#68C50B"/>
<stop offset="0.593033" stop-color="#DFCA0F"/>
<stop offset="0.715163" stop-color="#FFB904"/>
<stop offset="0.882474" stop-color="#BA150B"/>
<stop offset="1"/>
</linearGradient>
</defs>
</svg>
