<svg width="27" height="28" viewBox="0 0 27 28" fill="none" xmlns="http://www.w3.org/2000/svg">
<g clip-path="url(#clip0_2_504)">
<path d="M22.7778 1.35632L23.0292 1.10488C23.2185 0.915742 23.4431 0.765729 23.6904 0.663409C23.9376 0.56109 24.2026 0.508467 24.4701 0.508545C24.7377 0.508623 25.0026 0.561401 25.2498 0.663866C25.4969 0.76633 25.7215 0.916474 25.9107 1.10573C26.0998 1.29498 26.2498 1.51963 26.3521 1.76686C26.4544 2.01408 26.5071 2.27904 26.507 2.5466C26.5069 2.81417 26.4541 3.07909 26.3517 3.32626C26.2492 3.57343 26.0991 3.79799 25.9098 3.98713L25.6584 4.23688C26.0885 4.71927 26.3178 5.34792 26.2993 5.99395C26.2808 6.63999 26.0158 7.25447 25.5588 7.71144L8.19106 25.0809C8.08249 25.1889 7.94657 25.2653 7.79787 25.3019L1.04787 26.9894C0.906615 27.0246 0.75866 27.0226 0.61839 26.9837C0.47812 26.9448 0.350306 26.8703 0.247373 26.7673C0.144439 26.6644 0.0698875 26.5366 0.0309646 26.3963C-0.00795825 26.256 -0.00992822 26.1081 0.0252462 25.9668L1.71275 19.2168C1.74967 19.0687 1.82607 18.9334 1.93381 18.8253L18.2047 2.55444C18.042 2.43991 17.844 2.38658 17.6457 2.40387C17.4475 2.42117 17.2618 2.50797 17.1213 2.64894L11.5661 8.20588C11.4876 8.28433 11.3945 8.34656 11.292 8.38902C11.1895 8.43147 11.0796 8.45332 10.9687 8.45332C10.8577 8.45332 10.7479 8.43147 10.6454 8.38902C10.5429 8.34656 10.4498 8.28433 10.3713 8.20588C10.2929 8.12743 10.2306 8.0343 10.1882 7.9318C10.1457 7.82931 10.1239 7.71945 10.1239 7.60851C10.1239 7.49756 10.1457 7.38771 10.1882 7.28521C10.2306 7.18271 10.2929 7.08958 10.3713 7.01113L15.9299 1.45588C16.3872 0.998595 17.0022 0.733667 17.6486 0.715466C18.295 0.697266 18.9239 0.927173 19.4062 1.35801C19.8698 0.943622 20.4698 0.714415 21.0917 0.714103C21.7135 0.713792 22.3137 0.942399 22.7778 1.35632Z" fill="black"/>
</g>
<defs>
<clipPath id="clip0_2_504">
<rect width="27" height="27" fill="white" transform="translate(0 0.0147705)"/>
</clipPath>
</defs>
</svg>
