<svg width="40" height="41" viewBox="0 0 40 41" fill="none" xmlns="http://www.w3.org/2000/svg">
<rect y="0.514771" width="40" height="40" rx="20" fill="#F2F2F2"/>
<path d="M11.7124 29.8044C11.7921 29.8141 11.8727 29.8141 11.9524 29.8044L15.9524 28.8044C16.1299 28.7623 16.2924 28.6723 16.4224 28.5444L28.7124 16.2144C29.0849 15.8397 29.294 15.3328 29.294 14.8044C29.294 14.2761 29.0849 13.7692 28.7124 13.3944L27.1324 11.8044C26.9467 11.6185 26.7261 11.471 26.4833 11.3703C26.2405 11.2697 25.9802 11.2179 25.7174 11.2179C25.4546 11.2179 25.1943 11.2697 24.9515 11.3703C24.7087 11.471 24.4882 11.6185 24.3024 11.8044L12.0124 24.0944C11.8832 24.2251 11.7902 24.387 11.7424 24.5644L10.7424 28.5644C10.7065 28.6938 10.697 28.8291 10.7144 28.9623C10.7319 29.0954 10.776 29.2237 10.8442 29.3394C10.9123 29.4551 11.003 29.556 11.111 29.6358C11.2189 29.7157 11.3418 29.7731 11.4724 29.8044C11.5521 29.8141 11.6327 29.8141 11.7124 29.8044ZM25.7124 13.2144L27.3024 14.8044L25.7124 16.3944L24.1324 14.8044L25.7124 13.2144ZM13.6224 25.3144L22.7124 16.2144L24.3024 17.8044L15.2024 26.9044L13.0924 27.4244L13.6224 25.3144Z" fill="black"/>
</svg>
