<svg width="50" height="51" viewBox="0 0 50 51" fill="none" xmlns="http://www.w3.org/2000/svg">
<rect y="0.529541" width="50" height="50" rx="25" fill="black"/>
<path d="M19.995 25.5295C19.995 28.2905 22.241 30.5365 25.002 30.5365C27.763 30.5365 30.009 28.2905 30.009 25.5295C30.009 22.7685 27.763 20.5225 25.002 20.5225C22.241 20.5225 19.995 22.7685 19.995 25.5295ZM24 32.5295H26V35.5295H24V32.5295ZM24 15.5295H26V18.5295H24V15.5295ZM15 24.5295H18V26.5295H15V24.5295ZM32 24.5295H35V26.5295H32V24.5295ZM18.637 33.3075L17.223 31.8935L19.344 29.7725L20.758 31.1865L18.637 33.3075ZM29.242 19.8735L31.364 17.7515L32.778 19.1655L30.656 21.2875L29.242 19.8735ZM19.344 21.2885L17.223 19.1665L18.638 17.7525L20.758 19.8745L19.344 21.2885ZM32.778 31.8935L31.364 33.3075L29.242 31.1855L30.656 29.7715L32.778 31.8935Z" fill="#F8D000"/>
</svg>
