<svg width="19" height="19" viewBox="0 0 19 19" fill="none" xmlns="http://www.w3.org/2000/svg">
<g clip-path="url(#clip0_2_551)">
<path d="M16.0288 0.944055L16.2058 0.767118C16.339 0.634019 16.497 0.528454 16.671 0.456452C16.845 0.384449 17.0314 0.347418 17.2197 0.347473C17.408 0.347528 17.5944 0.384668 17.7684 0.456773C17.9423 0.528878 18.1003 0.634535 18.2334 0.767711C18.3665 0.900888 18.4721 1.05898 18.5441 1.23295C18.6161 1.40692 18.6531 1.59338 18.6531 1.78166C18.653 1.96995 18.6159 2.15638 18.5438 2.33031C18.4717 2.50424 18.366 2.66227 18.2328 2.79537L18.0559 2.97112C18.3586 3.31058 18.5199 3.75296 18.5069 4.20758C18.4939 4.66219 18.3075 5.09461 17.9858 5.41618L5.76409 17.6391C5.68769 17.7151 5.59204 17.7689 5.4874 17.7947L0.737402 18.9822C0.637999 19.0069 0.533883 19.0055 0.435175 18.9782C0.336466 18.9508 0.246523 18.8983 0.174088 18.8259C0.101654 18.7534 0.0491914 18.6635 0.0218012 18.5648C-0.00558894 18.4661 -0.00697523 18.362 0.0177771 18.2626L1.20528 13.5126C1.23126 13.4083 1.28502 13.3131 1.36084 13.2371L12.8107 1.78718C12.6962 1.70658 12.5569 1.66906 12.4174 1.68122C12.2779 1.69339 12.1472 1.75447 12.0483 1.85368L8.13909 5.76412C8.08389 5.81932 8.01835 5.86311 7.94622 5.89299C7.87409 5.92287 7.79679 5.93824 7.71871 5.93824C7.64064 5.93824 7.56334 5.92287 7.49121 5.89299C7.41908 5.86311 7.35354 5.81932 7.29834 5.76412C7.24313 5.70891 7.19934 5.64338 7.16947 5.57125C7.13959 5.49912 7.12421 5.42181 7.12421 5.34374C7.12421 5.26567 7.13959 5.18837 7.16947 5.11624C7.19934 5.04411 7.24313 4.97857 7.29834 4.92337L11.21 1.01412C11.5317 0.692323 11.9645 0.505892 12.4194 0.493085C12.8743 0.480277 13.3168 0.642064 13.6562 0.945243C13.9825 0.653639 14.4047 0.492344 14.8423 0.492125C15.2799 0.491906 15.7023 0.652778 16.0288 0.944055ZM15.2641 1.85368C15.1527 1.74237 15.0017 1.67984 14.8443 1.67984C14.6869 1.67984 14.5359 1.74237 14.4245 1.85368L2.31559 13.9602L1.40834 17.5904L5.03853 16.6832L17.1475 4.57662C17.2028 4.52146 17.2466 4.45594 17.2766 4.38381C17.3065 4.31167 17.3219 4.23434 17.3219 4.15624C17.3219 4.07814 17.3065 4.00081 17.2766 3.92868C17.2466 3.85654 17.2028 3.79102 17.1475 3.73587L15.2653 1.85368H15.2641Z" fill="black"/>
</g>
<defs>
<clipPath id="clip0_2_551">
<rect width="19" height="19" fill="white"/>
</clipPath>
</defs>
</svg>
