<svg width="40" height="40" viewBox="0 0 40 40" fill="none" xmlns="http://www.w3.org/2000/svg">
<rect width="40" height="40" rx="20" fill="#F2F2F2"/>
<path d="M19.9995 10.0095C14.4815 10.0095 10.0095 14.4825 10.0095 19.9995C10.0095 24.2315 12.6425 27.8495 16.3595 29.3055C16.2715 28.5155 16.1935 27.2995 16.3935 26.4375C16.5755 25.6575 17.5655 21.4715 17.5655 21.4715C17.5655 21.4715 17.2665 20.8725 17.2665 19.9875C17.2665 18.5995 18.0715 17.5625 19.0745 17.5625C19.9275 17.5625 20.3385 18.2025 20.3385 18.9695C20.3385 19.8275 19.7925 21.1085 19.5115 22.2965C19.2765 23.2905 20.0105 24.1015 20.9905 24.1015C22.7655 24.1015 24.1315 22.2295 24.1315 19.5265C24.1315 17.1345 22.4125 15.4625 19.9585 15.4625C17.1155 15.4625 15.4465 17.5945 15.4465 19.7975C15.4465 20.6555 15.7775 21.5765 16.1905 22.0775C16.2256 22.1152 16.2504 22.1614 16.2625 22.2115C16.2746 22.2615 16.2736 22.3139 16.2595 22.3635C16.1835 22.6785 16.0145 23.3575 15.9825 23.4965C15.9385 23.6795 15.8375 23.7185 15.6475 23.6305C14.4005 23.0495 13.6205 21.2255 13.6205 19.7595C13.6205 16.6085 15.9095 13.7145 20.2215 13.7145C23.6875 13.7145 26.3805 16.1835 26.3805 19.4845C26.3805 22.9285 24.2095 25.6975 21.1965 25.6975C20.1835 25.6975 19.2325 25.1725 18.9065 24.5515L18.2835 26.9255C18.0585 27.7935 17.4495 28.8815 17.0425 29.5455C18.0006 29.8413 18.9978 29.9913 20.0005 29.9905C25.5175 29.9905 29.9905 25.5175 29.9905 20.0005C29.9905 14.4835 25.5165 10.0095 19.9995 10.0095Z" fill="black"/>
</svg>
