<svg width="40" height="40" viewBox="0 0 40 40" fill="none" xmlns="http://www.w3.org/2000/svg">
<rect width="40" height="40" rx="20" fill="#F2F2F2"/>
<path d="M27.8069 15.997C27.82 16.172 27.82 16.346 27.82 16.52C27.82 21.845 23.767 27.981 16.36 27.981C14.078 27.981 11.958 27.32 10.174 26.172C10.498 26.209 10.81 26.222 11.147 26.222C12.9599 26.2264 14.7216 25.6202 16.148 24.501C15.3074 24.4858 14.4925 24.2085 13.8172 23.7077C13.1419 23.207 12.6397 22.5079 12.3809 21.708C12.63 21.745 12.88 21.77 13.142 21.77C13.503 21.77 13.866 21.72 14.203 21.633C13.2907 21.4488 12.4704 20.9544 11.8816 20.2337C11.2927 19.513 10.9716 18.6107 10.973 17.68V17.63C11.51 17.929 12.133 18.116 12.793 18.141C12.24 17.7736 11.7867 17.275 11.4733 16.6898C11.1599 16.1046 10.9963 15.4509 10.997 14.787C10.997 14.039 11.196 13.353 11.545 12.755C12.5571 14 13.8195 15.0186 15.2503 15.7447C16.6811 16.4708 18.2485 16.8882 19.851 16.97C19.7889 16.67 19.7509 16.359 19.7509 16.047C19.7507 15.518 19.8547 14.9941 20.057 14.5053C20.2594 14.0164 20.5561 13.5723 20.9301 13.1982C21.3042 12.8241 21.7484 12.5274 22.2372 12.3251C22.726 12.1228 23.2499 12.0188 23.7789 12.019C24.9389 12.019 25.986 12.505 26.722 13.291C27.6237 13.1166 28.4885 12.7874 29.278 12.318C28.9774 13.2488 28.3477 14.0381 27.507 14.538C28.3067 14.4468 29.0884 14.2365 29.826 13.914C29.2751 14.7171 28.5925 15.4214 27.8069 15.997Z" fill="black"/>
</svg>
