<svg width="40" height="40" viewBox="0 0 40 40" fill="none" xmlns="http://www.w3.org/2000/svg">
<path d="M32.3137 15.5802C32.3124 15.579 32.3137 15.579 32.3137 15.5802L32.3099 15.5752L32.3087 15.574V15.5727C32.2312 15.4587 32.1313 15.3617 32.015 15.2878L20.5618 7.68897C20.3942 7.58191 20.1995 7.52502 20.0007 7.52502C19.8018 7.52502 19.6071 7.58191 19.4395 7.68897L7.98388 15.2915C7.83923 15.3814 7.72044 15.5073 7.63915 15.657C7.55786 15.8066 7.51687 15.9749 7.52021 16.1451V23.8439C7.51706 24.0428 7.57414 24.2379 7.68393 24.4038V24.4051L7.68643 24.4076L7.69893 24.4263V24.4288H7.70018L7.70143 24.43L7.70268 24.4313C7.78142 24.5413 7.87765 24.6313 7.98513 24.7L19.4395 32.3013C19.6042 32.4148 19.7995 32.4754 19.9994 32.475C20.2003 32.4761 20.3966 32.4155 20.5618 32.3013L32.0162 24.7C32.1605 24.6092 32.279 24.4827 32.3603 24.3327C32.4415 24.1828 32.4827 24.0144 32.4799 23.8439V16.1451C32.483 15.9443 32.425 15.7473 32.3137 15.5802ZM20.9943 10.366L29.6841 16.1314L25.706 18.771L20.993 15.6015V10.366H20.9943ZM19.0046 10.366V15.6015L14.2916 18.771L10.316 16.1326L19.0046 10.366ZM9.51238 17.9873L12.5056 19.9745L9.51238 21.9879V17.9873ZM19.0046 29.6242L10.306 23.8539L14.2991 21.1668L19.0046 24.2888V29.6242ZM19.9982 22.5591L16.0888 19.962L19.9982 17.3312L23.9113 19.962L19.9982 22.5591ZM20.9943 29.6242V24.2876L25.701 21.1656L29.6916 23.8526L20.9943 29.6242ZM30.489 21.9879L27.4944 19.9745L30.489 17.9873V21.9879Z" fill="black"/>
</svg>
