<svg width="40" height="40" viewBox="0 0 40 40" fill="none" xmlns="http://www.w3.org/2000/svg">
<path fill-rule="evenodd" clip-rule="evenodd" d="M20 7.84003C13.1152 7.84003 7.53503 13.4214 7.53503 20.3078C7.53503 25.8155 11.1056 30.4893 16.0596 32.1394C16.6832 32.2519 16.9082 31.8681 16.9082 31.5381C16.9082 31.2418 16.8982 30.4568 16.8944 29.4181C13.4264 30.1706 12.694 27.7455 12.694 27.7455C12.1291 26.3055 11.3105 25.9217 11.3105 25.9217C10.1795 25.1479 11.3968 25.1654 11.3968 25.1654C12.649 25.253 13.3051 26.4505 13.3051 26.4505C14.4174 28.3555 16.2245 27.8055 16.9319 27.4868C17.0456 26.6805 17.3706 26.1305 17.7255 25.8192C14.9585 25.5055 12.0491 24.4354 12.0491 19.6566C12.0491 18.2978 12.5353 17.1828 13.3289 16.3127C13.2026 15.9965 12.7715 14.7277 13.4526 13.0127C13.4526 13.0127 14.4986 12.6764 16.8794 14.2889C17.8962 14.0123 18.945 13.871 19.9988 13.8689C21.0526 13.8706 22.1015 14.0119 23.1182 14.2889C25.5002 12.6751 26.545 13.0127 26.545 13.0127C27.2261 14.7277 26.7987 15.9965 26.6687 16.3127C27.4685 17.1828 27.9484 18.2965 27.9484 19.6566C27.9484 24.4479 25.0365 25.5005 22.2596 25.8092C22.7032 26.1942 23.1032 26.9542 23.1032 28.1168C23.1032 29.7843 23.0882 31.1293 23.0882 31.5381C23.0882 31.8719 23.3106 32.2594 23.9467 32.1369C28.8983 30.4843 32.465 25.8142 32.465 20.3078C32.465 13.4214 26.8849 7.84003 20 7.84003Z" fill="black"/>
</svg>
