<svg width="40" height="40" viewBox="0 0 40 40" fill="none" xmlns="http://www.w3.org/2000/svg">
<path d="M29.7607 14.9969C29.777 15.2156 29.777 15.4331 29.777 15.6506C29.777 22.306 24.7097 29.975 15.449 29.975C12.596 29.975 9.94542 29.1489 7.71497 27.7141C8.12005 27.7603 8.51013 27.7765 8.93146 27.7765C11.1982 27.782 13.4007 27.0243 15.184 25.6256C14.133 25.6066 13.1143 25.2599 12.2699 24.6341C11.4256 24.0083 10.7978 23.1345 10.4743 22.1348C10.7856 22.181 11.0982 22.2122 11.4257 22.2122C11.8771 22.2122 12.3309 22.1498 12.7522 22.041C11.6117 21.8108 10.5861 21.1928 9.84992 20.2921C9.11371 19.3914 8.71228 18.2636 8.71392 17.1004V17.0379C9.38531 17.4116 10.1642 17.6453 10.9894 17.6766C10.2981 17.2174 9.73128 16.5942 9.33947 15.8628C8.94767 15.1313 8.74307 14.3143 8.74393 13.4846C8.74393 12.5497 8.99273 11.6923 9.42906 10.9449C10.6945 12.501 12.2728 13.774 14.0617 14.6815C15.8506 15.589 17.8102 16.1108 19.8137 16.213C19.7362 15.838 19.6887 15.4493 19.6887 15.0594C19.6883 14.3982 19.8184 13.7434 20.0713 13.1324C20.3243 12.5215 20.6952 11.9664 21.1629 11.4988C21.6306 11.0313 22.1859 10.6605 22.7971 10.4076C23.4082 10.1547 24.0632 10.0247 24.7247 10.025C26.175 10.025 27.484 10.6324 28.4042 11.6148C29.5316 11.3969 30.6128 10.9854 31.5998 10.3987C31.224 11.5621 30.4368 12.5486 29.3856 13.1734C30.3856 13.0594 31.3628 12.7965 32.285 12.3935C31.5962 13.3972 30.7428 14.2774 29.7607 14.9969Z" fill="black"/>
</svg>
