<svg width="553" height="200" viewBox="0 0 553 200" fill="none" xmlns="http://www.w3.org/2000/svg">
<path d="M81.4448 67.7115C68.3872 76.1281 3.07292 62.7908 -4 58.1149L1.46646 198.97L560.499 214C564.036 152.712 566.538 27.8329 548.258 18.6147C525.406 7.09195 501.131 12.525 509.901 35.1473C512.557 42.0007 486.374 37.1512 474.948 35.1473C463.523 33.1433 443.356 82.1624 426.218 88.1742C409.08 94.186 404.826 42.0833 394.216 36.5724C383.607 31.0616 356.473 47.672 352.392 46.67C348.312 45.668 334.454 1.50324 322.212 2.00423C309.97 2.50522 282.937 61.6218 257.481 49.1749C249.065 45.0601 248.026 94.1861 235.662 96.19C223.297 98.194 204.043 28.5566 194.033 55.109C184.022 81.6614 174.909 9.38489 167.294 7.51515C150.972 3.50724 158.159 24.6266 141.837 41.1592C125.515 57.6918 119.097 36.5724 114.2 32.5645C109.304 28.5566 97.767 57.1908 81.4448 67.7115Z" stroke="url(#paint0_linear_70_1081)" stroke-width="4" stroke-linecap="round" stroke-linejoin="round"/>
<defs>
<linearGradient id="paint0_linear_70_1081" x1="555" y1="1.99997" x2="46" y2="93" gradientUnits="userSpaceOnUse">
<stop offset="0.0375579" stop-color="#060B10"/>
<stop offset="0.182914" stop-color="#9D00E7"/>
<stop offset="0.315338" stop-color="#E92929"/>
<stop offset="0.60729" stop-color="#F5744C"/>
<stop offset="0.903292" stop-color="#FFC700"/>
<stop offset="1" stop-color="#E200E7" stop-opacity="0"/>
</linearGradient>
</defs>
</svg>
