<svg width="49" height="34" viewBox="0 0 49 34" fill="none" xmlns="http://www.w3.org/2000/svg">
<path d="M26.5714 19.1667H36.9286C37.4779 19.1667 38.0048 19.3949 38.3933 19.8013C38.7818 20.2076 39 20.7587 39 21.3333C39 21.908 38.7818 22.4591 38.3933 22.8654C38.0048 23.2717 37.4779 23.5 36.9286 23.5H26.5714C26.0221 23.5 25.4952 23.2717 25.1067 22.8654C24.7182 22.4591 24.5 21.908 24.5 21.3333C24.5 20.7587 24.7182 20.2076 25.1067 19.8013C25.4952 19.3949 26.0221 19.1667 26.5714 19.1667ZM12.0714 10.5H36.9286C37.4779 10.5 38.0048 10.7283 38.3933 11.1346C38.7818 11.5409 39 12.092 39 12.6667C39 13.2413 38.7818 13.7924 38.3933 14.1987C38.0048 14.6051 37.4779 14.8333 36.9286 14.8333H12.0714C11.5221 14.8333 10.9952 14.6051 10.6067 14.1987C10.2182 13.7924 10 13.2413 10 12.6667C10 12.092 10.2182 11.5409 10.6067 11.1346C10.9952 10.7283 11.5221 10.5 12.0714 10.5Z" fill="black"/>
</svg>
