<svg width="41" height="40" viewBox="0 0 41 40" fill="none" xmlns="http://www.w3.org/2000/svg">
<rect x="0.777832" width="40" height="40" rx="20" fill="white"/>
<path d="M19.7064 20C19.7064 20.2842 19.8193 20.5567 20.0202 20.7576C20.2212 20.9585 20.4937 21.0714 20.7778 21.0714C21.062 21.0714 21.3345 20.9585 21.5354 20.7576C21.7364 20.5567 21.8492 20.2842 21.8492 20C21.8492 19.7158 21.7364 19.4433 21.5354 19.2424C21.3345 19.0415 21.062 18.9286 20.7778 18.9286C20.4937 18.9286 20.2212 19.0415 20.0202 19.2424C19.8193 19.4433 19.7064 19.7158 19.7064 20ZM24.1706 20C24.1706 20.2842 24.2835 20.5567 24.4845 20.7576C24.6854 20.9585 24.9579 21.0714 25.2421 21.0714C25.5262 21.0714 25.7987 20.9585 25.9997 20.7576C26.2006 20.5567 26.3135 20.2842 26.3135 20C26.3135 19.7158 26.2006 19.4433 25.9997 19.2424C25.7987 19.0415 25.5262 18.9286 25.2421 18.9286C24.9579 18.9286 24.6854 19.0415 24.4845 19.2424C24.2835 19.4433 24.1706 19.7158 24.1706 20ZM15.2422 20C15.2422 20.2842 15.3551 20.5567 15.556 20.7576C15.7569 20.9585 16.0294 21.0714 16.3136 21.0714C16.5978 21.0714 16.8703 20.9585 17.0712 20.7576C17.2721 20.5567 17.385 20.2842 17.385 20C17.385 19.7158 17.2721 19.4433 17.0712 19.2424C16.8703 19.0415 16.5978 18.9286 16.3136 18.9286C16.0294 18.9286 15.7569 19.0415 15.556 19.2424C15.3551 19.4433 15.2422 19.7158 15.2422 20ZM30.0009 16.125C29.4965 14.9263 28.7733 13.8504 27.8514 12.9263C26.936 12.0076 25.8493 11.2773 24.6528 10.7768C23.4251 10.2612 22.1216 10 20.7778 10H20.7332C19.3805 10.0067 18.0703 10.2746 16.8382 10.8013C15.6519 11.307 14.5754 12.0386 13.6685 12.9554C12.7556 13.8772 12.0391 14.9487 11.5436 16.1429C11.0302 17.3795 10.7713 18.6942 10.778 20.0469C10.7855 21.597 11.1523 23.1243 11.8494 24.5089V27.9018C11.8494 28.1741 11.9576 28.4353 12.1501 28.6278C12.3427 28.8204 12.6038 28.9286 12.8761 28.9286H16.2712C17.6558 29.6257 19.1831 29.9924 20.7332 30H20.7801C22.1171 30 23.414 29.7411 24.6349 29.2344C25.8254 28.7398 26.908 28.0181 27.8224 27.1094C28.7443 26.1964 29.4697 25.1295 29.9764 23.9397C30.5032 22.7076 30.771 21.3973 30.7777 20.0446C30.7844 18.6853 30.521 17.3661 30.0009 16.125ZM26.6282 25.9018C25.0635 27.4509 22.9876 28.3036 20.7778 28.3036H20.7399C19.3939 28.2969 18.0569 27.9621 16.8761 27.3326L16.6886 27.2321H13.5458V24.0893L13.4453 23.9018C12.8159 22.721 12.4811 21.3839 12.4744 20.0379C12.4654 17.8125 13.3159 15.7232 14.8761 14.1496C16.4341 12.5759 18.5167 11.7054 20.7421 11.6964H20.7801C21.8961 11.6964 22.9787 11.9129 23.9988 12.3415C24.9943 12.7589 25.8871 13.3594 26.655 14.1272C27.4206 14.8929 28.0233 15.7879 28.4407 16.7835C28.8737 17.8147 29.0902 18.9085 29.0858 20.0379C29.0724 22.2612 28.1996 24.3438 26.6282 25.9018Z" fill="black"/>
</svg>
