<svg width="41" height="40" viewBox="0 0 41 40" fill="none" xmlns="http://www.w3.org/2000/svg">
<path d="M15.3055 11.5V25.8086L18.0057 23.2588L19.0555 24.25L14.5555 28.5L10.0555 24.25L11.1053 23.2588L13.8055 25.8086V11.5H15.3055Z" fill="black"/>
<path d="M15.3055 11.5V25.8086L18.0057 23.2588L19.0555 24.25L14.5555 28.5L10.0555 24.25L11.1053 23.2588L13.8055 25.8086V11.5H15.3055Z" stroke="black"/>
<path d="M27.3055 28.5V14.1914L30.0057 16.7412L31.0555 15.75L26.5555 11.5L22.0555 15.75L23.1053 16.7412L25.8055 14.1914V28.5H27.3055Z" fill="black"/>
<path d="M27.3055 28.5V14.1914L30.0057 16.7412L31.0555 15.75L26.5555 11.5L22.0555 15.75L23.1053 16.7412L25.8055 14.1914V28.5H27.3055Z" stroke="black"/>
</svg>
