<svg width="50" height="50" viewBox="0 0 50 50" fill="none" xmlns="http://www.w3.org/2000/svg">
<path d="M17 27C18.1046 27 19 26.1046 19 25C19 23.8954 18.1046 23 17 23C15.8954 23 15 23.8954 15 25C15 26.1046 15.8954 27 17 27Z" fill="black"/>
<path d="M25 27C26.1046 27 27 26.1046 27 25C27 23.8954 26.1046 23 25 23C23.8954 23 23 23.8954 23 25C23 26.1046 23.8954 27 25 27Z" fill="black"/>
<path d="M33 27C34.1046 27 35 26.1046 35 25C35 23.8954 34.1046 23 33 23C31.8954 23 31 23.8954 31 25C31 26.1046 31.8954 27 33 27Z" fill="black"/>
</svg>
