<svg width="40" height="40" viewBox="0 0 40 40" fill="none" xmlns="http://www.w3.org/2000/svg">
<rect width="40" height="40" rx="20" fill="white" fill-opacity="0.14"/>
<path d="M20.0005 12.5611C18.9109 11.5592 17.4847 11.0031 16.0045 11.0031C15.221 11.0039 14.4454 11.1596 13.7224 11.4613C12.9994 11.763 12.3431 12.2047 11.7915 12.7611C9.43847 15.1241 9.43947 18.8201 11.7935 21.1731L19.1255 28.5051C19.2955 28.8041 19.6235 28.9971 20.0005 28.9971C20.1553 28.9955 20.3076 28.9578 20.4451 28.8867C20.5827 28.8157 20.7016 28.7134 20.7925 28.5881L28.2075 21.1731C30.5615 18.8191 30.5615 15.1241 28.2055 12.7571C27.6541 12.2018 26.9984 11.7609 26.276 11.4599C25.5537 11.1589 24.779 11.0037 23.9965 11.0031C22.5163 11.0033 21.0902 11.5593 20.0005 12.5611ZM26.7915 14.1711C28.3545 15.7421 28.3555 18.1961 26.7935 19.7591L20.0005 26.5521L13.2075 19.7591C11.6455 18.1961 11.6465 15.7421 13.2055 14.1751C13.9655 13.4191 14.9595 13.0031 16.0045 13.0031C17.0495 13.0031 18.0395 13.4191 18.7935 14.1731L19.2935 14.6731C19.3863 14.766 19.4965 14.8397 19.6178 14.89C19.7391 14.9404 19.8691 14.9663 20.0005 14.9663C20.1318 14.9663 20.2618 14.9404 20.3832 14.89C20.5045 14.8397 20.6147 14.766 20.7075 14.6731L21.2075 14.1731C22.7195 12.6641 25.2815 12.6681 26.7915 14.1711Z" fill="white"/>
</svg>
