<svg width="54" height="54" viewBox="0 0 54 54" fill="none" xmlns="http://www.w3.org/2000/svg">
<g filter="url(#filter0_d_2_360)">
<rect x="7" y="5" width="40" height="40" rx="20" fill="white"/>
<path d="M33.5 23.5455C33.5 28.6364 27 33 27 33C27 33 20.5 28.6364 20.5 23.5455C20.5 21.8095 21.1848 20.1446 22.4038 18.9171C23.6228 17.6896 25.2761 17 27 17C28.7239 17 30.3772 17.6896 31.5962 18.9171C32.8152 20.1446 33.5 21.8095 33.5 23.5455Z" stroke="black" stroke-width="1.3" stroke-linecap="round" stroke-linejoin="round"/>
<path d="M27 25.7272C28.1966 25.7272 29.1667 24.7504 29.1667 23.5454C29.1667 22.3404 28.1966 21.3636 27 21.3636C25.8034 21.3636 24.8333 22.3404 24.8333 23.5454C24.8333 24.7504 25.8034 25.7272 27 25.7272Z" stroke="black" stroke-width="1.3" stroke-linecap="round" stroke-linejoin="round"/>
</g>
<defs>
<filter id="filter0_d_2_360" x="0" y="0" width="54" height="54" filterUnits="userSpaceOnUse" color-interpolation-filters="sRGB">
<feFlood flood-opacity="0" result="BackgroundImageFix"/>
<feColorMatrix in="SourceAlpha" type="matrix" values="0 0 0 0 0 0 0 0 0 0 0 0 0 0 0 0 0 0 127 0" result="hardAlpha"/>
<feOffset dy="2"/>
<feGaussianBlur stdDeviation="3.5"/>
<feColorMatrix type="matrix" values="0 0 0 0 0 0 0 0 0 0 0 0 0 0 0 0 0 0 0.11 0"/>
<feBlend mode="normal" in2="BackgroundImageFix" result="effect1_dropShadow_2_360"/>
<feBlend mode="normal" in="SourceGraphic" in2="effect1_dropShadow_2_360" result="shape"/>
</filter>
</defs>
</svg>
