<svg width="309" height="107" viewBox="0 0 309 107" fill="none" xmlns="http://www.w3.org/2000/svg">
<path d="M2 105C21.1574 86.665 86 69 70 38C84.694 28.2545 124.5 53.2222 134.878 22.3333C145.257 -8.55556 142.373 14.8864 146.533 18.7778C153.761 25.5395 176.268 24.3889 163.384 41.2222C150.5 58.0556 167.69 54.8505 167.69 62.2778C167.69 67.6685 177.054 54.3845 178.082 53.2222C186.409 43.811 200.622 42.9444 206.811 27.7222C213 12.5 214.308 20.5446 214.457 25.2222C214.745 34.2769 223.192 14.2471 234 11.5C243.886 8.98722 245.346 49.9146 254.5 46C260.577 43.4013 266.681 25.2389 269.687 28.5556C276.428 35.9934 281.89 19.2309 294 18.7778C300.023 18.5524 299.153 31.8759 301.31 28.4444C307.5 34.5 304.754 7.04373 307 2" stroke="url(#paint0_linear_79_938)" stroke-width="3" stroke-linecap="round"/>
<defs>
<linearGradient id="paint0_linear_79_938" x1="303" y1="-4" x2="-2.50001" y2="102.5" gradientUnits="userSpaceOnUse">
<stop stop-color="#B900D7"/>
<stop offset="0.807304" stop-color="#5100FD"/>
<stop offset="1" stop-color="white"/>
</linearGradient>
</defs>
</svg>
