<svg width="16" height="12" viewBox="0 0 16 12" fill="none" xmlns="http://www.w3.org/2000/svg">
<path fill-rule="evenodd" clip-rule="evenodd" d="M8.3004 2.69626C10.5348 2.69636 12.6838 3.55491 14.3031 5.09447C14.4251 5.21333 14.62 5.21183 14.7401 5.09111L15.9058 3.91469C15.9666 3.85346 16.0005 3.77053 16 3.68423C15.9995 3.59793 15.9646 3.5154 15.9031 3.45488C11.6527 -0.618425 4.94737 -0.618425 0.697047 3.45488C0.635477 3.51535 0.600547 3.59786 0.599983 3.68416C0.599408 3.77046 0.633259 3.85342 0.694022 3.91469L1.86003 5.09111C1.98004 5.21201 2.17511 5.21351 2.29698 5.09447C3.91655 3.55481 6.06577 2.69626 8.3004 2.69626ZM8.3004 6.52365C9.52806 6.52357 10.7119 6.97989 11.6219 7.80393C11.745 7.92088 11.9389 7.91834 12.0589 7.79821L13.2232 6.6218C13.2845 6.56009 13.3185 6.47638 13.3177 6.38939C13.3168 6.30241 13.281 6.21941 13.2185 6.15896C10.4473 3.58121 6.15582 3.58121 3.38466 6.15896C3.32206 6.21941 3.28635 6.30245 3.28553 6.38946C3.2847 6.47648 3.31885 6.56018 3.38028 6.6218L4.54427 7.79821C4.66425 7.91834 4.85814 7.92088 4.98122 7.80393C5.89063 6.98043 7.07354 6.52416 8.3004 6.52365ZM10.5379 9.33125C10.6002 9.27014 10.6345 9.18604 10.6327 9.09881C10.6309 9.01158 10.5932 8.92895 10.5285 8.87043C9.2423 7.78253 7.35849 7.78253 6.07226 8.87043C6.00751 8.9289 5.96974 9.01151 5.9679 9.09874C5.96605 9.18597 6.00029 9.27009 6.06251 9.33125L8.07688 11.3638C8.13592 11.4235 8.2164 11.4571 8.3004 11.4571C8.38439 11.4571 8.46487 11.4235 8.52391 11.3638L10.5379 9.33125Z" fill="#212121"/>
</svg>
