<svg width="16" height="16" viewBox="0 0 16 16" fill="none" xmlns="http://www.w3.org/2000/svg">
<path d="M13.3333 8.1829C13.3333 8.43603 13.1452 8.64523 12.9012 8.67834L12.8333 8.6829L4.04401 8.6825L7.21933 11.8449C7.41502 12.0397 7.4157 12.3563 7.22086 12.552C7.04373 12.7299 6.76599 12.7466 6.56994 12.6018L6.51375 12.5535L2.48042 8.53748C2.45463 8.5118 2.43222 8.484 2.41321 8.45465C2.40784 8.44582 2.40237 8.43678 2.39719 8.42756C2.39242 8.41965 2.38811 8.41145 2.38405 8.40315C2.3784 8.39107 2.37289 8.3786 2.36788 8.36587C2.36381 8.35606 2.36041 8.34652 2.35732 8.3369C2.35363 8.32497 2.35005 8.31226 2.34697 8.29935C2.34469 8.29034 2.34287 8.28167 2.34129 8.27296C2.33907 8.26001 2.33718 8.2466 2.33582 8.23304C2.33466 8.22269 2.33396 8.21244 2.33357 8.20218C2.33347 8.19596 2.33334 8.18945 2.33334 8.1829L2.33359 8.16353C2.33398 8.15372 2.33465 8.14392 2.33561 8.13414L2.33334 8.1829C2.33334 8.15135 2.33627 8.12048 2.34186 8.09055C2.34315 8.0834 2.3447 8.07606 2.34641 8.06875C2.34996 8.0537 2.35406 8.03921 2.35879 8.025C2.36111 8.01794 2.36381 8.0104 2.3667 8.00291C2.37254 7.98786 2.37889 7.97352 2.38588 7.95955C2.38912 7.95298 2.39276 7.94611 2.39657 7.9393C2.40281 7.92819 2.40925 7.91764 2.41606 7.90735C2.42086 7.90007 2.42618 7.89249 2.43173 7.88504L2.43606 7.87927C2.44953 7.86167 2.46414 7.845 2.47979 7.82935L2.48039 7.82889L6.51372 3.81222C6.70939 3.61736 7.02597 3.61802 7.22083 3.81368C7.39797 3.99156 7.41353 4.26937 7.26789 4.46481L7.21936 4.52079L4.04534 7.6825L12.8333 7.6829C13.1095 7.6829 13.3333 7.90676 13.3333 8.1829Z" fill="black"/>
</svg>
