<svg width="16" height="16" viewBox="0 0 16 16" fill="none" xmlns="http://www.w3.org/2000/svg">
<path d="M2.66666 8.1829C2.66666 8.43603 2.85477 8.64523 3.09882 8.67834L3.16666 8.6829L11.956 8.6825L8.78067 11.8449C8.58499 12.0397 8.58431 12.3563 8.77915 12.552C8.95628 12.7299 9.23402 12.7466 9.43007 12.6018L9.48626 12.5535L13.5196 8.53748C13.5454 8.5118 13.5678 8.484 13.5868 8.45465C13.5922 8.44582 13.5976 8.43678 13.6028 8.42756C13.6076 8.41965 13.6119 8.41145 13.616 8.40315C13.6216 8.39107 13.6271 8.3786 13.6321 8.36587C13.6362 8.35606 13.6396 8.34652 13.6427 8.3369C13.6464 8.32497 13.65 8.31226 13.653 8.29935C13.6553 8.29034 13.6571 8.28167 13.6587 8.27296C13.6609 8.26001 13.6628 8.2466 13.6642 8.23304C13.6653 8.22269 13.666 8.21244 13.6664 8.20218C13.6665 8.19596 13.6667 8.18945 13.6667 8.1829L13.6664 8.16353C13.666 8.15372 13.6654 8.14392 13.6644 8.13414L13.6667 8.1829C13.6667 8.15135 13.6637 8.12048 13.6582 8.09055C13.6569 8.0834 13.6553 8.07606 13.6536 8.06875C13.6501 8.0537 13.6459 8.03921 13.6412 8.025C13.6389 8.01794 13.6362 8.0104 13.6333 8.00291C13.6275 7.98786 13.6211 7.97352 13.6141 7.95955C13.6109 7.95298 13.6072 7.94611 13.6034 7.9393C13.5972 7.92819 13.5908 7.91764 13.5839 7.90735C13.5791 7.90007 13.5738 7.89249 13.5683 7.88504L13.5639 7.87927C13.5505 7.86167 13.5359 7.845 13.5202 7.82935L13.5196 7.82889L9.48629 3.81222C9.29062 3.61736 8.97404 3.61802 8.77918 3.81368C8.60204 3.99156 8.58647 4.26937 8.73212 4.46481L8.78064 4.52079L11.9547 7.6825L3.16666 7.6829C2.89052 7.6829 2.66666 7.90676 2.66666 8.1829Z" fill="black"/>
</svg>
