<svg width="37" height="37" viewBox="0 0 37 37" fill="none" xmlns="http://www.w3.org/2000/svg">
<path d="M29.2053 17.131C28.5315 11.8246 23.9883 7.70834 18.4999 7.70834C14.2511 7.70834 10.5603 10.192 8.87529 14.1063C5.56379 15.096 3.08325 18.2225 3.08325 21.5833C3.08325 25.8337 6.54121 29.2917 10.7916 29.2917H27.7499C31.1508 29.2917 33.9166 26.5259 33.9166 23.125C33.9142 21.7431 33.4489 20.4018 32.5949 19.3153C31.7409 18.2288 30.5475 17.4598 29.2053 17.131ZM27.7499 26.2083H10.7916C8.24167 26.2083 6.16659 24.1333 6.16659 21.5833C6.16659 19.4188 8.01504 17.3345 10.2875 16.9352L11.1832 16.778L11.4792 15.9177C12.563 12.7558 15.2547 10.7917 18.4999 10.7917C22.7503 10.7917 26.2083 14.2496 26.2083 18.5V20.0417H27.7499C29.4504 20.0417 30.8333 21.4246 30.8333 23.125C30.8333 24.8255 29.4504 26.2083 27.7499 26.2083Z" fill="black"/>
</svg>
