<svg width="314" height="95" viewBox="0 0 314 95" fill="none" xmlns="http://www.w3.org/2000/svg">
<path d="M2 93C21.1574 74.665 44.2953 59.5095 69.6269 46.0556C91.5473 34.4133 114.812 23.7935 134.878 10.3333C138.481 7.91664 142.373 2.88639 146.533 6.77778C153.761 13.5395 159.407 21.0865 163.384 29.2222C166.849 36.3103 167.69 42.8505 167.69 50.2778C167.69 55.6685 177.054 42.3845 178.082 41.2222C186.409 31.811 196.174 23.683 206.811 15.7222C208.483 14.471 214.308 8.5446 214.457 13.2222C214.745 22.2769 216.269 19.7471 227.077 17C236.963 14.4872 247.542 13.0813 256.696 9.16667C262.773 6.56794 266.681 13.2389 269.687 16.5556C276.428 23.9934 281.926 25.3976 294.035 24.9444C300.058 24.7191 299.153 19.8759 301.31 16.4444C304.397 11.5351 309.754 7.04373 312 2" stroke="url(#paint0_linear_56_1319)" stroke-width="3" stroke-linecap="round"/>
<defs>
<linearGradient id="paint0_linear_56_1319" x1="315.5" y1="-2.00001" x2="-2.00001" y2="93" gradientUnits="userSpaceOnUse">
<stop stop-color="#00B0E8"/>
<stop offset="0.583338" stop-color="#7A00F3"/>
<stop offset="1" stop-color="white"/>
</linearGradient>
</defs>
</svg>
