<svg width="20" height="19" viewBox="0 0 20 19" fill="none" xmlns="http://www.w3.org/2000/svg">
<g clip-path="url(#clip0_26_320)">
<path d="M9.97313 2.06101C8.88353 1.05911 7.45733 0.503053 5.97713 0.503006C5.19366 0.503822 4.4181 0.659566 3.69506 0.961274C2.97203 1.26298 2.31579 1.7047 1.76413 2.26101C-0.588875 4.62401 -0.587875 8.32001 1.76613 10.673L9.09813 18.005C9.26813 18.304 9.59613 18.497 9.97313 18.497C10.1279 18.4955 10.2802 18.4577 10.4178 18.3867C10.5553 18.3157 10.6743 18.2134 10.7651 18.088L18.1801 10.673C20.5341 8.31901 20.5341 4.62401 18.1781 2.25701C17.6267 1.70172 16.971 1.2609 16.2487 0.959889C15.5264 0.658876 14.7517 0.503606 13.9691 0.503006C12.489 0.503248 11.0628 1.05928 9.97313 2.06101ZM16.7641 3.67101C18.3271 5.24201 18.3281 7.69601 16.7661 9.25901L9.97313 16.052L3.18012 9.25901C1.61812 7.69601 1.61913 5.24201 3.17813 3.67501C3.93813 2.91901 4.93213 2.50301 5.97713 2.50301C7.02213 2.50301 8.01213 2.91901 8.76613 3.67301L9.26613 4.17301C9.35891 4.26595 9.46912 4.33969 9.59043 4.39C9.71175 4.44031 9.84179 4.46621 9.97313 4.46621C10.1045 4.46621 10.2345 4.44031 10.3558 4.39C10.4771 4.33969 10.5873 4.26595 10.6801 4.17301L11.1801 3.67301C12.6921 2.16401 15.2541 2.16801 16.7641 3.67101Z" fill="white"/>
</g>
<defs>
<clipPath id="clip0_26_320">
<rect width="19.9454" height="17.994" fill="white" transform="translate(0 0.503006)"/>
</clipPath>
</defs>
</svg>
