<svg width="25" height="24" viewBox="0 0 25 24" fill="none" xmlns="http://www.w3.org/2000/svg">
<path d="M6.47264 15C7.34773 14.995 8.18941 14.6634 8.83264 14.07L15.0926 17.65C15.0129 17.9263 14.9725 18.2124 14.9726 18.5C14.9662 19.3115 15.2396 20.1005 15.7468 20.7341C16.254 21.3676 16.964 21.8071 17.7573 21.9784C18.5506 22.1497 19.3787 22.0425 20.1021 21.6747C20.8256 21.307 21.4002 20.7011 21.7293 19.9593C22.0584 19.2174 22.1218 18.3848 21.9088 17.6017C21.6959 16.8186 21.2196 16.1327 20.5602 15.6597C19.9007 15.1866 19.0984 14.9552 18.2884 15.0045C17.4783 15.0537 16.7099 15.3806 16.1126 15.93L9.85264 12.35C9.92818 12.1036 9.96858 11.8477 9.97264 11.59L16.1226 8.07C16.7167 8.60684 17.4773 8.92309 18.2768 8.9657C19.0764 9.00832 19.8663 8.77471 20.514 8.30405C21.1618 7.8334 21.628 7.15433 21.8345 6.38072C22.041 5.60712 21.9752 4.78604 21.6482 4.05518C21.3212 3.32433 20.7528 2.72815 20.0383 2.36663C19.3239 2.00512 18.5069 1.90025 17.7243 2.06963C16.9417 2.239 16.2412 2.67232 15.7402 3.29689C15.2392 3.92147 14.9682 4.69933 14.9726 5.5C14.976 5.78731 15.0163 6.07299 15.0926 6.35L9.40264 9.6C9.07295 9.08996 8.61621 8.67448 8.07732 8.39441C7.53843 8.11434 6.93594 7.97931 6.32906 8.00259C5.72219 8.02588 5.13181 8.20668 4.61597 8.52722C4.10013 8.84776 3.67657 9.29702 3.38693 9.83082C3.09729 10.3646 2.95153 10.9646 2.96399 11.5718C2.97645 12.179 3.14669 12.7725 3.45799 13.294C3.76928 13.8155 4.21091 14.247 4.73946 14.5461C5.26802 14.8452 5.86532 15.0016 6.47264 15ZM18.4726 17C18.7693 17 19.0593 17.088 19.306 17.2528C19.5527 17.4176 19.7449 17.6519 19.8585 17.926C19.972 18.2001 20.0017 18.5017 19.9438 18.7926C19.8859 19.0836 19.7431 19.3509 19.5333 19.5607C19.3235 19.7704 19.0562 19.9133 18.7653 19.9712C18.4743 20.0291 18.1727 19.9994 17.8986 19.8858C17.6245 19.7723 17.3903 19.58 17.2254 19.3334C17.0606 19.0867 16.9726 18.7967 16.9726 18.5C16.9726 18.1022 17.1307 17.7206 17.412 17.4393C17.6933 17.158 18.0748 17 18.4726 17ZM18.4726 4C18.7693 4 19.0593 4.08798 19.306 4.2528C19.5527 4.41762 19.7449 4.65189 19.8585 4.92598C19.972 5.20007 20.0017 5.50167 19.9438 5.79264C19.8859 6.08361 19.7431 6.35089 19.5333 6.56066C19.3235 6.77044 19.0562 6.9133 18.7653 6.97118C18.4743 7.02906 18.1727 6.99936 17.8986 6.88582C17.6245 6.77229 17.3903 6.58003 17.2254 6.33336C17.0606 6.08669 16.9726 5.79668 16.9726 5.5C16.9726 5.10218 17.1307 4.72065 17.412 4.43934C17.6933 4.15804 18.0748 4 18.4726 4ZM6.47264 10C6.76931 10 7.05932 10.088 7.30599 10.2528C7.55267 10.4176 7.74492 10.6519 7.85846 10.926C7.97199 11.2001 8.00169 11.5017 7.94381 11.7926C7.88594 12.0836 7.74308 12.3509 7.5333 12.5607C7.32352 12.7704 7.05624 12.9133 6.76527 12.9712C6.4743 13.0291 6.1727 12.9994 5.89861 12.8858C5.62452 12.7723 5.39025 12.58 5.22543 12.3334C5.06061 12.0867 4.97264 11.7967 4.97264 11.5C4.97264 11.1022 5.13067 10.7206 5.41198 10.4393C5.69328 10.158 6.07481 10 6.47264 10Z" fill="white"/>
</svg>
