<svg width="36" height="36" viewBox="0 0 36 36" fill="none" xmlns="http://www.w3.org/2000/svg">
<path d="M36 18C36 27.941 27.941 36 18 36C8.06 36 0 27.941 0 18C0 8.06 8.06 0 18 0C27.941 0 36 8.06 36 18Z" fill="#FFCC4D"/>
<path d="M6.00101 20C5.69701 20 5.39701 19.862 5.20001 19.6C4.86801 19.159 4.95801 18.532 5.40001 18.201C5.54301 18.094 8.35101 16.018 12.256 15.268C9.78101 14.027 7.03401 14 6.99901 14C6.44701 13.998 6.00001 13.55 6.00101 12.998C6.00101 12.447 6.44801 12 7.00001 12C7.22101 12 12.452 12.038 15.707 15.293C15.993 15.579 16.079 16.009 15.924 16.383C15.769 16.757 15.404 17 15 17C10.387 17 6.63701 19.772 6.60001 19.8C6.42001 19.935 6.20901 20 6.00101 20ZM29.999 19.999C29.791 19.999 29.581 19.935 29.401 19.801C29.363 19.772 25.59 17 21 17C20.596 17 20.23 16.757 20.076 16.383C19.921 16.009 20.007 15.579 20.293 15.293C23.549 12.038 28.779 12 29 12C29.552 12 29.998 12.447 29.999 12.998C30 13.55 29.553 13.998 29.002 14C28.966 14 26.219 14.027 23.744 15.268C27.649 16.018 30.457 18.093 30.599 18.201C31.04 18.532 31.13 19.157 30.8 19.599C30.604 19.86 30.304 19.999 29.999 19.999ZM7.00001 21.263C7.00001 25.227 11.596 30.263 18 30.263C24.404 30.263 29 25.263 29 21.263C29 21.263 18.667 24.019 7.00001 21.263Z" fill="#66471B"/>
<path d="M18.545 23.6039L17.454 23.5989C14.238 23.5249 12 23.0029 12 23.0029V29.9639C12 32.9639 14 35.9639 18 35.9639C22 35.9639 24 32.9639 24 29.9639V23.0439C22.078 23.4389 20.213 23.5869 18.545 23.6039Z" fill="#E8596E"/>
<path d="M18 31.8441C18.301 31.8441 18.545 31.6001 18.545 31.2991V23.6051L17.454 23.6001V31.2991C17.455 31.6001 17.699 31.8441 18 31.8441Z" fill="#DD2F45"/>
</svg>
