<svg width="32" height="32" viewBox="0 0 32 32" fill="none" xmlns="http://www.w3.org/2000/svg">
<path d="M16.1224 1C24.2938 1 30.9183 7.6253 30.9183 15.7959C30.9183 23.9673 24.2939 30.5918 16.1224 30.5918C7.95184 30.5918 1.32654 23.9673 1.32654 15.7959C1.32655 7.62534 7.95188 1.00001 16.1224 1Z" fill="#FFCC4D" stroke="white" stroke-width="2"/>
<path d="M6.47031 17.5509C6.20354 17.5509 5.94027 17.4298 5.7674 17.1999C5.47605 16.8129 5.55503 16.2627 5.94291 15.9722C6.0684 15.8783 8.53256 14.0565 11.9594 13.3984C9.78746 12.3093 7.37682 12.2856 7.34611 12.2856C6.8617 12.2839 6.46944 11.8907 6.47031 11.4063C6.47031 10.9228 6.86258 10.5305 7.34699 10.5305C7.54093 10.5305 12.1314 10.5639 14.9878 13.4203C15.2388 13.6713 15.3143 14.0486 15.1783 14.3768C15.0422 14.705 14.7219 14.9183 14.3674 14.9183C10.3193 14.9183 7.02844 17.3508 6.99597 17.3754C6.83801 17.4939 6.65285 17.5509 6.47031 17.5509ZM27.5298 17.55C27.3473 17.55 27.163 17.4939 27.005 17.3763C26.9717 17.3508 23.6607 14.9183 19.6327 14.9183C19.2782 14.9183 18.957 14.705 18.8218 14.3768C18.6858 14.0486 18.7613 13.6713 19.0123 13.4203C21.8696 10.5639 26.4592 10.5305 26.6531 10.5305C27.1375 10.5305 27.5289 10.9228 27.5298 11.4063C27.5307 11.8907 27.1384 12.2839 26.6549 12.2856C26.6233 12.2856 24.2126 12.3093 22.0407 13.3984C25.4675 14.0565 27.9317 15.8774 28.0563 15.9722C28.4433 16.2627 28.5223 16.8112 28.2327 17.199C28.0607 17.4281 27.7974 17.55 27.5298 17.55ZM7.34699 18.6593C7.34699 22.1379 11.3802 26.5572 17 26.5572C22.6199 26.5572 26.6531 22.1695 26.6531 18.6593C26.6531 18.6593 17.5854 21.0778 7.34699 18.6593Z" fill="#66471B"/>
<path d="M17.4783 20.7137L16.5208 20.7093C13.6986 20.6444 11.7347 20.1863 11.7347 20.1863V26.2949C11.7347 28.9276 13.4898 31.5602 17 31.5602C20.5102 31.5602 22.2653 28.9276 22.2653 26.2949V20.2223C20.5786 20.5689 18.942 20.6988 17.4783 20.7137Z" fill="#E8596E"/>
<path d="M17 27.9447C17.2642 27.9447 17.4783 27.7306 17.4783 27.4665V20.7146L16.5209 20.7102V27.4665C16.5218 27.7306 16.7359 27.9447 17 27.9447Z" fill="#DD2F45"/>
</svg>
