<svg width="20" height="20" viewBox="0 0 20 20" fill="none" xmlns="http://www.w3.org/2000/svg">
<path d="M15.111 2C16.651 2 17.911 3.206 17.995 4.725L18 4.889V10.93C18 11.46 17.81 11.972 17.469 12.372L17.349 12.502L12.502 17.349C12.127 17.724 11.632 17.951 11.106 17.993L10.93 18H4.89C3.35 18 2.09 16.794 2.006 15.275L2 15.111V4.89C2 3.35 3.206 2.09 4.725 2.006L4.889 2H15.11H15.111ZM15.031 3H4.97C3.928 3 3.075 3.81 3.006 4.834L3 4.969V15.03C3 16.072 3.81 16.925 4.834 16.994L4.969 16.999H10.998V13.907C10.1269 14.0703 9.229 14.0175 8.38297 13.7534C7.53693 13.4893 6.76853 13.0219 6.145 12.392C6.05424 12.2973 6.00431 12.1708 6.00597 12.0396C6.00763 11.9085 6.06075 11.7833 6.15388 11.6909C6.24701 11.5986 6.37269 11.5465 6.50384 11.546C6.63499 11.5454 6.7611 11.5964 6.855 11.688C7.39066 12.2289 8.05679 12.6226 8.78902 12.8308C9.52125 13.0391 10.2948 13.055 11.035 12.877C11.0401 12.8255 11.0467 12.7741 11.055 12.723C11.439 11.691 12.407 11.068 13.557 11.003L13.72 11H17V4.969C17 3.927 16.19 3.074 15.166 3.005L15.031 3ZM16.585 12H13.823C12.858 12 12.068 12.75 12.004 13.698L12 13.823V16.584L12.087 16.506L16.506 12.086C16.5337 12.0586 16.5601 12.0299 16.585 12ZM7 7C7.26522 7 7.51957 7.10536 7.70711 7.29289C7.89464 7.48043 8 7.73478 8 8C8 8.26522 7.89464 8.51957 7.70711 8.70711C7.51957 8.89464 7.26522 9 7 9C6.73478 9 6.48043 8.89464 6.29289 8.70711C6.10536 8.51957 6 8.26522 6 8C6 7.73478 6.10536 7.48043 6.29289 7.29289C6.48043 7.10536 6.73478 7 7 7ZM13 7C13.2652 7 13.5196 7.10536 13.7071 7.29289C13.8946 7.48043 14 7.73478 14 8C14 8.26522 13.8946 8.51957 13.7071 8.70711C13.5196 8.89464 13.2652 9 13 9C12.7348 9 12.4804 8.89464 12.2929 8.70711C12.1054 8.51957 12 8.26522 12 8C12 7.73478 12.1054 7.48043 12.2929 7.29289C12.4804 7.10536 12.7348 7 13 7Z" fill="black"/>
</svg>
