<svg width="41" height="42" viewBox="0 0 41 42" fill="none" xmlns="http://www.w3.org/2000/svg">
<path d="M22.6985 23.6869C20.737 25.7189 18.3637 27.2876 15.7451 28.283L12.2026 25.4045C12.0976 25.3306 11.9731 25.2911 11.8456 25.2911C11.7181 25.2911 11.5935 25.3306 11.4885 25.4045L4.91096 29.7319C4.66125 29.8852 4.44987 30.0957 4.29351 30.3468C4.13716 30.5978 4.04011 30.8826 4.01004 31.1785C3.97996 31.4745 4.01768 31.7735 4.12023 32.052C4.22277 32.3305 4.38732 32.5808 4.60088 32.7832L7.68293 35.8921C8.12431 36.3374 8.66679 36.6642 9.26197 36.8434C9.85715 37.0225 10.4865 37.0484 11.0939 36.9188C17.1525 35.641 22.7369 32.6484 27.2088 28.283C31.5815 23.8743 34.6074 18.2645 35.9194 12.1342C36.049 11.5236 36.0219 10.8892 35.8409 10.2924C35.6598 9.69562 35.3308 9.15672 34.8858 8.72793L31.691 5.58069C31.4933 5.37323 31.2522 5.21413 30.9857 5.1153C30.7193 5.01647 30.4344 4.98048 30.1524 5.01001C29.8704 5.03955 29.5986 5.13385 29.3573 5.28585C29.1161 5.43785 28.9116 5.64362 28.7593 5.88774L24.3805 12.5181C24.305 12.6222 24.2642 12.7483 24.2642 12.8779C24.2642 13.0074 24.305 13.1336 24.3805 13.2377L27.2652 16.7783C26.264 19.3988 24.704 21.7587 22.6985 23.6869Z" fill="black"/>
</svg>
