<svg width="24" height="22" viewBox="0 0 24 22" fill="none" xmlns="http://www.w3.org/2000/svg">
<path d="M12.0005 2.31827C10.744 1.149 9.09942 0.500054 7.39252 0.5C6.48907 0.500952 5.59473 0.682714 4.76096 1.03482C3.92719 1.38694 3.17045 1.90244 2.5343 2.55168C-0.179061 5.30944 -0.177908 9.62288 2.53661 12.369L10.9915 20.9258C11.1875 21.2748 11.5658 21.5 12.0005 21.5C12.179 21.4982 12.3546 21.4541 12.5132 21.3713C12.6718 21.2884 12.809 21.169 12.9138 21.0227L21.4644 12.369C24.1789 9.62171 24.1789 5.30944 21.4621 2.54702C20.8263 1.89897 20.0701 1.38451 19.2372 1.03321C18.4042 0.681909 17.5109 0.5007 16.6085 0.5C14.9016 0.500282 13.2571 1.1492 12.0005 2.31827ZM19.8315 4.19723C21.6339 6.03068 21.6351 8.89463 19.8338 10.7187L12.0005 18.6466L4.16716 10.7187C2.36594 8.89463 2.36709 6.03068 4.16485 4.2019C5.04125 3.31961 6.18748 2.83411 7.39252 2.83411C8.59756 2.83411 9.73918 3.31961 10.6087 4.19957L11.1852 4.78309C11.2922 4.89157 11.4193 4.97762 11.5592 5.03634C11.6991 5.09505 11.8491 5.12528 12.0005 5.12528C12.152 5.12528 12.3019 5.09505 12.4418 5.03634C12.5817 4.97762 12.7088 4.89157 12.8158 4.78309L13.3924 4.19957C15.1359 2.43848 18.0903 2.44315 19.8315 4.19723Z" fill="white"/>
</svg>
