<svg width="360" height="150" viewBox="0 0 360 150" fill="none" xmlns="http://www.w3.org/2000/svg">
<path d="M50.6618 67.7115C42.0028 76.1281 -1.30967 62.7908 -6 58.1149L-2.37498 198.97L368.342 214C370.687 152.712 372.346 27.8329 360.224 18.6147C345.07 7.09195 328.972 12.525 334.788 35.1473C336.549 42.0007 319.186 37.1512 311.609 35.1473C304.033 33.1433 290.659 82.1624 279.294 88.1742C267.929 94.186 265.108 42.0833 258.073 36.5724C251.037 31.0616 233.044 47.672 230.338 46.67C227.632 45.668 218.442 1.50324 210.324 2.00423C202.206 2.50522 184.279 61.6218 167.398 49.1749C161.818 45.0601 161.128 94.1861 152.929 96.19C144.73 98.194 131.961 28.5566 125.323 55.109C118.685 81.6614 112.641 9.38489 107.592 7.51515C96.768 3.50724 101.534 24.6266 90.71 41.1592C79.8862 57.6918 75.6303 36.5724 72.3832 32.5645C69.136 28.5566 61.4857 57.1908 50.6618 67.7115Z" stroke="#E200E7" stroke-width="4" stroke-linecap="round" stroke-linejoin="round"/>
</svg>
