<svg width="50" height="50" viewBox="0 0 50 50" fill="none" xmlns="http://www.w3.org/2000/svg">
<rect width="50" height="50" rx="25" fill="#F2F2F2"/>
<path d="M25.0005 17.561C23.9109 16.5591 22.4847 16.003 21.0045 16.003C20.221 16.0038 19.4454 16.1596 18.7224 16.4613C17.9994 16.763 17.3431 17.2047 16.7915 17.761C14.4385 20.124 14.4395 23.82 16.7935 26.173L24.1255 33.505C24.2955 33.804 24.6235 33.997 25.0005 33.997C25.1553 33.9955 25.3076 33.9577 25.4451 33.8867C25.5827 33.8156 25.7016 33.7133 25.7925 33.588L33.2075 26.173C35.5615 23.819 35.5615 20.124 33.2055 17.757C32.6541 17.2017 31.9984 16.7609 31.276 16.4599C30.5537 16.1589 29.779 16.0036 28.9965 16.003C27.5163 16.0032 26.0902 16.5593 25.0005 17.561ZM31.7915 19.171C33.3545 20.742 33.3555 23.196 31.7935 24.759L25.0005 31.552L18.2075 24.759C16.6455 23.196 16.6465 20.742 18.2055 19.175C18.9655 18.419 19.9595 18.003 21.0045 18.003C22.0495 18.003 23.0395 18.419 23.7935 19.173L24.2935 19.673C24.3863 19.7659 24.4965 19.8397 24.6178 19.89C24.7391 19.9403 24.8691 19.9662 25.0005 19.9662C25.1318 19.9662 25.2618 19.9403 25.3832 19.89C25.5045 19.8397 25.6147 19.7659 25.7075 19.673L26.2075 19.173C27.7195 17.664 30.2815 17.668 31.7915 19.171Z" fill="black"/>
</svg>
