<svg width="37" height="38" viewBox="0 0 37 38" fill="none" xmlns="http://www.w3.org/2000/svg">
<path d="M25.5038 12.8765C25.4683 15.1936 24.6975 18.3309 21.0838 19.5473C22.2154 16.8555 22.3881 14.2794 21.5864 11.8713C20.515 8.63843 16.9398 6.11318 14.561 4.73802C13.7486 4.26627 12.7064 4.8521 12.7218 5.79098C12.7527 7.50531 12.2316 10.0105 9.70171 12.5404C6.33163 15.9074 4.625 19.3869 4.625 22.8804C4.625 27.2664 7.70833 32.875 13.875 32.875C7.64513 26.6451 12.3333 21.3387 12.3333 21.3387C13.6376 30.4561 20.0232 32.875 23.125 32.875C25.7628 32.875 30.8333 30.9479 30.8333 22.9343C30.8333 18.1043 28.7798 14.4382 27.1565 12.2984C26.6215 11.5923 25.5161 11.9931 25.5038 12.8765Z" fill="black"/>
</svg>
