<svg width="31" height="31" viewBox="0 0 31 31" fill="none" xmlns="http://www.w3.org/2000/svg">
<path d="M26.1025 9.4325C24.9754 7.47915 23.3532 5.85744 21.3995 4.73083C19.4194 3.57737 17.2585 3 14.9167 3C12.5749 3 10.4139 3.57737 8.4325 4.73083C6.45238 5.88429 4.88429 7.45238 3.73083 9.4325C2.57737 11.4126 2 13.5749 2 15.9167C2 18.2585 2.57608 20.4207 3.73083 22.4008C4.85758 24.3545 6.47983 25.9763 8.43379 27.1025C10.4139 28.256 12.5749 28.8333 14.9167 28.8333C17.2585 28.8333 19.4194 28.256 21.4008 27.1025C23.3545 25.9759 24.9767 24.3542 26.1038 22.4008C27.2572 20.4207 27.8333 18.2585 27.8333 15.9167C27.8333 13.5749 27.2573 11.4126 26.1025 9.4325ZM14.9167 5.14417C17.5 5.14417 19.7888 5.97083 21.7883 7.62288C20.6 9.13929 18.8356 10.387 16.4925 11.3687C15.1983 9.02692 13.7955 7.07133 12.2804 5.50454C13.1391 5.26711 14.0257 5.14591 14.9167 5.14417ZM6.53375 9.2C7.47827 8.00059 8.67335 7.02196 10.0355 6.3325C11.601 7.88379 13.0386 9.82 14.3496 12.145C11.7663 12.92 9.03571 13.3075 6.15917 13.3075C5.41904 13.3075 4.85975 13.2907 4.48 13.2558C4.87586 11.7761 5.57527 10.3949 6.53375 9.2ZM4.14417 15.9167C4.14417 15.8469 4.14804 15.7617 4.15708 15.6583C4.16613 15.555 4.17 15.4698 4.17 15.4C4.49808 15.4181 4.99796 15.4258 5.66963 15.4258C9.11321 15.4258 12.3165 14.9518 15.2783 14.005C15.5199 14.4868 15.7705 15.0293 16.0275 15.6325C14.3225 16.011 12.5736 16.9319 10.782 18.3967C8.9905 19.8614 7.68333 21.4024 6.85667 23.0208C5.04833 20.971 4.14417 18.6033 4.14417 15.9167ZM14.9167 26.6892C12.4703 26.6892 10.2744 25.931 8.32788 24.4171C9.10417 22.8839 10.2964 21.4179 11.9071 20.0242C13.5165 18.6292 15.1143 17.7599 16.6992 17.415C17.6989 20.1779 18.3751 23.0473 18.7142 25.9658C17.5037 26.4388 16.2163 26.6841 14.9167 26.6892ZM24.0617 21.5742C23.2162 22.9363 22.0778 24.0928 20.7292 24.9596C20.4192 22.273 19.825 19.6548 18.948 17.105C20.1518 17.0198 21.2278 16.9758 22.1771 16.9758C23.2092 16.9758 24.3549 17.0198 25.6117 17.105C25.4431 18.6935 24.9128 20.2223 24.0617 21.5742ZM22.46 15.1158C20.9617 15.1158 19.5757 15.1765 18.3008 15.2967C18.0308 14.5898 17.7379 13.892 17.4225 13.2042C20.0911 12.0339 21.9847 10.6131 23.1045 8.94167C24.6545 10.7681 25.4993 12.8515 25.6362 15.1933C24.5874 15.1417 23.5282 15.1158 22.46 15.1158Z" fill="black"/>
</svg>
