<svg width="14" height="14" viewBox="0 0 14 14" fill="none" xmlns="http://www.w3.org/2000/svg">
<path d="M6.99996 1.16669C3.78346 1.16669 1.16663 3.78352 1.16663 7.00002C1.16663 10.2165 3.78346 12.8334 6.99996 12.8334C10.2165 12.8334 12.8333 10.2165 12.8333 7.00002C12.8333 3.78352 10.2165 1.16669 6.99996 1.16669ZM6.99996 11.6667C4.42688 11.6667 2.33329 9.5731 2.33329 7.00002C2.33329 4.42694 4.42688 2.33335 6.99996 2.33335C9.57304 2.33335 11.6666 4.42694 11.6666 7.00002C11.6666 9.5731 9.57304 11.6667 6.99996 11.6667Z" fill="#777777"/>
<path d="M7.58329 4.08331H6.41663V7.24148L8.33754 9.1624L9.16237 8.33756L7.58329 6.75848V4.08331Z" fill="#777777"/>
</svg>
