<svg width="15" height="16" viewBox="0 0 15 16" fill="none" xmlns="http://www.w3.org/2000/svg">
<path d="M13.7169 6.23688C13.6776 6.12118 13.6053 6.0195 13.5089 5.94442C13.4125 5.86934 13.2962 5.82413 13.1744 5.81438L9.61127 5.53126L8.06939 2.11813C8.02029 2.0082 7.94042 1.91484 7.83942 1.8493C7.73842 1.78376 7.62062 1.74885 7.50022 1.74878C7.37982 1.74871 7.26198 1.78349 7.16091 1.84892C7.05984 1.91435 6.97987 2.00763 6.93064 2.11751L5.38877 5.53126L1.82564 5.81438C1.70593 5.82387 1.59148 5.86764 1.49599 5.94047C1.4005 6.01329 1.32801 6.11208 1.2872 6.22503C1.24639 6.33797 1.23898 6.46028 1.26586 6.57732C1.29274 6.69437 1.35277 6.80119 1.43877 6.88501L4.07189 9.45188L3.14064 13.4844C3.11236 13.6064 3.12143 13.7342 3.16665 13.851C3.21188 13.9679 3.29118 14.0684 3.39427 14.1397C3.49735 14.2109 3.61947 14.2495 3.74476 14.2504C3.87005 14.2514 3.99273 14.2146 4.09689 14.145L7.50002 11.8763L10.9031 14.145C11.0096 14.2157 11.1352 14.2521 11.2629 14.2493C11.3907 14.2465 11.5145 14.2046 11.6178 14.1293C11.721 14.0541 11.7987 13.949 11.8405 13.8282C11.8822 13.7074 11.886 13.5767 11.8513 13.4538L10.7081 9.45376L13.5431 6.90251C13.7288 6.73501 13.7969 6.47376 13.7169 6.23688Z" fill="#FFE600"/>
</svg>
