<svg width="18" height="20" viewBox="0 0 18 20" fill="none" xmlns="http://www.w3.org/2000/svg">
<g clip-path="url(#clip0_304_80)">
<path d="M17.946 6.30499C17.9359 5.54761 17.7941 4.79776 17.527 4.08899C17.2953 3.49114 16.9415 2.94819 16.4881 2.49482C16.0348 2.04145 15.4918 1.68764 14.894 1.45599C14.1943 1.19334 13.4551 1.05133 12.708 1.03599C11.746 0.992988 11.441 0.980988 8.99897 0.980988C6.55697 0.980988 6.24397 0.980988 5.28897 1.03599C4.54213 1.05144 3.80332 1.19346 3.10397 1.45599C2.50603 1.68748 1.96299 2.04123 1.5096 2.49462C1.05622 2.94801 0.702461 3.49105 0.470972 4.08899C0.207803 4.78812 0.0660948 5.5271 0.0519717 6.27399C0.00897167 7.23699 -0.00402832 7.54199 -0.00402832 9.98399C-0.00402832 12.426 -0.00402833 12.738 0.0519717 13.694C0.0669717 14.442 0.207972 15.18 0.470972 15.881C0.702849 16.4787 1.05687 17.0216 1.51041 17.4748C1.96395 17.928 2.50704 18.2816 3.10497 18.513C3.80241 18.7862 4.54134 18.9384 5.28997 18.963C6.25297 19.006 6.55797 19.019 8.99997 19.019C11.442 19.019 11.755 19.019 12.71 18.963C13.4571 18.9483 14.1963 18.8066 14.896 18.544C15.4937 18.3121 16.0365 17.9582 16.4898 17.5048C16.9431 17.0515 17.2971 16.5087 17.529 15.911C17.792 15.211 17.933 14.473 17.948 13.724C17.991 12.762 18.004 12.457 18.004 10.014C18.002 7.57199 18.002 7.26199 17.946 6.30499ZM8.99297 14.602C6.43897 14.602 4.36997 12.533 4.36997 9.97899C4.36997 7.42499 6.43897 5.35599 8.99297 5.35599C10.2191 5.35599 11.3949 5.84305 12.2619 6.71003C13.1289 7.57701 13.616 8.75289 13.616 9.97899C13.616 11.2051 13.1289 12.381 12.2619 13.2479C11.3949 14.1149 10.2191 14.602 8.99297 14.602ZM13.8 6.26299C13.6584 6.26312 13.5181 6.23533 13.3873 6.1812C13.2564 6.12707 13.1375 6.04767 13.0374 5.94754C12.9373 5.84741 12.8579 5.72852 12.8038 5.59768C12.7496 5.46683 12.7218 5.32659 12.722 5.18499C12.722 5.04349 12.7498 4.90337 12.804 4.77265C12.8581 4.64192 12.9375 4.52314 13.0376 4.42308C13.1376 4.32302 13.2564 4.24366 13.3871 4.18951C13.5179 4.13536 13.658 4.10749 13.7995 4.10749C13.941 4.10749 14.0811 4.13536 14.2118 4.18951C14.3425 4.24366 14.4613 4.32302 14.5614 4.42308C14.6614 4.52314 14.7408 4.64192 14.795 4.77265C14.8491 4.90337 14.877 5.04349 14.877 5.18499C14.877 5.78099 14.395 6.26299 13.8 6.26299Z" fill="black"/>
<path d="M8.99299 12.982C10.6515 12.982 11.996 11.6375 11.996 9.97898C11.996 8.32047 10.6515 6.97598 8.99299 6.97598C7.33448 6.97598 5.98999 8.32047 5.98999 9.97898C5.98999 11.6375 7.33448 12.982 8.99299 12.982Z" fill="black"/>
</g>
<defs>
<clipPath id="clip0_304_80">
<rect width="18.008" height="18.038" fill="white" transform="translate(-0.00402832 0.980988)"/>
</clipPath>
</defs>
</svg>
