<svg width="40" height="40" viewBox="0 0 40 40" fill="none" xmlns="http://www.w3.org/2000/svg">
<rect width="40" height="40" rx="20" fill="#F2F2F2"/>
<path d="M28 11H12C11.7348 11 11.4804 11.1054 11.2929 11.2929C11.1054 11.4804 11 11.7348 11 12V28C11 28.2652 11.1054 28.5196 11.2929 28.7071C11.4804 28.8946 11.7348 29 12 29H20.615V22.04H18.277V19.315H20.615V17.315C20.615 14.99 22.035 13.723 24.115 13.723C24.814 13.721 25.514 13.757 26.21 13.83V16.25H24.775C23.647 16.25 23.427 16.788 23.427 17.575V19.31H26.124L25.774 22.035H23.426V29H28C28.2652 29 28.5196 28.8946 28.7071 28.7071C28.8946 28.5196 29 28.2652 29 28V12C29 11.7348 28.8946 11.4804 28.7071 11.2929C28.5196 11.1054 28.2652 11 28 11Z" fill="black"/>
</svg>
