<svg width="41" height="42" viewBox="0 0 41 42" fill="none" xmlns="http://www.w3.org/2000/svg">
<path d="M20.5 13.3125C21.9152 13.3125 23.0625 12.1652 23.0625 10.75C23.0625 9.33477 21.9152 8.1875 20.5 8.1875C19.0848 8.1875 17.9375 9.33477 17.9375 10.75C17.9375 12.1652 19.0848 13.3125 20.5 13.3125Z" fill="white"/>
<path d="M20.5 23.5625C21.9152 23.5625 23.0625 22.4152 23.0625 21C23.0625 19.5848 21.9152 18.4375 20.5 18.4375C19.0848 18.4375 17.9375 19.5848 17.9375 21C17.9375 22.4152 19.0848 23.5625 20.5 23.5625Z" fill="white"/>
<path d="M20.5 33.8125C21.9152 33.8125 23.0625 32.6652 23.0625 31.25C23.0625 29.8348 21.9152 28.6875 20.5 28.6875C19.0848 28.6875 17.9375 29.8348 17.9375 31.25C17.9375 32.6652 19.0848 33.8125 20.5 33.8125Z" fill="white"/>
</svg>
