<svg width="20" height="20" viewBox="0 0 20 20" fill="none" xmlns="http://www.w3.org/2000/svg">
<g clip-path="url(#clip0_2_635)">
<path d="M15 14.5H13.441L3.741 3.827C3.64724 3.72395 3.53298 3.64164 3.40555 3.58532C3.27811 3.52901 3.14032 3.49995 3.001 3.5H0V5.5H2.559L6.649 10L2.559 14.501H0V16.501H3.001C3.14032 16.501 3.27811 16.472 3.40555 16.4157C3.53298 16.3594 3.64724 16.277 3.741 16.174L8 11.487L12.259 16.173C12.3528 16.276 12.467 16.3584 12.5945 16.4147C12.7219 16.471 12.8597 16.5 12.999 16.5H15V19.5L20 15.5L15 11.5V14.5Z" fill="white"/>
<path d="M13.4406 5.5H14.9996V8.5L19.9996 4.562L14.9996 0.5V3.5H12.9986C12.8593 3.49995 12.7215 3.52901 12.5941 3.58532C12.4666 3.64164 12.3524 3.72395 12.2586 3.827L8.89062 7.534L10.3706 8.88L13.4406 5.5Z" fill="white"/>
</g>
<defs>
<clipPath id="clip0_2_635">
<rect width="20" height="19" fill="white" transform="translate(0 0.5)"/>
</clipPath>
</defs>
</svg>
