<svg width="20" height="19" viewBox="0 0 20 19" fill="none" xmlns="http://www.w3.org/2000/svg">
<path d="M17.7363 6.55172L12.7773 5.86705L10.5606 1.59761C10.5 1.48072 10.4004 1.38609 10.2773 1.32857C9.96876 1.18384 9.59375 1.30445 9.43946 1.59761L7.22266 5.86705L2.26368 6.55172C2.12696 6.57027 2.00196 6.6315 1.90626 6.72428C1.79056 6.83725 1.7268 6.98924 1.729 7.14684C1.7312 7.30445 1.79917 7.45478 1.91797 7.5648L5.50587 10.8879L4.65821 15.5804C4.63833 15.6896 4.65105 15.8019 4.69491 15.9045C4.73878 16.0071 4.81204 16.096 4.90639 16.1611C5.00074 16.2262 5.1124 16.2649 5.22872 16.2728C5.34503 16.2807 5.46134 16.2574 5.56446 16.2057L10 13.9903L14.4356 16.2057C14.5566 16.267 14.6973 16.2874 14.832 16.2651C15.1719 16.2094 15.4004 15.9033 15.3418 15.5804L14.4941 10.8879L18.082 7.5648C18.1797 7.47389 18.2441 7.35514 18.2637 7.22525C18.3164 6.90055 18.0781 6.59996 17.7363 6.55172Z" fill="#F8F8F8"/>
</svg>
