<svg width="96" height="97" viewBox="0 0 96 97" fill="none" xmlns="http://www.w3.org/2000/svg">
<g filter="url(#filter0_d_63_728)">
<rect x="21" y="18.9597" width="54" height="54" rx="20" fill="black"/>
<path d="M57.9919 40.3534C57.6661 39.5914 57.1963 38.901 56.6088 38.3206C56.0208 37.7386 55.3276 37.276 54.5669 36.9581C53.778 36.6271 52.9319 36.4577 52.0777 36.4597C50.8793 36.4597 49.7101 36.7912 48.694 37.4172C48.4509 37.5669 48.22 37.7314 48.0012 37.9106C47.7824 37.7314 47.5515 37.5669 47.3084 37.4172C46.2923 36.7912 45.1231 36.4597 43.9247 36.4597C43.0617 36.4597 42.2255 36.6267 41.4355 36.9581C40.6722 37.2773 39.9843 37.7363 39.3936 38.3206C38.8053 38.9003 38.3354 39.591 38.0105 40.3534C37.6726 41.1464 37.5 41.9884 37.5 42.8551C37.5 43.6726 37.6653 44.5245 37.9935 45.3911C38.2681 46.1153 38.6619 46.8665 39.1651 47.6251C39.9624 48.8256 41.0587 50.0777 42.42 51.347C44.6758 53.4509 46.9098 54.9043 47.0046 54.9632L47.5807 55.3364C47.8359 55.5008 48.1641 55.5008 48.4193 55.3364L48.9954 54.9632C49.0902 54.9018 51.3217 53.4509 53.58 51.347C54.9412 50.0777 56.0375 48.8256 56.8349 47.6251C57.338 46.8665 57.7343 46.1153 58.0065 45.3911C58.3347 44.5245 58.5 43.6726 58.5 42.8551C58.5024 41.9884 58.3298 41.1464 57.9919 40.3534Z" fill="white"/>
</g>
<defs>
<filter id="filter0_d_63_728" x="0" y="0.959717" width="96" height="96" filterUnits="userSpaceOnUse" color-interpolation-filters="sRGB">
<feFlood flood-opacity="0" result="BackgroundImageFix"/>
<feColorMatrix in="SourceAlpha" type="matrix" values="0 0 0 0 0 0 0 0 0 0 0 0 0 0 0 0 0 0 127 0" result="hardAlpha"/>
<feMorphology radius="5" operator="erode" in="SourceAlpha" result="effect1_dropShadow_63_728"/>
<feOffset dy="3"/>
<feGaussianBlur stdDeviation="13"/>
<feComposite in2="hardAlpha" operator="out"/>
<feColorMatrix type="matrix" values="0 0 0 0 0 0 0 0 0 0 0 0 0 0 0 0 0 0 0.25 0"/>
<feBlend mode="normal" in2="BackgroundImageFix" result="effect1_dropShadow_63_728"/>
<feBlend mode="normal" in="SourceGraphic" in2="effect1_dropShadow_63_728" result="shape"/>
</filter>
</defs>
</svg>
