<svg width="24" height="24" viewBox="0 0 24 24" fill="none" xmlns="http://www.w3.org/2000/svg">
<path d="M18.5479 3.36035C19.3781 3.35511 20.2135 3.38166 20.4023 3.41309C20.5903 3.43929 20.9196 3.52331 21.1338 3.59668C21.3479 3.67006 21.6878 3.82705 21.8916 3.94238C22.1006 4.0682 22.4458 4.35151 22.707 4.6084C22.9629 4.87036 23.2446 5.21609 23.3701 5.42578C23.4851 5.625 23.6417 5.97158 23.7148 6.18652C23.7879 6.40138 23.8723 6.73118 23.8984 6.91992C23.935 7.14011 23.9561 8.9337 23.9561 12.0059C23.9561 15.0774 23.935 16.8702 23.8984 17.0908C23.8723 17.2796 23.788 17.6102 23.7148 17.8252C23.6416 18.0402 23.485 18.3806 23.3701 18.585C23.2447 18.7947 22.963 19.1412 22.707 19.4033C22.4458 19.6602 22.1006 19.9426 21.8916 20.0684C21.6878 20.1837 21.348 20.3416 21.1338 20.415C20.9196 20.4884 20.5903 20.5724 20.4023 20.5986C20.1973 20.6353 19.0689 20.6562 17.5967 20.6562C16.2384 20.6563 15.126 20.672 15.126 20.6982C15.1283 20.7078 15.1861 20.771 15.2832 20.874C15.1853 20.7691 15.1317 20.708 15.1416 20.708C15.1525 20.7087 15.2612 20.8111 15.4297 20.9756C15.2731 20.8113 15.1818 20.7091 15.1934 20.708C15.2143 20.708 15.6481 21.1333 16.1602 21.6523C16.6669 22.1713 17.0743 22.5957 17.0586 22.5957C17.0449 22.5932 16.8177 22.3725 16.499 22.0566C16.8064 22.3744 17.0169 22.5945 17.0068 22.5957C16.9919 22.5957 16.5967 22.2088 16.1113 21.7227C16.1225 21.7339 16.1333 21.7456 16.1445 21.7568C16.8708 22.4855 17.1789 22.8318 17.2207 22.9629C17.2572 23.0729 17.2624 23.2298 17.2363 23.3555C17.2102 23.4917 17.1318 23.6333 17.0117 23.7539C16.9072 23.8535 16.7399 23.9585 16.6406 23.9795C16.5414 24.0056 16.3746 24.0062 16.2754 23.9854C16.1423 23.9623 15.8689 23.7154 14.7773 22.6328C15.4434 23.3111 15.9217 23.8018 15.9092 23.8018C15.894 23.798 15.4799 23.3892 14.8945 22.8057C15.4668 23.3893 15.8655 23.7983 15.8574 23.8018C15.8417 23.8018 15.0787 23.0466 14.1592 22.124C13.2396 21.2013 12.5032 20.4463 12.5293 20.4463C12.5426 20.4498 12.7185 20.6187 12.9961 20.8926C12.6962 20.5844 12.5162 20.3936 12.5293 20.3936C12.5418 20.3959 12.7309 20.5792 13.0293 20.874C12.651 20.484 12.4016 20.2169 12.3779 20.1738C12.3361 20.0899 12.3047 19.9424 12.3047 19.8428C12.3048 19.7432 12.3411 19.5812 12.3828 19.4922C12.4246 19.3978 13.2551 18.5216 14.2217 17.5518C15.1931 16.5823 16.05 15.7602 16.1289 15.7334C16.2125 15.7019 16.3587 15.6758 16.458 15.6758C16.5573 15.6758 16.7039 15.7071 16.7822 15.749C16.8658 15.791 16.9803 15.8802 17.043 15.9482C17.1056 16.0111 17.1844 16.1417 17.2158 16.2256C17.2524 16.32 17.2631 16.4776 17.2422 16.6191C17.2056 16.8393 17.142 16.9178 16.165 17.9033C15.7316 18.3423 15.356 18.7299 15.2012 18.9014L16.0664 18.0244V18.0186C16.5967 17.4812 17.0337 17.0423 17.043 17.0381C17.0534 17.0381 17.0585 17.0436 17.0586 17.0488C17.0586 17.0591 16.6376 17.4817 15.1914 18.9131C15.1493 18.9601 15.126 18.9883 15.126 18.9941C15.1367 19.015 16.2294 19.0303 17.5654 19.0303C19.5456 19.0303 20.0737 19.0151 20.335 18.9521C20.5178 18.9102 20.8052 18.7997 20.9775 18.7158C21.1499 18.6319 21.4214 18.4277 21.5781 18.2705C21.7348 18.1133 21.9388 17.841 22.0225 17.668C22.106 17.4951 22.216 17.2066 22.2578 17.0283C22.3205 16.7505 22.3359 15.9742 22.3359 12.0059C22.3359 8.03868 22.3205 7.26152 22.2578 6.9834C22.216 6.8052 22.1057 6.51163 22.0117 6.32812C21.9229 6.14996 21.7303 5.88219 21.584 5.73535C21.4378 5.58865 21.1711 5.39487 20.9883 5.30566C20.8107 5.21134 20.5178 5.10155 20.335 5.05957C20.0894 5.00191 19.6453 4.98047 18.4961 4.98047H18.4883C17.0277 4.97525 16.9748 4.97541 16.7871 4.86035C16.6776 4.79753 16.542 4.66109 16.4844 4.56152C16.4322 4.46203 16.3852 4.28882 16.3799 4.17871C16.3799 4.07391 16.4114 3.9218 16.4531 3.83789C16.4949 3.75932 16.5835 3.644 16.6514 3.58105C16.7141 3.51814 16.8292 3.44454 16.9023 3.41309C16.9761 3.38166 17.6706 3.36035 18.5479 3.36035ZM5.48633 20.6768C6.23324 20.6768 6.52525 20.6871 6.13867 20.6924C5.75202 20.7029 5.14065 20.7029 4.78027 20.6924C4.4204 20.6871 4.73946 20.6768 5.48633 20.6768ZM17.5029 20.6816C18.7984 20.6816 19.3367 20.6871 18.7051 20.6924C18.0729 20.7029 17.0118 20.7029 16.3535 20.6924C15.6952 20.6871 16.2073 20.6816 17.5029 20.6816ZM7.51367 0C7.59197 9.92076e-05 7.71668 0.026605 7.79492 0.0527344C7.87852 0.0841894 8.74594 0.917734 9.7334 1.90332C10.7209 2.88893 11.5627 3.75889 11.6045 3.84277C11.6463 3.92143 11.6777 4.06839 11.6777 4.16797C11.6777 4.26751 11.6514 4.41417 11.6201 4.49805C11.594 4.57669 10.7732 5.43699 9.80664 6.41211C8.84039 7.38165 7.96802 8.21458 7.87891 8.25684C7.78486 8.29878 7.62271 8.33594 7.52344 8.33594C7.42439 8.33589 7.27863 8.30447 7.2002 8.2627C7.11663 8.22601 6.99113 8.12585 6.91797 8.04199C6.84492 7.95822 6.76614 7.80665 6.74512 7.70703C6.72423 7.60747 6.71937 7.43947 6.74023 7.33984C6.77158 7.19305 6.97522 6.95148 7.81641 6.10742C8.19009 5.72902 8.51977 5.38786 8.70312 5.19141C8.46849 5.43601 7.93366 5.97595 6.89648 6.99902L7.86328 6.00293C8.347 5.50804 8.75936 5.09738 8.84277 5.0332C8.84966 5.02423 8.85611 5.02013 8.85645 5.01758C8.85645 4.99661 7.75878 4.98047 6.41602 4.98047C4.43583 4.98047 3.90772 4.99666 3.64648 5.05957C3.46366 5.10158 3.17164 5.21141 2.99414 5.30566C2.81134 5.39476 2.54476 5.58858 2.39844 5.73535C2.25214 5.88214 2.05855 6.14988 1.96973 6.32812C1.87571 6.51163 1.76639 6.80523 1.72461 6.9834C1.66194 7.26139 1.64551 8.03796 1.64551 12.0059C1.64551 15.9736 1.66194 16.7497 1.72461 17.0225C1.76639 17.2059 1.87571 17.4995 1.96973 17.6777C2.05854 17.8612 2.25215 18.1286 2.39844 18.2754C2.54473 18.4222 2.8061 18.6163 2.97852 18.7002C3.15091 18.7893 3.38609 18.8887 3.50098 18.9307C3.60812 18.9624 3.98129 18.9881 4.65918 19.0078C4.7463 19.0037 5.04005 18.999 5.48633 18.999C6.2332 18.999 6.52524 19.0094 6.13867 19.0146C5.85207 19.0224 5.44224 19.0213 5.10254 19.0176C5.19952 19.0197 5.30103 19.0235 5.40723 19.0254C6.99556 19.0568 7.11645 19.0625 7.24707 19.1621C7.32543 19.22 7.44034 19.3614 7.50293 19.4766C7.59161 19.6389 7.61204 19.7385 7.58594 19.9219C7.57025 20.0529 7.51351 20.2157 7.45605 20.2891C7.39869 20.3623 7.28897 20.4667 7.21582 20.5244C7.07998 20.624 6.97495 20.6298 5.52246 20.6455C4.57737 20.656 3.83059 20.6402 3.60547 20.6035C3.40701 20.5721 3.06189 20.4884 2.84766 20.415C2.63344 20.3416 2.28839 20.1837 2.08984 20.0684C1.88084 19.9425 1.53558 19.6601 1.27441 19.4033C1.0184 19.1412 0.736723 18.7947 0.611328 18.585C0.496451 18.3806 0.339801 18.0402 0.266602 17.8252C0.193456 17.6103 0.11011 17.2796 0.0839844 17.0908C0.0474122 16.8706 0.0263686 15.0778 0.0263672 12.0059C0.0263672 8.9337 0.047411 7.14011 0.0839844 6.91992C0.110155 6.73119 0.193516 6.40134 0.266602 6.18652C0.339748 5.97158 0.496041 5.625 0.616211 5.42578C0.736404 5.22655 0.998411 4.88581 1.20215 4.6709C1.40073 4.46123 1.73517 4.17787 1.93359 4.04688C2.1321 3.91069 2.47636 3.73816 2.69043 3.6543C2.90465 3.57042 3.26039 3.47065 3.47461 3.42871C3.76728 3.3763 4.50972 3.36071 6.36426 3.35547C7.73293 3.35546 8.85645 3.33933 8.85645 3.31836C8.85609 3.31325 8.83902 3.29432 8.81055 3.26172C8.72535 3.18365 8.53146 2.99614 8.28418 2.75098C8.59881 3.07612 8.81484 3.3024 8.80371 3.30273C8.78804 3.30273 8.35417 2.87839 7.83691 2.35938C7.31966 1.84036 6.91235 1.41504 6.93848 1.41504C6.94843 1.41519 7.04907 1.50927 7.20605 1.66211C7.02976 1.478 6.92548 1.36369 6.93848 1.36328C6.94968 1.36328 7.08219 1.48826 7.28418 1.68652C6.95021 1.33476 6.78988 1.13965 6.76074 1.04883C6.72941 0.949276 6.71353 0.781271 6.73438 0.681641C6.75005 0.582031 6.82402 0.424702 6.88672 0.34082C6.95469 0.256957 7.09026 0.141874 7.18945 0.0947266C7.28872 0.0423006 7.43008 0 7.51367 0ZM15.8418 15.8848C15.8521 15.8848 15.8574 15.8903 15.8574 15.8955C15.857 15.9064 15.099 16.6669 12.4873 19.2666L14.1592 17.5781V17.5732C15.0787 16.6453 15.8366 15.8848 15.8418 15.8848ZM17.4766 19.0049C18.7828 19.0049 19.3107 19.0094 18.6523 19.0146C17.9941 19.0251 16.9233 19.0251 16.2754 19.0146C15.6276 19.0094 16.1706 19.0049 17.4766 19.0049ZM0.0107422 9.72461C0.0211913 10.9618 0.0211905 13.0068 0.0107422 14.2598C0.0055176 15.5127 3.74038e-07 14.5011 0 12.0059C0 9.51069 0.00551805 8.48281 0.0107422 9.72461ZM1.68262 9.72461C1.69307 10.9618 1.69307 13.0068 1.68262 14.2598C1.67739 15.5127 1.67188 14.5011 1.67188 12.0059C1.67188 9.51067 1.67739 8.48279 1.68262 9.72461ZM22.3203 9.72461C22.3308 10.9618 22.3308 13.0068 22.3203 14.2598C22.3151 15.5127 22.3096 14.5011 22.3096 12.0059C22.3096 9.51067 22.3151 8.48279 22.3203 9.72461ZM23.9922 9.72461C24.0026 10.9618 24.0026 13.0068 23.9922 14.2598C23.987 15.5127 23.9814 14.5011 23.9814 12.0059C23.9814 9.51069 23.987 8.48282 23.9922 9.72461ZM6.47852 5.00684C7.77406 5.00684 8.3124 5.01234 7.68066 5.01758C7.04847 5.02806 5.99265 5.02806 5.3291 5.01758C4.66575 5.01234 5.18296 5.00684 6.47852 5.00684ZM18.4961 5.00195C19.2429 5.00196 19.535 5.01234 19.1484 5.01758C18.7618 5.02805 18.1504 5.02806 17.79 5.01758C17.4299 5.01233 17.7491 5.00195 18.4961 5.00195ZM8.14062 0.209961C8.17136 0.220115 8.92976 0.971263 9.83789 1.8877C10.7435 2.80687 11.4787 3.55971 11.4688 3.56543C11.4583 3.56543 11.1169 3.22952 10.6182 2.7334C10.9402 3.06591 11.1619 3.29793 11.1553 3.30273C11.1396 3.30273 10.695 2.86775 10.1621 2.33301C9.63069 1.79977 9.21373 1.3657 9.2373 1.36328C9.24312 1.36328 9.28169 1.3969 9.3457 1.45703C8.6355 0.740277 8.11869 0.209961 8.14062 0.209961ZM6.45215 3.3291C7.75834 3.3291 8.29148 3.3346 7.62793 3.33984C6.96439 3.35032 5.89878 3.35033 5.25098 3.33984C4.60318 3.3346 5.14628 3.3291 6.45215 3.3291ZM18.5215 3.32422C19.2842 3.32422 19.5876 3.3346 19.2012 3.33984C18.8145 3.35033 18.1874 3.35033 17.8164 3.33984C17.4456 3.3346 17.759 3.32422 18.5215 3.32422Z" fill="white"/>
</svg>
