<svg width="18" height="18" viewBox="0 0 18 18" fill="none" xmlns="http://www.w3.org/2000/svg">
<path d="M9 2.86328C12.7655 2.86328 15.8182 5.91616 15.8184 9.68164C15.8184 13.4472 12.7656 16.5 9 16.5C5.23443 16.5 2.18164 13.4472 2.18164 9.68164C2.18176 5.91617 5.2345 2.86329 9 2.86328ZM9 4.22754C5.98762 4.22755 3.54602 6.66929 3.5459 9.68164C3.5459 12.6941 5.98755 15.1367 9 15.1367C12.0125 15.1367 14.4541 12.6941 14.4541 9.68164C14.454 6.66928 12.0124 4.22754 9 4.22754ZM9 5.59082C9.37646 5.59083 9.68149 5.89604 9.68164 6.27246V9.31738L11.4238 10.4785C11.7369 10.6874 11.8211 11.1106 11.6123 11.4238C11.4034 11.7369 10.9802 11.822 10.667 11.6133L8.9248 10.4521C8.73814 10.3276 8.58533 10.1578 8.47949 9.95996C8.37377 9.76222 8.3184 9.5416 8.31836 9.31738V6.27246C8.31851 5.89603 8.62353 5.59082 9 5.59082ZM3.74512 1.69922C4.01125 1.43332 4.44276 1.43347 4.70898 1.69922C4.97525 1.96549 4.97525 2.3978 4.70898 2.66406L2.66406 4.70898C2.3978 4.97525 1.96549 4.97525 1.69922 4.70898C1.43347 4.44276 1.43332 4.01125 1.69922 3.74512L3.74512 1.69922ZM13.291 1.69922C13.5572 1.43347 13.9887 1.43332 14.2549 1.69922L16.3008 3.74512C16.5667 4.01125 16.5665 4.44276 16.3008 4.70898C16.0345 4.97525 15.6022 4.97525 15.3359 4.70898L13.291 2.66406C13.0247 2.3978 13.0247 1.96549 13.291 1.69922Z" fill="white"/>
</svg>
