<svg width="18" height="18" viewBox="0 0 18 18" fill="none" xmlns="http://www.w3.org/2000/svg">
<path d="M4.00049 11.1001C4.49736 11.1003 4.8999 11.5036 4.8999 12.0005V14.0005C4.89969 14.4972 4.49723 14.8997 4.00049 14.8999C3.50356 14.8999 3.10031 14.4974 3.1001 14.0005V12.0005C3.1001 11.5034 3.50343 11.1001 4.00049 11.1001ZM7.30029 8.3999C7.79717 8.40011 8.19971 8.80337 8.19971 9.30029V13.9995C8.19971 14.4964 7.79717 14.8997 7.30029 14.8999C6.80324 14.8999 6.3999 14.4966 6.3999 13.9995V9.30029C6.3999 8.80324 6.80324 8.3999 7.30029 8.3999ZM10.6997 5.80029C11.1966 5.80029 11.5999 6.20281 11.6001 6.69971V14.0005C11.5999 14.4973 11.1966 14.8999 10.6997 14.8999C10.203 14.8997 9.80053 14.4972 9.80029 14.0005V6.69971C9.80048 6.20292 10.2029 5.80048 10.6997 5.80029ZM14.0005 3.1001C14.4974 3.10031 14.8999 3.50356 14.8999 4.00049V14.0005C14.8997 14.4972 14.4972 14.8997 14.0005 14.8999C13.5036 14.8999 13.1003 14.4974 13.1001 14.0005V4.00049C13.1001 3.50343 13.5034 3.1001 14.0005 3.1001Z" fill="white"/>
</svg>
