<svg width="18" height="18" viewBox="0 0 18 18" fill="none" xmlns="http://www.w3.org/2000/svg">
<path d="M8.99976 12.2C9.55204 12.2 9.99976 12.6477 9.99976 13.2C9.99976 13.7522 9.55204 14.2 8.99976 14.2C8.44758 14.1998 7.99976 13.7522 7.99976 13.2C7.99976 12.6477 8.44758 12.2001 8.99976 12.2ZM8.90894 8.94995C10.273 8.95008 11.4976 9.55215 12.3298 10.5007C12.6212 10.8328 12.5887 11.3382 12.2566 11.6296C11.9245 11.9209 11.419 11.8875 11.1277 11.5554C10.5861 10.9381 9.79314 10.5496 8.90894 10.5496H8.90796C8.48828 10.5491 8.07344 10.6391 7.69116 10.8123C7.30883 10.9855 6.96755 11.2385 6.69116 11.5544C6.40027 11.887 5.89481 11.9205 5.56226 11.6296C5.22995 11.3388 5.19636 10.8342 5.48706 10.5017C5.91375 10.0139 6.43975 9.6228 7.03003 9.35522C7.62018 9.08777 8.26102 8.94935 8.90894 8.94995ZM8.90894 5.94995C9.92792 5.94882 10.9366 6.1544 11.8738 6.55444C12.8114 6.95472 13.6579 7.54192 14.3621 8.27905C14.6672 8.59853 14.6561 9.10473 14.3367 9.40991C14.0172 9.71504 13.511 9.70298 13.2058 9.38354C12.6512 8.80303 11.9842 8.34135 11.2458 8.02612C10.5075 7.71091 9.71274 7.54856 8.90991 7.54956H8.90796C8.10512 7.54856 7.31039 7.7109 6.57202 8.02612C5.83365 8.34135 5.16665 8.80303 4.61206 9.38354C4.30687 9.70297 3.80067 9.71505 3.4812 9.40991C3.16176 9.10474 3.15069 8.59853 3.45581 8.27905C4.16002 7.54192 5.00651 6.95472 5.94409 6.55444C6.88097 6.15452 7.8893 5.94895 8.90796 5.94995L8.90894 6.74976V5.94995ZM9.45386 2.96362C12.1582 3.10129 14.5945 4.25795 16.3845 6.05542C16.6963 6.3685 16.6956 6.8755 16.3826 7.18726C16.0695 7.499 15.5625 7.4974 15.2507 7.18433C13.6293 5.55615 11.3875 4.54956 8.90894 4.54956H8.90796C7.72963 4.54803 6.56254 4.78016 5.47437 5.23218C4.3861 5.68428 3.39759 6.34823 2.56714 7.18433C2.25583 7.49733 1.74965 7.49921 1.43628 7.18823C1.1228 6.87687 1.12101 6.36987 1.43237 6.0564C2.41176 5.07036 3.57669 4.28783 4.86011 3.75464C6.14325 3.22158 7.51948 2.94828 8.90894 2.94995V3.74976L8.90991 2.94995L9.45386 2.96362Z" fill="white"/>
</svg>
