<svg width="18" height="18" viewBox="0 0 18 18" fill="none" xmlns="http://www.w3.org/2000/svg">
<path fill-rule="evenodd" clip-rule="evenodd" d="M8.69902 2.06944C8.92705 1.95803 9.19992 1.98207 9.40387 2.13155L13.7308 5.30269C13.9028 5.42879 14.0029 5.62765 13.9999 5.83781C13.997 6.04796 13.8915 6.24409 13.716 6.36557L9.90996 9L13.716 11.6344C13.8915 11.7559 13.997 11.952 13.9999 12.1622C14.0029 12.3723 13.9028 12.5712 13.7308 12.6973L9.40387 15.8685C9.19992 16.0179 8.92705 16.042 8.69902 15.9306C8.47099 15.8191 8.32695 15.5914 8.32695 15.3423V10.0957L5.06218 12.3555C4.75884 12.5655 4.33875 12.4954 4.12388 12.199C3.90902 11.9025 3.98074 11.492 4.28408 11.2821L7.58105 9L4.28408 6.71792C3.98074 6.50796 3.90902 6.09746 4.12388 5.80104C4.33875 5.50462 4.75884 5.43453 5.06218 5.6445L8.32695 7.90429V2.65772C8.32695 2.4086 8.47099 2.18085 8.69902 2.06944ZM9.6731 10.4481L12.1844 12.1863L9.6731 14.0268V10.4481ZM9.6731 7.55194V3.97316L12.1844 5.81367L9.6731 7.55194Z" fill="white"/>
</svg>
