<svg width="24" height="24" viewBox="0 0 24 24" fill="none" xmlns="http://www.w3.org/2000/svg">
<path d="M20.6667 20.6667L19 19M11.9167 19.8333C12.9563 19.8333 13.9857 19.6286 14.9462 19.2307C15.9067 18.8329 16.7795 18.2497 17.5146 17.5146C18.2497 16.7795 18.8329 15.9067 19.2307 14.9462C19.6286 13.9857 19.8333 12.9563 19.8333 11.9167C19.8333 10.877 19.6286 9.84758 19.2307 8.88709C18.8329 7.92659 18.2497 7.05387 17.5146 6.31874C16.7795 5.58361 15.9067 5.00047 14.9462 4.60262C13.9857 4.20477 12.9563 4 11.9167 4C9.81704 4 7.8034 4.83407 6.31874 6.31874C4.83407 7.8034 4 9.81704 4 11.9167C4 14.0163 4.83407 16.0299 6.31874 17.5146C7.8034 18.9993 9.81704 19.8333 11.9167 19.8333Z" stroke="#616161" stroke-width="1.5" stroke-linecap="round" stroke-linejoin="round"/>
</svg>
