<svg width="12" height="12" viewBox="0 0 12 12" fill="none" xmlns="http://www.w3.org/2000/svg">
<rect width="11.656" height="11.56" rx="5.78" fill="#E75656"/>
<path d="M5.7998 2.9502C6.28976 2.9502 6.70442 3.09903 6.99707 3.3584C7.29017 3.61824 7.45801 3.98625 7.45801 4.41602C7.458 4.95951 7.15125 5.395 6.62012 5.6582C6.94029 5.75667 7.19969 5.9149 7.38477 6.12207C7.59409 6.35661 7.70605 6.65272 7.70605 6.99219C7.70601 7.47024 7.51584 7.87639 7.18457 8.16211C6.85386 8.44727 6.38553 8.61035 5.83203 8.61035C5.28635 8.61035 4.82187 8.44915 4.49023 8.16504C4.15815 7.8805 3.96254 7.47473 3.9502 6.99316L3.94824 6.94238H4.5918L4.59375 6.98926C4.60915 7.31653 4.7378 7.58141 4.9502 7.76465C5.16337 7.94832 5.46548 8.05371 5.83203 8.05371C6.21124 8.05371 6.51032 7.95036 6.71387 7.76953C6.91667 7.58932 7.03027 7.32775 7.03027 7C7.03027 6.69118 6.90497 6.43992 6.68164 6.26465C6.4568 6.0884 6.12796 5.98633 5.71973 5.98633H5.13379V5.42188H5.7041C6.02536 5.42185 6.29492 5.31979 6.4834 5.14746C6.67148 4.97545 6.78212 4.73085 6.78223 4.44043C6.78223 4.16138 6.67907 3.92855 6.50488 3.76562C6.33042 3.60248 6.08122 3.5059 5.78418 3.50586C5.47477 3.50586 5.22129 3.60253 5.04199 3.77051C4.86285 3.9384 4.75374 4.18156 4.73828 4.48242L4.73535 4.53027H4.10059L4.10156 4.47852C4.12646 3.59995 4.85661 2.95029 5.7998 2.9502Z" fill="white" stroke="white" stroke-width="0.1"/>
</svg>
