<svg width="14" height="14" viewBox="0 0 14 14" fill="none" xmlns="http://www.w3.org/2000/svg">
<path d="M4.37492 1.75H2.62492C2.3155 1.75 2.01875 1.87292 1.79996 2.09171C1.58117 2.3105 1.45825 2.60725 1.45825 2.91667V4.66667" stroke="white" stroke-opacity="0.8" stroke-width="1.2" stroke-linecap="round" stroke-linejoin="round"/>
<path d="M12.5417 4.66667V2.91667C12.5417 2.60725 12.4188 2.3105 12.2 2.09171C11.9812 1.87292 11.6845 1.75 11.3751 1.75H9.62506" stroke="white" stroke-opacity="0.8" stroke-width="1.2" stroke-linecap="round" stroke-linejoin="round"/>
<path d="M1.45825 9.91699V11.667C1.45825 11.9764 1.58117 12.2732 1.79996 12.4919C2.01875 12.7107 2.3155 12.8337 2.62492 12.8337H4.37492" stroke="white" stroke-opacity="0.8" stroke-width="1.2" stroke-linecap="round" stroke-linejoin="round"/>
<path d="M9.62506 12.8337H11.3751C11.6845 12.8337 11.9812 12.7107 12.2 12.4919C12.4188 12.2732 12.5417 11.9764 12.5417 11.667V9.91699" stroke="white" stroke-opacity="0.8" stroke-width="1.2" stroke-linecap="round" stroke-linejoin="round"/>
</svg>
