<svg width="17" height="12" viewBox="0 0 17 12" fill="none" xmlns="http://www.w3.org/2000/svg">
<path d="M2 7.33374C2.55228 7.33374 3 7.78146 3 8.33374V10.3337C2.99982 10.8859 2.55218 11.3337 2 11.3337H1C0.447824 11.3337 0.000175969 10.8859 0 10.3337V8.33374C0 7.78146 0.447715 7.33374 1 7.33374H2ZM6.66699 5.33374C7.21913 5.33392 7.66699 5.78156 7.66699 6.33374V10.3337C7.66682 10.8858 7.21902 11.3336 6.66699 11.3337H5.66699C5.11482 11.3337 4.66717 10.8859 4.66699 10.3337V6.33374C4.66699 5.78146 5.11471 5.33374 5.66699 5.33374H6.66699ZM11.333 2.99976C11.8852 2.99976 12.3328 3.44762 12.333 3.99976V10.3337C12.3328 10.8859 11.8852 11.3337 11.333 11.3337H10.333C9.78098 11.3336 9.33318 10.8858 9.33301 10.3337V3.99976C9.33318 3.44773 9.78098 2.99993 10.333 2.99976H11.333ZM16 0.666748C16.5523 0.666748 17 1.11446 17 1.66675V10.3337C16.9998 10.8859 16.5522 11.3337 16 11.3337H15C14.4478 11.3337 14.0002 10.8859 14 10.3337V1.66675C14 1.11446 14.4477 0.666748 15 0.666748H16Z" fill="black"/>
</svg>
