<svg width="25" height="12" viewBox="0 0 25 12" fill="none" xmlns="http://www.w3.org/2000/svg">
<path d="M18.4102 0.159912C19.6582 0.159912 20.1111 0.289954 20.5674 0.533936C21.0237 0.777965 21.3819 1.13623 21.626 1.59253C21.87 2.04878 22 2.50176 22 3.74976V8.07007C22 9.31807 21.87 9.77105 21.626 10.2273C21.3819 10.6836 21.0237 11.0419 20.5674 11.2859C20.1111 11.5299 19.6582 11.6599 18.4102 11.6599H3.58984C2.34185 11.6599 1.88887 11.5299 1.43262 11.2859C0.976321 11.0419 0.618053 10.6836 0.374023 10.2273C0.130042 9.77105 0 9.31807 0 8.07007V3.74976C0 2.50176 0.130042 2.04878 0.374023 1.59253C0.618053 1.13623 0.976321 0.777965 1.43262 0.533936C1.88887 0.289954 2.34185 0.159912 3.58984 0.159912H18.4102ZM3.58984 1.15991C2.60305 1.15991 2.25812 1.22659 1.9043 1.41577C1.62227 1.5666 1.40669 1.78218 1.25586 2.06421C1.06668 2.41803 1 2.76296 1 3.74976V8.07007C1 9.05687 1.06668 9.40179 1.25586 9.75562C1.40669 10.0376 1.62227 10.2532 1.9043 10.4041C2.25812 10.5932 2.60305 10.6599 3.58984 10.6599H18.4102C19.397 10.6599 19.7419 10.5932 20.0957 10.4041C20.3777 10.2532 20.5933 10.0376 20.7441 9.75562C20.9333 9.40179 21 9.05687 21 8.07007V3.74976C21 2.76296 20.9333 2.41803 20.7441 2.06421C20.5933 1.78218 20.3777 1.5666 20.0957 1.41577C19.7419 1.22659 19.397 1.15991 18.4102 1.15991H3.58984ZM23 3.85034C23.0184 3.85977 24.5 4.62146 24.5 5.85034C24.4997 7.08666 23 7.85034 23 7.85034V3.85034Z" fill="#212121"/>
<rect x="2" y="2.07666" width="18" height="7.66667" rx="1.6" fill="#212121"/>
</svg>
