<svg width="21" height="21" viewBox="0 0 21 21" fill="none" xmlns="http://www.w3.org/2000/svg">
<path d="M17.2663 4.4838C16.8753 4.09141 16.4111 3.78014 15.9002 3.56777C15.3893 3.3554 14.8417 3.24609 14.2887 3.24609C13.7357 3.24609 13.1881 3.3554 12.6772 3.56777C12.1663 3.78014 11.7021 4.09141 11.3112 4.4838L10.4998 5.29776L9.68843 4.4838C8.89874 3.69157 7.82768 3.2465 6.71089 3.2465C5.59409 3.2465 4.52303 3.69157 3.73334 4.4838C2.94365 5.27602 2.5 6.35051 2.5 7.47088C2.5 8.59125 2.94365 9.66574 3.73334 10.458L4.5447 11.2719L10.4998 17.2461L16.4549 11.2719L17.2663 10.458C17.6574 10.0658 17.9677 9.60009 18.1794 9.08756C18.391 8.57502 18.5 8.02567 18.5 7.47088C18.5 6.91609 18.391 6.36674 18.1794 5.8542C17.9677 5.34167 17.6574 4.876 17.2663 4.4838V4.4838Z" stroke="url(#paint0_linear_214_397)" stroke-width="1.5" stroke-linecap="round" stroke-linejoin="round"/>
<defs>
<linearGradient id="paint0_linear_214_397" x1="18.5" y1="17.2461" x2="2.24075" y2="16.9382" gradientUnits="userSpaceOnUse">
<stop stop-color="#888BF4"/>
<stop offset="1" stop-color="#5151C6"/>
</linearGradient>
</defs>
</svg>
