<svg width="18" height="12" viewBox="0 0 18 12" fill="none" xmlns="http://www.w3.org/2000/svg">
<path d="M2 7.30005C2.27879 7.30005 2.41826 7.29945 2.53418 7.32251C3.01021 7.4172 3.38187 7.78984 3.47656 8.26587C3.49961 8.38178 3.5 8.52129 3.5 8.80005V9.80005C3.5 10.0787 3.49961 10.2183 3.47656 10.3342C3.38178 10.8101 3.01005 11.1819 2.53418 11.2766C2.41826 11.2997 2.27879 11.3 2 11.3C1.72121 11.3 1.58174 11.2997 1.46582 11.2766C0.98995 11.1819 0.618223 10.8101 0.523438 10.3342C0.500385 10.2183 0.5 10.0787 0.5 9.80005V8.80005C0.5 8.52129 0.500388 8.38178 0.523438 8.26587C0.618125 7.78984 0.989792 7.4172 1.46582 7.32251C1.58174 7.29945 1.72121 7.30005 2 7.30005ZM6.7998 5.30005C7.07845 5.30005 7.2181 5.29949 7.33398 5.32251C7.81001 5.4172 8.18266 5.78984 8.27734 6.26587C8.30036 6.38175 8.2998 6.52141 8.2998 6.80005V9.80005C8.2998 10.0787 8.3004 10.2183 8.27734 10.3342C8.1826 10.8102 7.80996 11.1819 7.33398 11.2766C7.21808 11.2997 7.07854 11.3 6.7998 11.3C6.52113 11.3 6.38152 11.2997 6.26562 11.2766C5.78983 11.1819 5.418 10.81 5.32324 10.3342C5.30019 10.2183 5.2998 10.0787 5.2998 9.80005V6.80005C5.2998 6.52132 5.3002 6.38177 5.32324 6.26587C5.41792 5.7899 5.78968 5.41725 6.26562 5.32251C6.38152 5.29946 6.52113 5.30005 6.7998 5.30005ZM11.4004 3.00024C11.6789 3.00024 11.8187 2.99966 11.9346 3.02271C12.4104 3.11753 12.7823 3.49017 12.877 3.96606C12.8999 4.08192 12.9004 4.2217 12.9004 4.50024V9.80005C12.9004 10.0787 12.9 10.2183 12.877 10.3342C12.7822 10.81 12.4103 11.1818 11.9346 11.2766C11.8187 11.2997 11.6789 11.3 11.4004 11.3C11.1218 11.3 10.9821 11.2996 10.8662 11.2766C10.3903 11.1819 10.0176 10.8102 9.92285 10.3342C9.8998 10.2183 9.90039 10.0787 9.90039 9.80005V4.50024C9.90039 4.22173 9.89986 4.08192 9.92285 3.96606C10.0175 3.49004 10.3902 3.11739 10.8662 3.02271C10.9821 2.99972 11.1219 3.00024 11.4004 3.00024ZM16.0996 0.599854C16.3782 0.599854 16.5179 0.600278 16.6338 0.623291C17.1098 0.717977 17.4825 1.08966 17.5771 1.56567C17.6002 1.68159 17.5996 1.82106 17.5996 2.09985V9.80005C17.5996 10.0787 17.6002 10.2183 17.5771 10.3342C17.4824 10.8102 17.1097 11.1819 16.6338 11.2766C16.5179 11.2996 16.3782 11.3 16.0996 11.3C15.8211 11.3 15.6813 11.2997 15.5654 11.2766C15.0897 11.1818 14.7178 10.81 14.623 10.3342C14.6 10.2183 14.5996 10.0787 14.5996 9.80005V2.09985C14.5996 1.82106 14.6 1.68159 14.623 1.56567C14.7177 1.08985 15.0897 0.718138 15.5654 0.623291C15.6813 0.600244 15.8211 0.599854 16.0996 0.599854Z" fill="#212121"/>
</svg>
