<svg width="24" height="24" viewBox="0 0 24 24" fill="none" xmlns="http://www.w3.org/2000/svg">
<path d="M2.02148 12.6694C2.02148 10.2902 3.89574 8.34779 6.24805 8.23877L6.45605 8.23389H7.38965C7.80374 8.23398 8.13957 8.56979 8.13965 8.98389C8.13965 9.36358 7.85729 9.67739 7.49121 9.72705L7.38965 9.73389H6.45605C4.89335 9.73411 3.61564 10.9562 3.52637 12.4966L3.52148 12.6694L3.52148 17.5444C3.5217 19.1063 4.74387 20.3839 6.28418 20.4731L6.45605 20.478H17.5869C19.1495 20.4778 20.4273 19.2559 20.5166 17.7163L20.5215 17.5444V12.6587C20.5213 11.1016 19.3039 9.82788 17.7695 9.73877L17.5977 9.73389H16.6543C16.2402 9.73379 15.9043 9.39804 15.9043 8.98389C15.9044 8.60425 16.1867 8.29038 16.5527 8.24072L16.6543 8.23389H17.5977C19.9688 8.23398 21.9048 10.101 22.0166 12.4448L22.0215 12.6587V17.5444C22.0213 19.9227 20.1469 21.8641 17.7949 21.9731L17.5869 21.978H6.45605C4.0772 21.9778 2.13539 20.1038 2.02637 17.7524L2.02148 17.5444V12.6694ZM8.57715 5.6499C8.31062 5.38435 8.28515 4.96831 8.50195 4.67432L8.5752 4.58936L11.4902 1.66162C11.5326 1.61906 11.5813 1.5837 11.6328 1.55225C11.6619 1.53453 11.691 1.51779 11.7217 1.50439C11.7394 1.49664 11.758 1.49125 11.7764 1.48486C11.801 1.47633 11.8253 1.46731 11.8506 1.46143C11.8868 1.45297 11.9239 1.44781 11.9619 1.44482C11.9678 1.44436 11.9736 1.44417 11.9795 1.44385C11.9934 1.44308 12.0074 1.44092 12.0215 1.44092C12.0333 1.44092 12.0449 1.44428 12.0566 1.44482C12.0812 1.44598 12.1055 1.4481 12.1299 1.45166C12.1525 1.45495 12.1744 1.45911 12.1963 1.46436C12.2161 1.4691 12.2355 1.47459 12.2549 1.48096C12.2787 1.4888 12.3015 1.4982 12.3242 1.5083C12.3423 1.51633 12.3604 1.52416 12.3779 1.53369C12.3986 1.54495 12.418 1.55771 12.4375 1.5708C12.4473 1.57741 12.4592 1.58125 12.4688 1.58838L12.4971 1.61377C12.5087 1.62336 12.5202 1.63281 12.5313 1.64307L12.5527 1.66162L15.4688 4.58936C15.7609 4.88275 15.76 5.35759 15.4668 5.6499C15.2001 5.9155 14.7834 5.93933 14.4902 5.72119L14.4063 5.64795L12.7715 4.0083L12.7715 14.2319C12.7713 14.6459 12.4355 14.9819 12.0215 14.9819C11.6419 14.9819 11.3281 14.6995 11.2783 14.3335L11.2715 14.2319L11.2715 4.00635L9.6377 5.64795C9.37202 5.91477 8.95521 5.94033 8.66113 5.72314L8.57715 5.6499Z" fill="#242424"/>
</svg>
