<svg width="185" height="58" viewBox="0 0 185 58" fill="none" xmlns="http://www.w3.org/2000/svg">
<path fill-rule="evenodd" clip-rule="evenodd" d="M0 22.4C0 14.5593 0 10.6389 1.52591 7.64413C2.86814 5.00986 5.00986 2.86814 7.64413 1.52591C10.6389 0 14.5593 0 22.4 0H162.6C170.441 0 174.361 0 177.356 1.52591C179.99 2.86814 182.132 5.00986 183.474 7.64413C185 10.6389 185 14.5593 185 22.4V35.6C185 43.4407 185 47.3611 183.474 50.3559C182.132 52.9901 179.99 55.1319 177.356 56.4741C174.361 58 170.441 58 162.6 58H22.4C14.5593 58 10.6389 58 7.64413 56.4741C5.00986 55.1319 2.86814 52.9901 1.52591 50.3559C0 47.3611 0 43.4407 0 35.6V22.4Z" fill="#5669FF"/>
</svg>
