<svg width="15" height="15" viewBox="0 0 15 15" fill="none" xmlns="http://www.w3.org/2000/svg">
<g clip-path="url(#clip0_39_1454)">
<path d="M13.1249 6.25073C13.1249 10.6257 7.49988 14.3757 7.49988 14.3757C7.49988 14.3757 1.87488 10.6257 1.87488 6.25073C1.87488 4.75889 2.46751 3.32815 3.5224 2.27326C4.57729 1.21836 6.00804 0.625732 7.49988 0.625732C8.99172 0.625732 10.4225 1.21836 11.4774 2.27326C12.5322 3.32815 13.1249 4.75889 13.1249 6.25073Z" stroke="#5669FF" stroke-width="1.69811" stroke-linecap="round" stroke-linejoin="round"/>
<path d="M7.49976 8.12512C8.53529 8.12512 9.37476 7.28566 9.37476 6.25012C9.37476 5.21459 8.53529 4.37512 7.49976 4.37512C6.46422 4.37512 5.62476 5.21459 5.62476 6.25012C5.62476 7.28566 6.46422 8.12512 7.49976 8.12512Z" stroke="#5669FF" stroke-width="1.69811" stroke-linecap="round" stroke-linejoin="round"/>
</g>
<defs>
<clipPath id="clip0_39_1454">
<rect width="15" height="15" fill="white" transform="translate(-0.00012207 0.000244141)"/>
</clipPath>
</defs>
</svg>
