<svg width="30" height="30" viewBox="0 0 30 30" fill="none" xmlns="http://www.w3.org/2000/svg">
<g clip-path="url(#clip0_39_1498)">
<path d="M10.2466 6.01467V20.7577C9.30803 19.9036 8.06146 19.3825 6.6957 19.3825C3.78328 19.3825 1.41382 21.752 1.41382 24.6644C1.41382 27.5768 3.78328 29.9463 6.6957 29.9463C9.60452 29.9463 11.9713 27.5827 11.9774 24.6754H11.9776V14.1405L27.146 9.58226V17.2043C26.2074 16.3504 24.9608 15.8291 23.5951 15.8291C20.6826 15.8291 18.3132 18.1986 18.3132 21.111C18.3132 24.0234 20.6826 26.3929 23.5951 26.3929C26.4976 26.3929 28.8605 24.0394 28.8765 21.1405H28.877V0.416016L10.2466 6.01467Z" fill="#B6B6B6"/>
</g>
<defs>
<clipPath id="clip0_39_1498">
<rect width="29.5302" height="29.5302" fill="white" transform="translate(0.375732 0.473999)"/>
</clipPath>
</defs>
</svg>
