<svg width="30" height="30" viewBox="0 0 30 30" fill="none" xmlns="http://www.w3.org/2000/svg">
<g clip-path="url(#clip0_39_1505)">
<path d="M20.5622 18.8176C23.3754 18.7679 23.9945 14.8978 21.3399 13.9761L18.2747 17.3003C18.6572 18.2009 19.5589 18.8176 20.5622 18.8176Z" fill="white"/>
<path d="M29.6412 13.7949C29.2472 11.4307 28.1395 9.60589 26.4196 8.46646C25.6186 9.33595 23.4115 11.7287 22.5785 12.6324C23.9187 13.3588 24.7766 14.7653 24.7766 16.3346C24.786 19.9716 20.3971 21.9031 17.7225 19.4471C17.4675 20.0113 17.1098 20.5306 16.6592 20.9811C14.8733 22.9173 9.34148 23.3853 6.98012 23.3165C6.91112 20.9493 7.38108 15.4201 9.31557 13.6374C10.3026 12.6509 11.5903 12.1449 12.8867 12.1201C14.3054 10.8076 16.2727 8.98708 17.6856 7.67953C15.723 8.19669 12.8484 9.56585 11.9717 8.27319C11.5614 7.30482 13.4268 5.05464 11.955 3.16624C10.7488 1.65175 8.04928 1.93624 6.52377 3.0122C-0.903806 8.14044 -1.89698 19.4076 4.5872 25.6756C12.525 33.6744 26.3718 30.0506 29.4139 19.2111C29.5791 18.5289 30.0519 16.2925 29.6412 13.7949Z" fill="white"/>
<path d="M16.6592 13.6376C17.1415 14.1199 17.517 14.6801 17.7743 15.2899C18.7568 14.2259 23.9441 8.59805 24.8053 7.6647L29.4109 2.66967C29.914 2.1239 29.9273 1.3162 29.4415 0.829853C28.9546 0.343505 28.1457 0.357351 27.6 0.862161L20.8644 7.09585C19.4019 8.44891 16.4929 11.142 15.0005 12.523C15.604 12.7757 16.1688 13.1472 16.6592 13.6376Z" fill="white"/>
<path d="M14.5118 14.2001C13.1977 13.5606 11.6053 13.7981 10.5397 14.8601C9.439 15.8332 8.81407 19.5368 8.75061 21.5455C10.7651 21.48 14.4598 20.8587 15.4355 19.7564C16.0897 19.1022 16.4497 18.2328 16.4497 17.3086C16.4495 16.383 16.0891 15.5136 15.4355 14.8607V14.8601C15.1585 14.5826 14.8458 14.3628 14.5118 14.2001Z" fill="white"/>
</g>
<defs>
<clipPath id="clip0_39_1505">
<rect width="29.5302" height="29.5302" fill="white" transform="translate(0.277466 0.473999)"/>
</clipPath>
</defs>
</svg>
