<svg width="30" height="30" viewBox="0 0 30 30" fill="none" xmlns="http://www.w3.org/2000/svg">
<g clip-path="url(#clip0_39_1516)">
<path d="M14.3146 4.42774C14.122 3.15887 13.7323 1.87442 13.1647 0.619385C10.2172 1.03385 7.54935 2.31824 5.42877 4.20505L12.7548 11.5311C14.1861 9.71082 14.7394 7.22451 14.3146 4.42774Z" fill="white"/>
<path d="M12.7625 13.986C11.0129 15.4306 8.76178 16.1854 6.23262 16.1854C5.56254 16.1854 4.87319 16.1325 4.16828 16.0255C2.93677 15.8385 1.69541 15.4876 0.477175 14.987C0.475848 15.071 0.47406 15.1548 0.47406 15.2391C0.47406 19.0051 1.88476 22.441 4.20548 25.0493L14.0157 15.2391L12.7625 13.986Z" fill="white"/>
<path d="M11.5319 12.7535L4.20579 5.42749C2.31897 7.54807 1.03458 10.2159 0.620117 13.1634C1.87521 13.731 3.15971 14.1207 4.42842 14.3134C7.22536 14.7382 9.71161 14.1849 11.5319 12.7535Z" fill="white"/>
<path d="M26.0506 16.1625C23.2538 15.7377 20.7675 16.291 18.9472 17.7224L26.2732 25.0484C28.16 22.9278 29.4444 20.26 29.859 17.3125C28.604 16.745 27.3195 16.3553 26.0506 16.1625Z" fill="white"/>
<path d="M16.4918 17.7149L15.239 16.462L5.42877 26.2722C8.03706 28.593 11.473 30.0036 15.239 30.0036C15.3232 30.0036 15.4071 30.0019 15.491 30.0005C14.9905 28.7822 14.6396 27.5409 14.4526 26.3094C13.9415 22.9439 14.6644 19.928 16.4918 17.7149Z" fill="white"/>
<path d="M13.986 12.7622L15.2389 14.015L25.0491 4.2048C22.4408 1.88403 19.0048 0.473389 15.2389 0.473389C15.1546 0.473389 15.0707 0.475177 14.9868 0.476561C15.4873 1.69474 15.8382 2.93599 16.0253 4.16766C16.5363 7.53312 15.8134 10.549 13.986 12.7622Z" fill="white"/>
<path d="M16.1631 26.0491C16.3557 27.3178 16.7455 28.6023 17.3131 29.8574C20.2606 29.443 22.9284 28.1586 25.0489 26.2718L17.7229 18.9457C16.2916 20.766 15.7383 23.2523 16.1631 26.0491Z" fill="white"/>
<path d="M17.7156 16.4906C19.9288 14.6631 22.9446 13.9403 26.3101 14.4513C27.5418 14.6384 28.7831 14.9893 30.0012 15.4898C30.0026 15.4059 30.0044 15.322 30.0044 15.2377C30.0044 11.4717 28.5937 8.03578 26.273 5.42749L16.4628 15.2377L17.7156 16.4906Z" fill="white"/>
</g>
<defs>
<clipPath id="clip0_39_1516">
<rect width="29.5302" height="29.5302" fill="white" transform="translate(0.473999 0.473999)"/>
</clipPath>
</defs>
</svg>
