<svg width="30" height="30" viewBox="0 0 30 30" fill="none" xmlns="http://www.w3.org/2000/svg">
<g clip-path="url(#clip0_39_1531)">
<path d="M28.9436 25.5826L17.3636 14.0025L3.83435 0.473267H2.77703L2.56114 1.02185C1.99133 2.46984 1.74786 3.95081 1.85716 5.30448C1.98175 6.84752 2.56795 8.18343 3.55247 9.16796L14.1141 19.7296L15.5072 18.3365L25.2714 29.2548C26.2428 30.2261 27.9146 30.2838 28.9436 29.2548C29.9561 28.2423 29.9561 26.595 28.9436 25.5826Z" fill="#B6B6B6"/>
<path d="M9.21924 17.2852L0.9474 25.557C-0.0649863 26.5694 -0.0649863 28.2168 0.9474 29.2292C1.90914 30.1909 3.5729 30.2758 4.61955 29.2292L12.8915 20.9573L9.21924 17.2852Z" fill="#B6B6B6"/>
<path d="M28.4573 5.38993L23.765 10.0821L22.5409 8.85807L27.2332 4.1658L26.0091 2.94173L21.3169 7.63394L20.0928 6.40987L24.7851 1.71766L23.5611 0.493652L17.4407 6.614C16.692 7.36274 16.2449 8.3569 16.1817 9.41346C16.1657 9.68115 16.105 9.94446 16.0044 10.1949L19.9802 14.1707C20.2306 14.0699 20.494 14.0093 20.7616 13.9933C21.8182 13.9303 22.8123 13.4831 23.5611 12.7343L29.6814 6.61406L28.4573 5.38993Z" fill="#B6B6B6"/>
</g>
<defs>
<clipPath id="clip0_39_1531">
<rect width="29.5318" height="29.5318" fill="white" transform="translate(0.179199 0.473999)"/>
</clipPath>
</defs>
</svg>
