<svg width="23" height="30" viewBox="0 0 23 30" fill="none" xmlns="http://www.w3.org/2000/svg">
<g clip-path="url(#clip0_39_1546)">
<path d="M29.2384 25.5826L17.6584 14.0025L4.12915 0.473267H3.07183L2.85594 1.02185C2.28613 2.46984 2.04266 3.95081 2.15196 5.30448C2.27655 6.84752 2.86275 8.18343 3.84727 9.16796L14.4089 19.7296L15.802 18.3365L25.5662 29.2548C26.5376 30.2261 28.2094 30.2838 29.2384 29.2548C30.2509 28.2423 30.2509 26.595 29.2384 25.5826Z" fill="#B6B6B6"/>
<path d="M9.51404 17.2852L1.2422 25.557C0.229813 26.5694 0.229813 28.2168 1.2422 29.2292C2.20394 30.1909 3.8677 30.2758 4.91435 29.2292L13.1863 20.9573L9.51404 17.2852Z" fill="#B6B6B6"/>
<path d="M28.7521 5.38993L24.0598 10.0821L22.8357 8.85807L27.528 4.1658L26.3039 2.94173L21.6117 7.63394L20.3876 6.40987L25.0799 1.71766L23.8559 0.493652L17.7355 6.614C16.9868 7.36274 16.5397 8.3569 16.4765 9.41346C16.4605 9.68115 16.3998 9.94446 16.2992 10.1949L20.275 14.1707C20.5254 14.0699 20.7888 14.0093 21.0564 13.9933C22.113 13.9303 23.1071 13.4831 23.8559 12.7343L29.9762 6.61406L28.7521 5.38993Z" fill="#B6B6B6"/>
</g>
<defs>
<clipPath id="clip0_39_1546">
<rect width="29.5318" height="29.5318" fill="white" transform="translate(0.473999 0.473999)"/>
</clipPath>
</defs>
</svg>
