<svg width="57" height="63" viewBox="0 0 57 63" fill="none" xmlns="http://www.w3.org/2000/svg">
<path d="M56.7087 2.35596C56.7087 2.35596 52.0574 2.87753 49.9649 4.81605C49.154 5.57042 48.6247 8.56102 48.0323 12.9395C48.03 12.9462 48.03 12.9529 48.0278 12.9596C47.093 19.8541 45.9893 30.1735 43.3449 40.616C39.0135 57.7068 28.2581 63.8223 28.2581 63.8223C20.8273 63.4664 15.3403 61.7473 11.3152 59.2357C0.553063 52.5225 0.248982 40.1527 1.22429 33.0813C-0.217273 30.122 0.28277 25.8264 0.406654 25.7928C6.51753 24.2013 12.7523 27.259 17.4306 30.6839C19.0681 31.8837 20.5164 33.1283 21.699 34.2319C23.5753 35.9846 24.7938 37.3859 25.0664 37.7015V37.7038C25.1047 37.7485 25.1227 37.7709 25.1227 37.7709L21.467 41.4487L23.1811 45.2788C23.1811 45.2788 44.3293 5.01751 48.0345 2.11197C53.7467 -0.126509 55.6095 0.363718 55.6095 0.363718L56.7087 2.35596Z" fill="#F6EF97"/>
<path d="M41.8892 16.5389C42.79 15.6438 42.79 14.1924 41.8893 13.2973C40.9885 12.4021 39.5281 12.4021 38.6274 13.2973C37.7267 14.1924 37.7267 15.6438 38.6274 16.5389C39.5281 17.4341 40.9885 17.4341 41.8892 16.5389Z" fill="#FFB459"/>
<path d="M45.0204 11.6389C45.9211 10.7437 45.9211 9.2924 45.0204 8.39725C44.1197 7.5021 42.6593 7.5021 41.7586 8.39725C40.8578 9.2924 40.8578 10.7437 41.7586 11.6389C42.6593 12.534 44.1197 12.534 45.0204 11.6389Z" fill="#FFB459"/>
<path d="M39.4261 20.5802C39.7174 19.3478 38.9483 18.114 37.7082 17.8245C36.4681 17.535 35.2267 18.2993 34.9353 19.5317C34.644 20.7641 35.4131 21.9979 36.6532 22.2874C37.8933 22.5769 39.1348 21.8126 39.4261 20.5802Z" fill="#FFB459"/>
<path d="M36.3522 25.7299C36.6462 24.4981 35.8797 23.2627 34.6403 22.9705C33.4008 22.6783 32.1577 23.44 31.8637 24.6718C31.5697 25.9036 32.3361 27.139 33.5756 27.4311C34.815 27.7233 36.0581 26.9616 36.3522 25.7299Z" fill="#FFB459"/>
<path d="M33.2784 30.8703C33.5724 29.6385 32.806 28.4031 31.5665 28.1109C30.3271 27.8187 29.084 28.5804 28.79 29.8122C28.496 31.0439 29.2624 32.2793 30.5019 32.5715C31.7413 32.8637 32.9844 32.102 33.2784 30.8703Z" fill="#FFB459"/>
<path d="M30.2012 36.0001C30.4925 34.7677 29.7234 33.5339 28.4833 33.2444C27.2432 32.9549 26.0017 33.7192 25.7104 34.9516C25.4191 36.184 26.1882 37.4178 27.4283 37.7073C28.6684 37.9969 29.9098 37.2325 30.2012 36.0001Z" fill="#FFB459"/>
<path d="M44.0184 5.65979L50.0392 8.16241L51.3456 6.9111L44.9351 4.26074" fill="#F2583E"/>
<path d="M48.0278 12.9597C47.093 19.8542 45.9893 30.1736 43.345 40.6161C39.0135 57.7069 28.2581 63.8224 28.2581 63.8224C28.2581 63.8224 22.0774 61.9219 19.6403 59.2358L27.6184 60.5229C27.6184 60.5229 45.7258 26.8428 48.0278 12.9597Z" fill="#FFB459"/>
<path d="M17.4307 30.6839C15.2615 33.3365 13.3965 36.2287 12.0451 39.367C10.2116 43.6246 9.84893 48.8895 10.153 53.5097C10.2814 55.4572 10.6778 57.389 11.3175 59.2357C0.555349 52.5225 0.25127 40.1527 1.22658 33.0813C-0.217238 30.1221 0.285057 25.8264 0.406689 25.7929C6.51982 24.2013 12.7523 27.2591 17.4307 30.6839Z" fill="#FFB459"/>
<path d="M25.0664 37.7013L21.467 41.4485C4.05562 42.3663 2.18384 29.2689 2.18384 29.2689L13.151 30.2136L21.6967 34.2316C23.5753 35.9844 24.7939 37.3856 25.0664 37.7013Z" fill="#FFB459"/>
<path d="M25.1227 37.7709C6.78785 43.2797 0.406677 25.7928 0.406677 25.7928C12.5293 22.6343 25.1227 37.7709 25.1227 37.7709Z" fill="#171766"/>
</svg>
