<svg width="49" height="50" viewBox="0 0 49 50" fill="none" xmlns="http://www.w3.org/2000/svg">
<path d="M56.9948 30.4937C56.1411 35.3199 52.2444 39.8931 46.5007 42.9867C39.6893 46.6555 30.2808 48.2426 20.2777 45.7019C18.4443 45.2363 16.5905 44.6319 14.73 43.8753L22.1923 23.5119C23.5978 23.8119 25.0799 24.1029 26.5778 24.3558C33.4162 25.5131 40.6263 25.8959 42.7503 23.0038C47.1133 17.0673 42.7503 6.0831 42.7503 6.0831C42.7503 6.0831 40.7412 3.63645 44.2572 0.269775C44.2572 0.269775 55.7289 13.0313 57.1097 25.1885C57.3146 26.9838 57.3011 28.7678 56.9948 30.4937Z" fill="#00B6AA"/>
<path d="M18.2123 22.1889L17.0185 14.3587L15.5656 13.7252L14.498 18.7484L7.84652 13.5193L6.73382 15.1041L10.1823 19.8833L4.80122 18.1955L3.54661 20.7854L9.83543 24.4789L1.46535 24.358L0.956299 26.3905L19.111 33.6208L22.7487 26.3905L18.2123 22.1889Z" fill="#F1573D"/>
<path d="M1.46533 26.1222L1.72436 24.4791C1.72436 24.4791 3.26504 24.9402 3.11187 25.7707C2.96096 26.6012 1.46533 26.1222 1.46533 26.1222Z" fill="#171766"/>
<path d="M4.44983 20.3869L5.18863 18.7775C5.18863 18.7775 7.06267 19.9101 6.83292 20.6891C6.60767 21.4681 4.44983 20.3869 4.44983 20.3869Z" fill="#171766"/>
<path d="M7.33972 15.1802L8.0988 14.1997C8.0988 14.1997 9.97283 15.6323 9.31286 16.2748C8.6574 16.915 7.33972 15.1802 7.33972 15.1802Z" fill="#171766"/>
<path d="M15.845 14.4753L17.059 14.8536C17.059 14.8536 17.3631 17.0921 16.7054 16.9422C16.0477 16.7899 15.845 14.4753 15.845 14.4753Z" fill="#171766"/>
<path d="M27.5373 21.101L26.5778 24.3558L20.2777 45.7019L19.1492 49.523L13.8042 46.3981L14.73 43.8753L22.1923 23.5119L23.5235 19.8833L27.5373 21.101Z" fill="white"/>
<path d="M56.9948 30.4939C56.1411 35.3201 52.2444 39.8933 46.5007 42.9868C45.2641 40.2649 45.0298 37.0907 45.9263 34.2344C47.2575 29.9858 51.0078 26.6549 55.3302 25.4932C55.9001 25.3387 56.506 25.229 57.1097 25.1887C57.3146 26.984 57.3011 28.768 56.9948 30.4939Z" fill="#FFB459"/>
</svg>
